<svg width="332" height="280" viewBox="0 0 332 280" fill="none" xmlns="http://www.w3.org/2000/svg">
<g clip-path="url(#clip0_320_3296)">
<path d="M226.898 278.144C226.031 277.998 225.197 277.957 224.418 278.41C223.726 278.814 222.996 279.184 222.271 279.546C221.033 280.162 219.862 280.204 218.745 279.326C218.453 279.097 217.953 279.051 217.607 278.856C215.852 277.857 213.885 277.699 211.83 277.878C211.271 277.928 210.721 278.027 210.271 278.094C209.425 277.499 208.899 276.792 207.678 276.925C206.986 277 206.24 276.879 205.54 276.767C204.673 276.625 203.868 276.309 203.497 275.622C203.068 274.832 202.28 274.361 201.409 273.941C200.059 273.284 198.733 272.609 197.666 271.656C196.978 271.045 196.061 270.703 195.128 270.383C193.539 269.842 191.968 269.272 190.397 268.706C189.6 268.419 189.004 267.986 188.454 267.408C186.983 265.864 185.411 264.374 183.661 263.017C182.314 261.973 180.851 261.049 179.063 260.504C177.642 260.067 176.258 260.021 174.887 260.608C174.507 260.77 174.099 260.908 173.749 261.103C173.086 261.474 172.39 261.328 171.673 261.299C171.294 261.286 170.898 261.524 170.506 261.644L170.61 261.561C169.61 261.586 168.613 261.611 167.738 262.09C167.388 262.281 167.017 262.46 166.638 262.618C164.141 263.654 161.719 263.617 159.393 262.289C159.051 262.094 158.735 261.865 158.405 261.653L158.51 261.732C157.138 261.299 155.888 261.357 154.846 262.285L154.917 262.243C154.058 262.273 153.195 262.273 152.345 262.335C151.753 262.381 151.215 262.364 150.698 262.102C149.781 261.64 148.852 261.653 147.822 261.94C145.93 262.472 143.987 262.893 142.083 263.396C141.87 263.45 141.649 263.717 141.62 263.904C141.599 264.045 141.837 264.274 142.033 264.357C142.27 264.461 142.587 264.486 142.866 264.486C143.729 264.486 144.592 264.457 145.455 264.441L145.359 264.349C144.696 264.561 144.05 264.84 143.362 264.973C141.228 265.389 139.623 266.613 137.639 267.27C136.535 267.637 136.064 268.527 135.889 269.518C135.78 270.121 134.988 270.537 134.317 270.495C133.038 270.416 131.762 270.292 130.462 270.183C129.87 270.679 129.274 271.174 128.678 271.673C127.494 272.655 126.581 272.867 125.276 272.289C123.884 271.673 122.538 271.028 120.925 270.82C120.554 270.774 120.237 270.441 119.908 270.229C119.299 269.842 118.578 269.68 117.882 269.9C115.706 270.591 113.647 269.809 111.55 269.617C110.679 269.538 109.962 268.989 109.608 268.34C108.999 267.22 107.832 266.517 106.657 265.918C104.11 264.628 101.597 263.271 98.7413 262.41C97.9326 262.164 97.1698 261.827 96.3779 261.544C95.4275 261.203 94.7814 260.662 94.2187 259.938C92.689 257.978 90.7383 256.293 88.5374 254.786C87.2244 253.888 85.9698 252.93 84.6818 252.007C84.3609 251.778 84.0607 251.47 83.6773 251.366C81.764 250.854 80.5386 249.689 79.6007 248.411C78.417 246.801 76.8372 245.473 75.3366 244.083C73.1775 242.078 70.9725 240.101 68.7258 238.153C67.6587 237.23 66.7042 236.185 65.1828 235.661C63.8281 235.195 62.6527 234.554 62.1191 233.38C59.7724 231.379 57.655 229.198 54.9373 227.48C54.0369 226.91 53.2366 226.235 52.3696 225.632C51.8319 225.257 51.3067 224.812 50.669 224.592C49.5269 224.201 48.9975 223.427 48.2598 222.719C47.1552 221.67 46.1173 220.597 45.0919 219.498C44.1541 218.491 42.9203 217.659 41.8365 216.735C41.3447 216.315 40.8361 215.899 40.436 215.424C38.9771 213.697 37.1139 212.245 35.3841 210.705C33.946 209.424 32.3371 208.271 31.2534 206.735C30.7698 206.049 30.0529 205.404 29.2609 204.929C27.4811 203.86 26.3974 202.403 25.2386 200.947C22.9961 198.13 20.6994 195.342 18.3318 192.591C16.6979 190.689 14.5888 189.1 12.6005 187.435C11.9086 186.852 11.2875 186.257 10.7581 185.554C9.87448 184.385 8.76156 183.328 7.37353 182.462C6.71078 182.05 6.14807 181.484 5.70624 180.906C4.12231 178.846 2.53838 176.79 0.641832 174.897C0.304205 174.56 0.133307 174.077 0.0457745 173.64C-0.170974 172.567 0.558467 171.784 2.07987 171.364C2.20492 171.331 2.36748 171.356 2.50503 171.381C2.64259 171.406 2.88434 171.451 2.89268 171.501C2.99272 172.35 4.06395 172.408 4.60999 172.883C4.96846 173.195 5.11435 173.669 5.33943 174.044C5.83129 173.736 6.26895 173.44 6.73579 173.178C7.56527 172.712 7.71533 172.076 7.47357 171.356C7.29017 170.802 6.99422 170.274 6.82333 169.72C6.76497 169.529 6.84834 169.2 7.0234 169.088C8.2572 168.301 9.41597 167.448 10.5414 166.566C10.829 166.341 11.3083 166.183 11.7168 166.162C12.7506 166.112 13.6634 165.967 14.0927 165.093C16.1435 163.674 17.9984 162.018 20.8161 161.51C21.087 161.576 21.3871 161.606 21.6289 161.714C22.7585 162.217 23.9048 162.101 24.9385 161.631C26.6891 160.832 28.419 159.987 30.0737 159.067C32.1912 157.89 33.35 156.221 33.6834 154.173C33.7543 153.741 33.9335 153.241 34.2837 152.925C34.9131 152.359 35.9885 152.147 35.8718 151.069C35.8051 150.441 36.3303 149.775 36.5303 149.113C36.5845 148.93 36.4512 148.693 36.3511 148.502C36.1927 148.194 35.8384 147.902 35.8259 147.599C35.7801 146.458 35.8217 145.314 35.8634 144.17C35.8718 143.953 35.9801 143.712 36.1385 143.533C37.0555 142.518 37.0514 141.386 36.8805 140.225C36.8305 139.883 36.6721 139.546 36.6679 139.205C36.6262 136.783 35.1632 134.819 33.5209 132.909C33.1082 132.43 32.6539 132.002 31.9828 131.731C31.6118 131.582 31.145 131.386 30.9991 131.115C30.2363 129.713 28.4356 128.943 27.6562 127.541C27.3852 127.05 26.6766 126.713 26.2015 126.284C25.8221 125.947 25.4303 125.606 25.1469 125.219C23.1128 122.435 20.987 119.697 18.5903 117.1C17.6066 116.035 17.1189 114.886 17.2481 113.559C17.3148 112.872 17.2481 112.177 17.2731 111.491C17.2814 111.266 17.3731 111.041 17.4273 110.816C18.5986 109.476 20.02 108.336 21.954 107.745C22.9669 107.437 23.5921 106.822 24.3341 106.297C25.5345 105.448 26.8309 104.758 28.3398 104.291C29.5486 103.921 30.699 103.422 31.8994 103.035C33.4959 102.519 35.0881 101.986 36.7346 101.591C37.81 101.333 38.9854 101.145 40.0692 101.695C39.5023 102.556 39.6273 103.031 40.561 103.314C40.9528 103.43 41.3905 103.48 41.8115 103.492C42.3575 103.509 43.0203 102.889 42.8035 102.56C42.3367 101.849 42.12 101.083 41.8032 100.334C41.4864 99.5891 40.857 98.9317 40.411 98.2159C39.8649 97.3379 39.6565 96.5014 39.7857 95.5651C39.94 94.4374 40.2609 93.2972 40.1859 92.1778C40.1442 91.5577 40.1859 91.1916 40.6902 90.6964C41.303 90.0888 41.6239 89.294 42.1825 88.3993C42.6493 88.3077 43.3412 88.1829 44.0332 88.0373C44.6084 87.9166 45.1002 87.6877 45.3795 87.2466C45.7672 86.6349 46.0673 85.9857 46.8134 85.5529C47.6304 85.0785 47.7846 84.1006 48.7975 83.7802C50.1313 83.3599 51.5318 83.2226 52.9657 83.3225C53.1074 83.3308 53.2491 83.3682 53.3909 83.3932L53.3575 83.3599C53.6632 83.7039 54.0175 83.7067 54.4204 83.3682L54.3871 83.4015C55.4333 83.052 56.5837 82.9022 57.4924 82.2946C57.8134 82.0824 58.2427 81.9742 58.6262 81.8161C60.7853 80.9338 63.0945 80.2223 65.0661 79.1237C67.0335 78.0292 68.6633 76.5478 70.4556 75.2453C71.1934 74.7085 71.9562 74.2008 73.0024 74.0468C75.1741 73.7222 76.9164 72.736 78.617 71.6873L78.5087 71.6124C78.6754 71.7997 78.7963 72.0327 79.0172 72.1659C79.3381 72.3573 79.7883 72.6569 80.0801 72.5945C81.4681 72.2991 82.8436 71.9495 84.1733 71.5167C86.1907 70.8634 88.2248 70.3183 90.4298 70.2558C91.772 70.2184 92.9141 69.8231 93.952 69.1073C94.6147 68.6496 95.5026 68.533 96.3862 68.8951C96.6321 68.995 96.9406 69.0282 97.224 69.0449C98.4953 69.1281 99.6791 69.7398 101.038 69.3653C102.205 69.0449 102.826 68.2293 103.718 67.6675C104.177 67.3804 104.752 67.0474 105.277 67.2555C106.69 67.8131 107.765 67.2763 108.903 66.7562C109.566 66.4524 110.033 66.0612 110.158 65.4495C110.316 64.6588 110.683 63.8557 110.596 63.0817C110.366 61.0052 111.133 59.2491 112.763 57.6719C112.926 57.5138 113.03 57.2433 112.997 57.0436C112.967 56.8605 112.717 56.565 112.551 56.5567C111.992 56.5401 111.359 56.5151 110.879 56.7024C108.808 57.5013 106.782 58.3711 104.435 59.3448C102.626 59.2949 100.475 59.3573 98.4245 60.0314C97.8368 60.5058 98.041 61.5129 97.1032 61.6585C95.3567 61.929 94.8273 62.8736 94.5355 64.0596C94.3438 64.8419 94.1229 65.6243 93.8978 66.4773C93.4143 65.8365 92.9808 65.2539 92.5431 64.6713C92.218 64.2427 91.3843 64.5382 91.1134 64.043C90.9425 63.735 90.905 63.3397 90.6299 63.115C90.2756 62.8278 89.7504 62.678 89.1793 62.4117C89.692 61.8957 90.138 61.4588 90.5632 61.0093C90.7341 60.8304 91.005 60.589 90.9592 60.4184C90.6215 59.1284 91.5511 57.9674 91.4927 56.7024C91.3218 52.8032 91.7136 48.8998 91.276 45.0048C91.2134 44.4347 91.2843 43.8563 91.2301 43.282C91.1217 42.0836 91.5469 40.985 92.3514 40.0154C94.9815 36.8528 97.8784 33.8483 101.192 31.1101C102.101 30.3611 103.114 29.7285 104.227 29.1792C106.803 27.91 109.395 26.6741 111.763 25.1469C113.101 24.2813 114.585 23.5365 116.102 22.879C119.928 21.2144 123.284 19.0755 126.418 16.6911C126.614 16.5412 126.927 16.4913 127.185 16.3956C127.298 16.895 127.573 17.2861 128.302 17.1696C128.703 17.1072 129.107 16.9491 129.428 16.7535C129.553 16.6744 129.486 16.3665 129.444 16.1709C129.432 16.1043 129.207 16.0003 129.115 16.0211C128.432 16.1667 127.752 16.3373 127.077 16.5038C127.694 15.4676 128.315 14.4314 128.828 13.5701C128.486 12.0553 128.186 10.7112 127.898 9.44616C128.198 8.86357 128.773 8.8178 129.332 8.72209C130.049 8.59725 130.707 8.34341 131.112 7.8274C131.52 7.30723 132.041 6.98265 132.85 6.97849C133.779 6.97433 134.434 6.62477 134.988 6.00473C135.834 5.06011 136.951 4.38597 138.381 3.96984C139.423 3.66606 140.503 3.28322 141.236 2.50088C141.457 2.26369 141.941 2.10972 142.329 2.06394C143.183 1.96823 144.058 1.98072 144.921 1.92662C145.509 1.89333 146.013 1.73936 146.376 1.31074C147.043 0.524246 148.11 0.453503 149.094 0.653247C150.194 0.87796 151.215 1.34403 152.291 1.65197C152.632 1.74768 152.841 1.54377 152.782 1.29826C152.662 0.773926 152.907 0.424373 153.533 0.232952C154.516 -0.0625035 155.504 -0.158214 156.455 0.282888C157.818 0.919573 159.206 1.51048 160.273 2.50504C161.402 3.5537 162.882 4.2861 164.303 5.07675C165.479 5.73008 166.567 6.51242 167.567 7.3322C168.497 8.09373 169.981 8.16447 170.756 9.06748C173.169 10.1869 174.957 11.8556 176.696 13.5284C177.721 14.5147 178.817 15.401 180.047 16.2C180.493 16.4913 181.047 16.6911 181.418 17.0281C184.653 19.9619 188.692 22.2506 191.855 25.2385C193.248 26.5493 194.619 27.8767 196.428 28.863C196.778 29.0544 197.157 29.3041 197.333 29.5954C198.179 31.0227 199.763 31.8716 201.317 32.6581C203.039 33.5278 204.289 34.8054 205.982 35.7125C207.503 36.5323 208.658 37.7807 209.962 38.8502C210.467 39.2622 210.863 39.7823 211.434 40.1069C213.226 41.1265 214.514 42.5205 215.952 43.8064C216.719 44.493 217.423 45.2087 218.549 45.5874C219.049 45.758 219.491 46.1242 219.849 46.4696C222.6 49.1204 225.56 51.6214 228.603 54.0557C229.836 55.042 230.954 56.0823 231.908 57.2392C233.009 58.5791 234.055 59.9565 236.055 60.5932C237.919 61.8832 239.382 63.4562 240.766 65.0583C241.983 66.4649 243.05 67.9588 244.092 69.4569C244.667 70.285 245.346 70.9799 246.389 71.4585C246.88 71.6832 247.485 71.9245 247.727 72.2866C248.531 73.5017 249.882 73.6681 251.374 73.7264C253.112 73.7971 254.821 73.8429 256.513 73.3685C257.168 73.1854 257.939 73.2229 258.656 73.227C259.072 73.227 259.564 73.2853 259.889 73.4684C261.765 74.5254 263.92 75.2286 265.642 76.4812C267.134 77.5632 268.726 78.5619 270.277 79.5939C271.377 80.3263 272.286 81.2751 273.791 81.5414C275.975 83.002 278.605 84.0549 280.068 86.173C280.906 87.3881 282.152 88.3785 283.711 89.0651C285.007 89.6352 285.987 90.4633 286.866 91.3871C287.742 92.3068 288.738 93.1141 289.892 93.834C291.476 94.8286 292.86 95.9937 294.136 97.2629C295.211 98.3324 296.537 99.2438 297.766 100.213C298.683 100.933 299.221 101.949 300.442 102.436C300.98 103.38 301.768 104.179 302.572 104.999C304.085 106.539 305.64 107.987 307.67 109.148C309.171 110.005 310.371 111.199 311.68 112.265C311.863 112.414 312.013 112.689 311.98 112.885C311.884 113.446 312.222 113.734 312.797 113.942C313.493 114.195 314.052 114.649 314.168 115.202C314.552 117 316.361 118.107 317.361 119.597C318.674 120.259 318.903 121.465 319.591 122.435C319.283 124.063 319.32 125.417 319.704 126.496C319.358 127.104 319.124 127.803 318.62 128.344C317.432 129.605 317.011 130.966 317.061 132.534C317.132 134.715 316.919 136.9 316.932 139.084C316.94 141.39 316.894 143.674 316.077 145.913C315.756 146.791 315.698 147.723 315.498 148.631C315.348 149.309 315.277 150.012 314.981 150.649C314.006 152.729 313.66 154.885 313.643 157.082C313.631 158.593 313.539 160.162 312.655 161.456C311.813 162.692 311.434 163.99 310.884 165.276C310.329 166.574 309.575 167.827 308.862 169.079C308.429 169.841 308.416 170.648 308.379 171.443C308.32 172.666 307.757 173.686 306.565 174.448C305.507 175.122 304.786 175.941 304.444 176.982C304.373 177.202 304.231 177.41 304.135 177.627C303.648 178.742 302.514 179.516 301.768 180.481C301.105 181.343 301.126 182.483 300.359 183.344C299.946 183.811 299.429 184.214 298.975 184.659C297.554 186.054 297.545 188.155 299.063 189.387C299.963 190.115 300.997 190.752 302.047 191.343C302.276 191.472 302.835 191.234 303.243 191.164L303.189 191.143C303.439 192.37 304.581 193.402 304.356 194.747C304.31 195.017 304.635 195.404 304.931 195.612C305.465 195.982 306.082 196.286 306.703 196.565C308.003 197.148 308.295 198.396 309.45 199.103C310.459 199.719 311.28 200.535 312.184 201.263C313.009 203.103 314.914 204.442 315.831 206.244C316.594 207.751 317.895 208.945 319.495 210.077C319.558 211.821 319.737 213.622 320.329 215.391C320.692 216.469 320.308 217.413 318.983 217.992L319.049 218.088C318.695 218.083 318.345 218.079 317.991 218.075L318.053 218.013C317.278 218.624 318.278 219.394 317.861 219.931C317.39 220.543 317.082 221.15 316.994 221.837C316.953 222.17 317.015 222.528 317.124 222.856C317.269 223.31 317.411 223.768 317.124 224.192C316.415 225.249 316.836 226.219 317.499 227.126C318.512 228.507 319.691 229.756 321.275 230.813C323.718 232.444 325.352 234.633 326.89 236.834C327.332 237.467 327.127 238.158 326.948 238.836C326.81 239.352 327.298 239.672 327.736 239.96C327.944 240.097 328.244 240.18 328.519 240.218C329.432 240.33 330.041 240.75 330.637 241.291C331.646 242.211 332.121 243.23 331.942 244.437C331.804 245.344 331.733 246.239 331.837 247.154C331.892 247.637 330.741 248.016 331.562 248.636C331.612 248.673 331.546 248.906 331.458 248.952C330.341 249.497 329.457 250.126 328.97 251.191C328.29 252.672 326.648 253.546 324.86 254.017C322.821 254.553 320.679 254.853 318.566 255.19C317.415 255.373 316.29 255.227 315.252 254.695C314.66 254.391 313.889 254.287 313.36 253.942C312.797 253.571 312.238 253.267 311.571 253.034C310.867 252.785 310.204 252.693 309.516 252.985C308.662 253.347 307.933 253.209 307.099 252.856C306.424 252.568 305.719 252.96 305.098 253.259L305.023 253.33C303.919 253.892 302.726 254.266 301.463 254.549C299.8 254.924 298.183 255.419 296.528 255.823C295.132 256.164 293.865 256.692 292.673 257.354C291.977 257.741 291.447 258.315 290.505 258.428C289.238 258.582 288.204 259.389 286.82 259.272C286.224 259.222 285.695 259.414 285.245 259.73C284.749 260.08 284.182 259.98 283.607 259.921C283.186 259.88 282.502 259.747 282.373 259.896C281.431 260.974 279.789 260.779 278.551 261.307C277.167 261.894 275.641 262.298 274.003 262.264C273.582 262.256 273.144 262.335 272.732 262.427C268.843 263.284 264.958 264.145 261.077 265.023C258.589 265.585 256.138 266.238 253.554 266.521C253.033 266.58 252.562 266.95 252.07 267.179L252.212 267.096C251.641 267.054 251.032 266.896 250.503 266.996C248.118 267.437 245.697 267.803 243.467 268.652C243.112 268.785 242.704 269.106 242.654 269.38C242.608 269.613 243.037 269.909 243.333 270.262C242.929 270.358 242.566 270.5 242.195 270.529C240.728 270.641 239.403 271.078 238.106 271.59C236.781 272.11 235.655 272.805 235.022 273.908C234.776 274.336 234.492 274.698 233.863 274.836C232.55 275.127 231.658 275.893 230.745 276.629C229.932 277.287 229.12 277.948 227.894 278.102L227.936 278.177C227.569 278.177 227.206 278.186 226.84 278.186L226.877 278.111L226.898 278.144ZM121.963 59.1659C122.517 59.1492 122.746 58.8579 122.871 58.4792C123.167 58.2379 123.463 57.9965 123.759 57.751C124.505 57.6095 124.959 57.2142 125.21 56.6607C125.243 56.5858 125.16 56.4485 125.072 56.3861C125.014 56.3403 124.818 56.332 124.759 56.3695C124.218 56.7523 123.805 57.1976 123.847 57.8176C123.563 58.0673 123.276 58.3211 122.992 58.5708C122.475 58.6124 122.113 58.7872 122.054 59.2408C121.929 59.2699 121.792 59.2782 121.687 59.3282C121.629 59.3573 121.633 59.4572 121.608 59.5279C121.725 59.4072 121.842 59.2824 121.958 59.1617L121.963 59.1659ZM44.7876 148.934C45.0836 148.697 45.3837 148.46 45.6796 148.227L45.8422 148.173L45.7672 148.31C45.4254 148.535 45.0836 148.76 44.7418 148.984C44.8126 149.28 44.7293 149.301 44.4917 149.047C44.5917 149.009 44.6876 148.976 44.7876 148.938V148.934ZM291.21 256.026C291.439 255.977 291.668 255.931 291.893 255.881C291.839 255.818 291.781 255.756 291.726 255.694C291.589 255.835 291.451 255.976 291.314 256.118C291.072 256.18 290.826 256.243 290.58 256.305C290.63 256.359 290.676 256.418 290.726 256.472C290.884 256.322 291.047 256.172 291.205 256.026H291.21ZM56.0752 162.246C55.7668 162.326 55.4583 162.409 55.1499 162.488C55.2416 162.509 55.3708 162.575 55.4166 162.546C55.6125 162.43 55.7793 162.288 55.9585 162.155L56.2086 162.034L56.071 162.242L56.0752 162.246ZM69.0801 165.646C68.8508 165.725 68.5382 165.754 68.4048 165.896C68.1339 166.183 68.2423 166.524 68.5924 166.682C68.6925 166.728 68.9175 166.732 68.9592 166.682C69.1051 166.524 69.276 166.329 69.2802 166.15C69.2802 165.958 69.0968 165.767 68.9926 165.576L69.1968 165.517L69.0801 165.646ZM306.807 122.71C306.92 123.005 306.982 123.325 307.157 123.596C307.311 123.833 307.582 123.812 307.728 123.579C307.774 123.509 307.724 123.338 307.645 123.292C307.341 123.113 307.011 122.963 306.686 122.801C306.865 122.497 307.082 122.202 307.211 121.886C307.412 121.403 307.161 120.999 306.595 120.795C306.078 120.612 305.311 120.795 305.144 121.145C304.969 121.511 305.177 122.094 305.648 122.327C305.999 122.501 306.419 122.585 306.811 122.71H306.807ZM123.838 78.1083C122.05 76.9806 121.346 76.9473 119.883 77.9294C119.791 77.9918 119.753 78.1333 119.758 78.2373C119.758 78.3122 119.858 78.4246 119.949 78.4537C121.35 78.9073 122.65 78.8032 123.826 78.0084L123.897 77.8628L123.838 78.1041V78.1083ZM130.682 263.059C130.541 262.743 130.441 262.685 130.437 262.888C130.437 262.913 130.67 262.938 130.799 262.963C130.332 263.201 129.89 263.475 129.394 263.667C128.761 263.912 128.069 264.058 127.431 264.303C127.21 264.387 127.052 264.624 126.939 264.815C126.848 264.969 127.711 265.194 128.069 265.077C129.207 264.707 130.341 264.328 131.583 263.916C131.208 263.558 130.945 263.309 130.682 263.055V263.059ZM108.199 262.456C107.828 262.102 107.495 261.723 107.082 261.407C106.653 261.082 106.086 260.883 105.502 261.082C104.76 261.336 103.818 261.349 103.401 262.056C103.651 262.335 103.889 262.606 104.139 262.872C105.223 264.033 106.465 264.054 107.595 262.93C107.774 262.751 107.924 262.556 108.091 262.364L108.262 262.194L108.207 262.456H108.199ZM305.853 144.153C306.186 144.149 306.52 144.145 306.853 144.14C307.02 143.974 307.357 143.774 307.32 143.641C307.041 142.642 306.786 141.656 307.157 140.632C307.174 140.583 306.97 140.483 306.853 140.395C305.848 140.512 304.931 140.832 304.294 141.494C304.064 141.731 303.873 142.293 304.031 142.418C304.706 142.959 304.635 143.995 305.853 144.153ZM123.73 66.7728C124.543 66.7437 124.976 67.1598 125.468 67.6009C126.081 68.1502 127.077 68.1918 127.769 67.7632C128.423 67.3554 129.024 66.8852 129.636 66.4524C129.52 66.211 129.382 66.003 129.324 65.7866C129.04 64.7088 127.998 64.638 127.052 65.1873C126.018 65.7907 125.026 66.4357 123.872 66.8935C123.446 66.8935 123.021 66.8727 122.604 66.8976C122.146 66.9268 121.871 67.1182 121.846 67.5218C121.833 67.7341 121.733 67.9421 121.667 68.146C121.479 68.712 121.683 68.9201 122.484 68.8993C122.754 68.8909 123.025 68.7952 123.401 68.7162C123.509 68.0919 123.621 67.4345 123.734 66.777L123.73 66.7728ZM52.799 173.99C53.3242 174.156 53.8327 174.398 54.3746 174.464C54.7247 174.506 55.3624 174.368 55.4583 174.181C55.8668 173.361 56.1294 172.492 56.4253 171.639C56.4462 171.58 56.2669 171.401 56.1878 171.406C54.1828 171.493 52.4072 172.125 50.719 172.937C50.619 172.983 50.5106 173.157 50.5481 173.224C50.644 173.399 50.7732 173.599 50.9649 173.69C51.1942 173.803 51.5027 173.815 51.7736 173.869C51.3359 174.14 50.8691 174.385 50.4689 174.689C50.1772 174.909 49.9521 175.197 49.7312 175.471C49.5186 175.729 49.6436 176.27 49.9479 176.366C50.1813 176.441 50.5106 176.524 50.7065 176.453C51.3318 176.22 51.9278 175.929 52.5155 175.634C53.37 175.209 53.4159 175.005 52.8031 173.99H52.799ZM100.267 88.1621C99.7458 88.3327 99.2415 88.5533 98.7038 88.6615C98.0202 88.7988 97.3032 88.8321 96.6071 88.9361C96.5071 88.9528 96.3987 89.0818 96.3612 89.1775C96.3362 89.244 96.4029 89.3939 96.4654 89.4105C98.8413 89.9848 101.234 89.8266 103.622 89.4646C104.002 89.4063 104.564 88.728 104.431 88.3702C104.323 88.0747 104.081 87.6835 103.772 87.5878C102.455 87.1759 101.092 86.8554 99.7416 86.5142C99.6541 86.4934 99.5124 86.6141 99.3248 86.7056C99.6124 87.2008 99.9042 87.7044 100.192 88.2079L100.263 88.1621H100.267ZM136.689 59.9108C137.006 59.8691 137.039 59.9274 136.789 60.0939C136.731 60.0314 136.672 59.969 136.618 59.9024C136.351 59.1492 137.485 58.704 137.31 58.009C137.152 57.3723 137.31 56.9312 137.96 56.5276C138.273 56.3362 138.46 55.9908 138.635 55.6912C139.411 54.3595 138.706 53.0861 138.331 51.8045C138.314 51.7545 138.077 51.7129 137.952 51.7254C137.823 51.7379 137.614 51.8086 137.593 51.8794C137.477 52.3163 137.402 52.7616 137.302 53.2651C136.785 53.573 136.21 53.8935 135.664 54.243C135.218 54.5301 134.867 54.9504 134.371 55.1335C133.563 55.4331 134.526 56.2571 133.609 56.4901C133.013 56.6441 132.767 57.0519 132.767 57.5596C132.767 58.009 132.887 58.5375 132.642 58.8912C132.166 59.5695 132.7 59.9357 133.063 60.4018C133.546 61.0218 134.221 61.1175 134.876 60.8054C135.484 60.5141 136.085 60.2104 136.685 59.9108H136.689ZM76.0952 83.3474C75.916 83.6554 75.791 83.9966 75.5492 84.2712C74.6489 85.2866 73.7068 86.2812 72.7898 87.2841C72.448 87.6586 72.819 88.1954 73.4609 88.2828C74.5155 88.4243 78.0043 88.3452 78.9588 88.0914C79.484 87.9499 80.0092 87.7418 80.4511 87.4796C81.0179 87.1384 81.4931 86.7056 82.0183 86.3228C82.4351 86.0148 83.1562 85.7693 83.2396 85.4198C83.4355 84.5833 84.24 84.1131 84.6985 83.4515C84.8819 83.1893 84.6568 82.7815 84.2942 82.5817C83.3021 82.0366 82.2142 81.8077 81.0429 82.0283C79.93 82.2405 78.8421 82.5276 77.7459 82.7815C77.9168 82.1739 78.4211 81.7661 79.1172 81.5664C81.5473 80.8714 83.8065 79.9018 86.0823 78.9406C86.9077 78.591 87.4829 78.1832 87.7871 77.5049C88.2457 76.4854 89.1543 75.753 90.3631 75.3576C91.5469 74.9706 92.7265 74.5046 94.077 74.5254C94.4855 74.5295 94.9273 74.413 95.2983 74.2632C95.5026 74.18 95.6943 73.9053 95.686 73.7264C95.6776 73.5599 95.4109 73.2728 95.2316 73.2562C93.6644 73.1313 92.0888 73.0439 90.5132 72.9815C90.0963 72.9649 89.617 73.0148 89.2544 73.1646C87.5829 73.8596 85.7489 74.1717 84.0024 74.6877C82.5268 75.1205 81.1722 75.7946 79.5632 75.9652C77.9835 76.1317 76.7497 77.0763 75.1282 77.2303C74.0778 77.3301 73.3651 77.9377 72.8607 78.6826C72.2521 79.5897 71.5144 80.4636 71.3768 81.5081C71.2934 82.1282 70.8641 82.5193 70.4056 82.9479C70.2222 83.1186 70.3889 83.3807 70.7307 83.4348C71.7144 83.5846 72.7398 83.6054 73.6943 83.8343C74.6864 84.0715 75.3366 83.6013 76.1036 83.3474H76.0952ZM98.5037 84.8996C100.15 84.9953 101.588 84.4211 103.043 83.9425C103.297 83.8593 103.155 83.5597 102.876 83.4015C102.689 83.2975 102.555 83.1352 102.388 82.9895C103.364 82.6733 104.456 83.2101 105.352 82.665C106.082 82.2239 106.873 82.0824 107.786 82.1365C108.349 82.1698 108.933 82.0699 109.491 81.9742C110.812 81.7453 111.65 80.7341 111.413 79.6313C111.292 79.0696 111.1 78.5119 110.858 77.9751C110.65 77.5174 110.162 77.2178 109.55 77.2136C106.528 77.2094 103.506 77.1845 100.488 77.2719C99.354 77.3052 98.2202 77.584 97.1115 77.817C96.5738 77.9294 96.0111 78.1208 95.5859 78.3996C93.1142 79.9975 91.0676 81.9284 88.9793 83.826C88.8 83.9883 88.7667 84.2463 88.6625 84.4627C88.4624 84.8788 88.8626 85.4489 89.4169 85.5113C90.8341 85.6736 92.2472 85.8359 93.6685 85.9774C94.0645 86.0148 94.0895 85.8317 94.0937 85.5321C94.102 85.0078 94.3396 84.8289 94.7314 84.9121C95.4192 85.0577 96.0903 85.2658 96.7864 85.3823C97.5367 85.5072 98.2077 85.3657 98.6454 84.7997L98.5037 84.9038V84.8996ZM123.897 29.6037L123.997 29.6828C124.092 29.4789 124.109 29.1668 124.288 29.0877C126.539 28.0848 128.352 26.5576 130.783 25.7545C132.258 25.2676 133.354 24.3146 134.434 23.3783C135.067 22.829 135.359 22.2256 135.251 21.5057C135.167 20.9439 135.234 20.353 134.784 19.8495C133.721 19.4084 132.642 19.2794 131.499 19.6872C129.924 20.2448 128.302 20.7068 126.81 21.4225C125.335 22.1299 123.772 22.7292 122.208 23.3159C120.866 23.8153 119.808 24.556 118.941 25.484C118.515 25.9417 118.169 26.4494 117.732 26.903C117.473 27.1693 117.14 27.4107 116.781 27.5896C116.59 27.6853 116.215 27.6895 116.019 27.5979C115.631 27.4232 115.264 27.2151 114.822 27.3774C110.992 28.7465 107.57 30.6399 104.193 32.5957C103.847 32.7954 103.547 33.0535 103.272 33.3198C100.359 36.1578 97.4491 38.9875 95.0691 42.146C93.9186 43.6732 93.3142 45.2878 93.26 47.0272C93.1975 49.0871 93.2184 51.1511 93.2976 53.2152C93.3309 54.1223 93.5768 55.0253 93.7894 55.92C93.8311 56.0948 94.1354 56.2696 94.373 56.3653C95.0899 56.6483 95.9152 56.4527 96.207 55.9283C96.5446 55.3208 96.8364 54.6966 97.2157 53.9475C97.4741 55.1044 97.6992 56.1031 97.9118 57.0561C98.6913 57.3058 99.304 57.4888 99.5541 58.1547C99.7833 58.7581 100.05 58.7581 100.817 58.4127C101.767 57.9882 101.772 57.9799 101.201 57.0852L101.288 57.1559C101.867 56.3445 103.414 55.8659 102.668 54.6009C102.905 54.2056 103.014 53.6063 103.401 53.4523C105.094 52.7782 106.14 51.5714 107.461 50.5935C107.645 50.4562 107.957 50.4271 108.211 50.348L108.12 50.2856C108.783 50.8806 109.437 51.4882 110.116 52.0749C110.721 52.5993 111.45 52.9363 112.384 52.9363C112.817 52.9363 113.251 52.928 113.68 52.9655C116.177 53.1777 118.178 52.5036 119.712 50.9098C120.779 49.8028 122.096 48.9415 123.726 48.3838C124.243 48.2091 124.709 47.9094 125.151 47.6223C125.96 47.0938 126.527 46.4238 126.539 45.5666C126.56 44.1934 126.548 42.816 126.464 41.4427C126.448 41.1514 126.106 40.8476 125.847 40.598C125.205 39.9862 125.118 39.9613 125.647 39.2747C126.122 38.6629 125.939 38.2177 125.422 37.7516L125.531 37.8348C126.077 37.169 126.568 36.5074 126.577 35.6543C126.593 34.3892 126.889 33.17 128.069 32.2129L128.14 32.3543L127.973 32.2878C129.257 31.2183 130.199 30.0073 130.457 28.3803C129.582 28.1347 128.74 27.8268 127.736 28.218C126.473 28.709 125.18 29.1543 123.901 29.6162L123.897 29.6037ZM305.536 148.847C304.823 148.934 304.398 149.018 303.964 149.034C302.372 149.097 301.322 149.821 300.446 150.786C299.821 151.477 299.821 152.234 300.651 152.933C301.793 153.89 301.951 154.877 301.18 156.034C300.438 157.149 299.963 158.326 299.75 159.6C299.484 161.189 299.017 162.758 298.6 164.331C298.187 165.9 297.72 167.465 297.299 169.034C297.174 169.5 297.595 169.924 298.196 170.032C298.925 170.161 299.584 170.032 299.742 169.691C300.292 168.509 301.022 167.357 301.318 166.133C301.626 164.86 302.155 163.786 303.202 162.767C304.427 161.568 304.569 159.991 304.615 158.51C304.64 157.773 304.852 157.186 305.286 156.587C305.715 155.992 306.011 155.318 306.536 154.785C307.72 153.583 307.695 152.23 307.47 150.849C307.42 150.536 307.124 150.229 306.865 149.971C306.511 149.613 306.078 149.305 305.536 148.855V148.847ZM131.133 41.0765C131.133 41.1889 131.133 41.3054 131.133 41.4177C131.162 42.5455 132.558 43.2654 133.871 42.8284C135.989 42.1252 137.894 41.1348 139.757 40.0861C140.765 39.516 141.332 38.7628 141.166 37.7433C141.036 36.9485 140.928 36.1537 140.745 35.3672C140.607 34.7721 140.186 34.3227 139.365 34.2186C138.969 34.1687 138.402 34.2311 138.319 33.8732C138.256 33.5944 138.548 33.2532 138.727 32.9577C138.915 32.654 138.856 32.475 138.485 32.5042C135.705 32.7372 132.746 34.4475 131.862 36.3326C131.712 36.6489 131.637 36.9942 131.591 37.3313C131.424 38.5756 131.283 39.824 131.133 41.0724V41.0765ZM295.828 169.292C295.574 169.109 295.349 168.821 295.178 168.842C294.49 168.921 293.765 169.009 293.148 169.25C292.235 169.608 291.481 170.149 291.314 171.027C290.809 173.732 289.717 176.324 288.842 178.954C288.734 179.275 288.679 179.624 288.704 179.953C288.721 180.157 288.905 180.369 289.075 180.54C289.267 180.731 290.017 180.764 290.272 180.631C290.509 180.506 290.814 180.427 290.98 180.261C291.601 179.641 292.318 179.042 292.748 178.338C293.615 176.915 294.319 175.43 295.094 173.969C294.928 172.687 295.661 171.514 295.774 170.265C295.803 169.928 295.815 169.591 295.832 169.292H295.828ZM85.6197 92.0072C85.9406 92.7313 86.2116 93.4803 86.62 94.1794C86.7743 94.4457 87.2119 94.6538 87.5746 94.7953C88.5291 95.174 89.5586 95.2239 90.4507 94.7537C91.6636 94.1211 93.0558 93.834 94.3271 93.3305C95.0899 93.0309 95.811 92.6688 96.5404 92.311C96.628 92.2693 96.6572 92.0946 96.6321 91.9947C96.6113 91.9156 96.4738 91.8033 96.3737 91.7908C93.8144 91.5203 91.2426 91.5994 88.675 91.6535C87.6829 91.6743 86.6701 91.6243 85.6197 92.003V92.0072ZM284.991 257.608C284.795 257.491 284.578 257.25 284.407 257.271C280.297 257.728 276.371 258.752 272.436 259.747C272.311 259.78 272.161 259.859 272.107 259.946C271.998 260.138 271.923 260.346 271.894 260.554C271.886 260.604 272.102 260.712 272.236 260.733C273.39 260.941 274.503 260.725 275.587 260.454C278.171 259.813 280.747 259.147 283.315 258.473C283.848 258.332 284.344 258.103 284.841 257.895C284.928 257.857 284.941 257.708 284.986 257.608H284.991ZM121.617 76.011C122.542 75.9486 123.113 75.9153 123.68 75.8695C124.463 75.8029 124.722 75.3119 124.284 74.6419C124.101 74.3589 123.676 74.1092 124.042 73.7847C124.405 73.4642 124.451 73.2478 123.984 72.9898C122.729 72.3032 121.387 72.0868 119.945 72.5321C119.724 72.6028 119.437 72.8484 119.437 73.0107C119.441 73.7639 119.666 74.5087 119.441 75.2661C119.362 75.5324 119.878 75.8861 120.27 75.9111C120.837 75.9527 121.4 75.9902 121.612 76.0068L121.617 76.011ZM202.56 203.265C202.705 204.06 202.805 204.626 202.931 205.183C202.943 205.241 203.122 205.312 203.226 205.312C203.356 205.312 203.522 205.279 203.61 205.212C203.814 205.054 204.118 204.879 204.139 204.692C204.243 203.835 205.073 203.585 205.861 203.327C206.782 203.023 207.866 203.169 208.729 202.653C209.129 202.416 209.279 201.796 208.937 201.48C208.549 201.122 208.116 200.814 207.495 200.822C205.857 200.847 204.327 201.047 203.493 202.403C203.31 202.699 202.943 202.919 202.56 203.265ZM108.312 74.0468C108.887 73.9553 109.312 73.9261 109.708 73.8221C110.154 73.7056 110.262 73.2437 109.979 73.0065C109.337 72.4738 108.562 72.2824 107.657 72.3407C106.569 72.4114 106.094 72.9191 106.173 73.9428C106.24 74.7875 106.002 75.0664 105.169 75.1246C104.323 75.1787 103.476 75.2245 102.63 75.2952C102.534 75.3036 102.459 75.4534 102.372 75.5407C102.484 75.6073 102.597 75.7322 102.714 75.7363C104.698 75.8029 106.678 75.8737 108.662 75.8986C109.066 75.9028 109.483 75.753 109.879 75.6406C109.945 75.6198 110.012 75.3909 109.958 75.3452C109.487 74.9498 108.987 74.5753 108.307 74.0468H108.312ZM41.1237 165.226C40.7736 165.143 40.3526 164.926 40.0067 164.989C38.727 165.218 37.7141 165.817 37.1056 166.749C36.943 166.999 36.9555 167.448 37.1389 167.685C37.3223 167.918 37.8475 168.147 38.1726 168.11C38.9979 168.01 39.8358 167.794 40.2818 167.144C40.6152 166.657 40.8862 166.141 41.1613 165.634C41.2071 165.546 41.1446 165.422 41.1237 165.23V165.226ZM123.263 261.84C123.496 261.927 123.767 262.119 123.934 262.073C125.535 261.623 127.114 261.137 128.769 260.641C128.561 260.2 128.382 259.797 128.182 259.397C127.981 258.998 127.206 258.769 126.76 258.981C126.156 259.272 125.501 259.547 125.03 259.946C124.363 260.517 123.847 261.199 123.259 261.836L123.263 261.84ZM277.959 255.856C279.426 255.419 280.472 254.94 281.585 254.816C283.507 254.607 284.995 253.696 286.675 253.105C286.75 253.08 286.804 252.901 286.77 252.818C286.733 252.718 286.616 252.597 286.495 252.564C285.612 252.294 284.745 252.373 284.132 252.951C283.423 253.617 282.565 253.925 281.514 253.996C280.939 254.033 280.335 254.012 279.801 254.154C279.13 254.333 278.496 254.62 277.896 254.924C277.717 255.015 277.588 255.327 277.638 255.506C277.713 255.777 278.025 255.831 277.955 255.86L277.959 255.856ZM288.154 172.467C288.025 172.354 287.946 172.234 287.829 172.2C287.708 172.167 287.5 172.18 287.412 172.242C286.666 172.771 285.795 173.241 285.241 173.882C284.603 174.618 284.311 175.529 284.474 176.462C284.495 176.57 284.953 176.74 285.145 176.699C285.545 176.607 286.083 176.47 286.245 176.22C287.016 175.009 288.017 173.861 288.158 172.467H288.154ZM139.828 47.1646C139.131 47.485 138.365 47.7846 137.673 48.1674C136.51 48.8125 135.388 49.5074 134.267 50.1982C133.963 50.3854 134.009 50.606 134.309 50.7308C134.426 50.7808 134.584 50.8265 134.701 50.8016C137.056 50.373 138.502 48.9123 140.178 47.718C140.257 47.6639 140.265 47.4891 140.219 47.4018C140.178 47.3185 140.019 47.2769 139.823 47.1604L139.828 47.1646ZM44.2874 146.338C44.1207 145.926 43.9623 145.493 43.7664 145.073C43.3246 144.103 42.1866 143.916 41.1404 144.661C40.957 144.79 40.8528 145.052 40.8403 145.26C40.8153 145.722 40.982 146.155 41.3905 146.504C41.6156 146.696 41.8448 146.666 42.1033 146.479C42.4951 146.192 42.791 146.3 43.0953 146.621C43.2287 146.758 43.583 146.874 43.7706 146.829C43.9748 146.779 44.0999 146.529 44.2874 146.342V146.338ZM315.89 244.529C315.794 244.87 315.719 245.199 315.61 245.519C315.373 246.214 315.465 246.385 316.14 246.418C316.565 246.439 316.994 246.447 317.415 246.418C317.87 246.38 318.199 246.185 318.145 245.777C318.095 245.373 318.295 245.161 318.791 245.107C319.07 245.074 319.374 245.074 319.624 244.982C319.854 244.899 320.02 244.716 320.216 244.574C320.004 244.458 319.812 244.291 319.579 244.229C318.295 243.892 317.078 244.142 315.89 244.533V244.529ZM263.028 262.759C263.166 262.772 263.307 262.805 263.441 262.793C265.292 262.63 266.867 261.865 268.534 261.303C268.601 261.282 268.618 261.095 268.593 260.995C268.568 260.899 268.447 260.741 268.376 260.741C266.525 260.783 264.8 261.182 263.232 261.969C263.02 262.077 262.907 262.327 262.791 262.526C262.766 262.568 262.945 262.68 263.032 262.759H263.028ZM138.477 258.078C138.702 257.974 139.177 257.874 139.361 257.633C139.64 257.267 139.769 256.809 139.869 256.376C140.015 255.731 139.632 255.398 138.66 255.332C138.423 255.315 138.019 255.427 137.948 255.569C137.677 256.081 137.489 256.626 137.314 257.167C137.193 257.537 137.802 258.074 138.481 258.078H138.477ZM127.144 61.6252C128.011 61.7501 128.707 61.3755 128.886 60.7513C129.015 60.3102 129.09 59.8358 128.603 59.478C128.327 59.2741 127.544 59.5612 127.223 60.0065C127.01 60.3019 126.693 60.6057 126.673 60.9178C126.656 61.1716 127.006 61.4421 127.139 61.6294L127.144 61.6252ZM291.722 251.595C292.314 251.516 292.894 251.482 293.431 251.349C293.623 251.303 293.848 251.02 293.836 250.858C293.823 250.683 293.581 250.429 293.373 250.375C292.093 250.042 290.822 250.146 289.613 250.596C289.442 250.658 289.371 250.937 289.309 251.129C289.296 251.174 289.505 251.316 289.626 251.332C290.322 251.432 291.026 251.511 291.718 251.595H291.722ZM144.175 261.27C145.688 261.711 146.789 261.162 147.914 260.725C147.968 260.704 148.001 260.542 147.956 260.5C147.876 260.417 147.743 260.342 147.618 260.321C146.263 260.1 145.451 261.012 144.175 261.27ZM52.7198 165.342C52.8615 165.342 53.0532 165.388 53.1408 165.334C53.6951 164.976 54.2495 164.618 54.7497 164.219C54.9915 164.023 54.9289 163.757 54.6705 163.653C54.4329 163.557 54.1245 163.453 53.891 163.495C52.874 163.686 52.7698 164.435 52.4947 165.068C52.4655 165.13 52.6364 165.247 52.7198 165.342ZM106.532 102.952C106.453 102.752 106.448 102.44 106.286 102.377C105.961 102.248 105.506 102.148 105.185 102.232C104.669 102.369 104.289 102.714 104.202 103.18C104.189 103.247 104.356 103.368 104.468 103.405C105.344 103.696 106.19 103.505 106.532 102.947V102.952ZM282.24 172.03C282.215 171.909 282.223 171.797 282.16 171.714C282.106 171.639 281.939 171.53 281.885 171.551C281.252 171.763 280.535 171.905 280.185 172.429C280.089 172.575 280.16 172.879 280.301 173.012C280.451 173.149 280.806 173.257 281.018 173.216C281.764 173.062 282.064 172.567 282.244 172.034L282.24 172.03ZM238.219 260.641C238.177 260.442 238.202 260.283 238.127 260.238C237.798 260.055 237.456 259.851 237.081 259.772C236.91 259.738 236.56 259.942 236.451 260.105C236.256 260.404 236.597 260.808 237.073 260.816C237.452 260.824 237.839 260.7 238.215 260.637L238.219 260.641ZM128.778 267.408C128.986 267.549 129.082 267.674 129.194 267.682C129.461 267.707 129.753 267.711 130.007 267.657C130.332 267.591 130.487 267.349 130.307 267.133C130.186 266.983 129.82 266.796 129.682 266.842C129.349 266.958 129.086 267.2 128.773 267.404L128.778 267.408ZM136.243 31.0602C136.268 31.1517 136.255 31.289 136.326 31.3182C136.551 31.418 136.889 31.597 137.031 31.5304C137.489 31.3182 137.881 31.0186 138.281 30.7356C138.327 30.7023 138.294 30.5442 138.235 30.4859C138.16 30.411 138.019 30.3403 137.902 30.3361C136.989 30.3153 136.53 30.5192 136.247 31.0602H136.243ZM212.655 228.287C212.397 228.337 212.109 228.349 211.888 228.453C211.692 228.545 211.575 228.741 211.425 228.89C211.659 228.978 211.884 229.115 212.13 229.144C212.38 229.173 212.659 229.111 212.913 229.065C213.226 229.007 213.426 228.803 213.284 228.591C213.189 228.445 212.872 228.387 212.655 228.291V228.287ZM20.1075 179.558C19.9991 179.379 19.9449 179.15 19.7699 179.029C19.5239 178.863 19.1738 178.938 19.1113 179.183C19.0696 179.337 19.2655 179.583 19.4447 179.707C19.699 179.882 19.9616 179.795 20.1075 179.562V179.558ZM140.678 52.695C141.066 52.566 141.382 52.5327 141.549 52.387C141.849 52.1332 141.637 51.7254 141.166 51.6796C140.928 51.6546 140.444 51.792 140.444 51.8544C140.444 52.129 140.582 52.4037 140.678 52.6991V52.695ZM322.659 250.022C322.534 250.047 322.396 250.055 322.288 250.105C322.205 250.142 322.155 250.226 322.092 250.292C322.33 250.355 322.567 250.438 322.809 250.467C322.901 250.479 323.084 250.392 323.105 250.325C323.172 250.117 322.997 250.013 322.659 250.026V250.022ZM121.721 257.907C121.696 257.795 121.721 257.641 121.633 257.579C121.312 257.35 120.933 257.1 120.504 257.337C120.329 257.433 120.179 257.774 120.262 257.907C120.499 258.29 121.458 258.265 121.721 257.907ZM95.7151 90.7088C95.6568 90.6464 95.6026 90.5341 95.5401 90.5341C95.2441 90.5257 94.8648 90.2428 94.6939 90.6714C94.6897 90.688 94.8898 90.7921 94.994 90.7879C95.2358 90.7837 95.4734 90.738 95.711 90.7088H95.7151ZM298.587 153.824C298.692 153.566 298.6 153.391 298.308 153.37C298.208 153.362 298.075 153.454 297.991 153.528C297.62 153.866 297.691 154.311 298.075 154.207C298.275 154.148 298.421 153.957 298.587 153.828V153.824ZM304.94 212.728C304.877 212.461 304.677 212.316 304.348 212.357C304.248 212.37 304.081 212.545 304.106 212.595C304.198 212.778 304.315 213.027 304.502 213.09C304.794 213.185 304.969 212.998 304.936 212.728H304.94ZM302.009 248.27L302.172 248.141H301.851L302.009 248.27ZM276.875 251.324C277.096 251.212 277.317 251.099 277.538 250.987C277.338 250.862 277.154 250.658 276.933 250.633C276.425 250.571 275.983 250.883 276.204 251.07C276.362 251.203 276.646 251.245 276.875 251.324ZM294.665 252.918C293.756 252.814 293.39 252.76 293.019 252.743C292.923 252.743 292.727 252.918 292.739 252.93C292.852 253.072 293.014 253.317 293.135 253.305C293.477 253.276 293.811 253.147 294.665 252.914V252.918ZM140.961 262.102C141.074 262.065 141.182 262.027 141.295 261.99C141.203 261.936 141.116 261.844 141.016 261.827C140.665 261.782 140.503 261.873 140.615 262.035C140.653 262.09 140.84 262.081 140.961 262.098V262.102ZM105.169 86.5974C105.456 86.7514 105.619 86.7098 105.594 86.4726C105.594 86.4393 105.385 86.3977 105.281 86.4019C105.24 86.4019 105.206 86.5267 105.169 86.5974ZM44.2458 155.855C44.2041 155.95 44.104 156.063 44.1332 156.142C44.2583 156.466 44.4583 156.475 44.6251 156.163C44.6667 156.088 44.6042 155.95 44.5334 155.875C44.4958 155.834 44.3458 155.859 44.2458 155.855ZM186.695 192.986C186.679 192.911 186.691 192.799 186.633 192.766C186.549 192.72 186.391 192.691 186.308 192.724C186.016 192.845 186.045 192.982 186.383 193.061C186.47 193.082 186.587 193.011 186.695 192.986ZM323.989 239.751L323.964 239.968L324.314 239.88L323.989 239.756V239.751ZM115.068 252.847C114.685 252.839 114.585 252.951 114.822 253.143C114.864 253.176 115.047 253.097 115.168 253.068C115.135 252.993 115.102 252.922 115.068 252.847ZM133.888 73.9886C133.888 73.7264 133.763 73.6557 133.546 73.8096C133.513 73.8346 133.579 73.9761 133.638 74.0427C133.654 74.0635 133.8 74.0094 133.888 73.9927V73.9886ZM135.789 262.526C135.684 262.547 135.497 262.556 135.488 262.589C135.438 262.826 135.584 262.876 135.868 262.718C135.889 262.705 135.814 262.593 135.784 262.526H135.789ZM127.189 63.0109L127.423 63.1441L127.485 62.961L127.185 63.0068L127.189 63.0109ZM143.4 36.1079C143.6 35.8956 143.546 35.775 143.233 35.7875C143.196 35.7875 143.133 35.9456 143.15 36.0205C143.158 36.0579 143.312 36.0787 143.4 36.1079ZM45.8505 154.893L46.1423 155.035L46.1715 154.794L45.8547 154.893H45.8505ZM53.9536 154.764L53.7994 154.935L54.0369 154.964L53.9536 154.764ZM19.2447 186.511L19.0821 186.699L19.3364 186.728L19.2447 186.515V186.511ZM234.334 260.695L234.501 260.504L234.242 260.475L234.334 260.691V260.695ZM95.8735 57.4972C95.7818 57.4139 95.686 57.3307 95.5943 57.2475C95.49 57.3224 95.3066 57.3931 95.3025 57.4722C95.2941 57.5513 95.4609 57.7011 95.5609 57.7052C95.6609 57.7094 95.7693 57.5762 95.8735 57.5013V57.4972Z" fill="#FEEFE7"/>
<path d="M252.091 267.208C253.058 267.191 253.896 267.516 254.733 267.849L254.663 267.774C254.467 267.924 254.3 268.169 254.071 268.211C252.037 268.585 250.077 269.235 247.948 269.243L248.06 269.314C248.306 269.076 248.494 268.756 248.806 268.623C249.515 268.327 250.273 268.111 251.028 267.899C251.557 267.749 251.97 267.52 252.228 267.121L252.087 267.204L252.091 267.208Z" fill="#FEEFE7"/>
<path d="M74.3071 71.6416C75.1199 70.7053 76.1828 69.9813 77.3541 69.3487C77.675 69.1781 78.1127 69.3321 78.3003 69.7108C78.4045 69.9188 78.442 70.1477 78.5128 70.3641L78.6629 70.2268C77.8334 70.5971 77.0039 70.9675 76.1745 71.3379C75.5534 71.6167 74.899 71.7165 74.2029 71.5626L74.3071 71.6416Z" fill="#FEEFE7"/>
<path d="M105.152 61.5005C105.002 61.6711 104.885 61.9458 104.689 61.9915C104.485 62.0373 104.189 61.8833 103.952 61.7876C103.835 61.7377 103.722 61.6337 103.672 61.538C103.572 61.334 103.389 61.0677 103.476 60.9179C103.572 60.7639 103.947 60.6558 104.206 60.6474C104.885 60.6266 105.21 60.9512 105.148 61.5005H105.152Z" fill="#FEEFE7"/>
<path d="M254.729 267.849C255.05 267.441 255.525 267.254 256.117 267.241C257.093 267.225 258.068 267.212 259.043 267.2L258.943 267.108C258.743 267.25 258.568 267.474 258.339 267.516C257.134 267.757 255.926 268.057 254.663 267.774L254.733 267.849H254.729Z" fill="#FEEFE7"/>
<path d="M309.321 254.732C309.254 255.078 308.908 255.252 308.47 255.132C308.379 255.107 308.258 254.986 308.262 254.92C308.283 254.641 308.816 254.374 309.15 254.474C309.237 254.499 309.266 254.641 309.321 254.732Z" fill="#FEEFE7"/>
<path d="M82.827 68.2334C82.2726 69.0948 81.3681 69.4652 80.176 69.4235L80.3261 69.5359C81.1097 69.0199 81.7516 68.3208 82.902 68.2833L82.8312 68.2376L82.827 68.2334Z" fill="#FEEFE7"/>
<path d="M78.6172 71.6957C78.6339 71.2046 78.6505 70.7178 78.663 70.2267L78.513 70.3641C79.1174 70.0852 79.7218 69.8106 80.322 69.5318L80.1719 69.4194C80.4095 70.5347 79.6509 71.1714 78.5005 71.6208L78.6089 71.6957H78.6172Z" fill="#FEEFE7"/>
<path d="M259.043 267.196C259.143 267.116 259.227 267.008 259.348 266.958C259.594 266.854 260.031 266.663 260.085 266.717C260.581 267.179 259.877 266.933 259.777 266.971C259.527 267.067 259.223 267.067 258.943 267.104L259.043 267.196Z" fill="#FEEFE7"/>
<path d="M247.948 269.247C247.602 269.384 247.256 269.526 246.901 269.655C246.789 269.696 246.63 269.73 246.522 269.696C246.18 269.597 246.172 269.434 246.493 269.397C247.01 269.339 247.535 269.343 248.056 269.318L247.943 269.247H247.948Z" fill="#FEEFE7"/>
<path d="M305.119 253.288C305.352 253.33 305.594 253.355 305.819 253.417C305.861 253.43 305.89 253.63 305.857 253.646C305.432 253.85 305.186 253.688 305.048 253.359L305.123 253.288H305.119Z" fill="#FEEFE7"/>
<path d="M299.934 257.034L299.938 257.25L299.575 257.15L299.934 257.034Z" fill="#FEEFE7"/>
<path d="M148.473 263.463C148.523 263.534 148.635 263.629 148.61 263.675C148.477 263.929 148.339 263.916 148.281 263.638C148.273 263.588 148.406 263.521 148.473 263.463Z" fill="#FEEFE7"/>
<path d="M145.442 264.445C145.584 264.283 145.705 264.104 145.876 263.966C145.947 263.908 146.155 263.883 146.238 263.925C146.576 264.091 146.526 264.241 146.118 264.299C145.863 264.337 145.605 264.337 145.346 264.353L145.442 264.445Z" fill="#FEEFE7"/>
<path d="M303.264 191.197C303.343 191.16 303.423 191.126 303.502 191.089C303.331 190.902 303.235 190.931 303.214 191.176L303.268 191.197H303.264Z" fill="#FEEFE7"/>
<path d="M319.003 218.029C318.662 218.326 318.353 218.333 318.078 218.05L318.016 218.113C318.366 218.113 318.72 218.121 319.074 218.125L319.008 218.029H319.003Z" fill="#FEEFE7"/>
<path d="M170.493 261.644C170.585 261.665 170.681 261.682 170.773 261.703C170.714 261.657 170.656 261.607 170.598 261.561L170.493 261.644Z" fill="#FEEFE7"/>
<path d="M154.833 262.285L155.071 262.393L154.908 262.244L154.833 262.285Z" fill="#FEEFE7"/>
<path d="M227.911 278.136C227.573 278.136 227.236 278.144 226.894 278.144L226.856 278.219C227.223 278.219 227.586 278.211 227.952 278.211L227.911 278.136Z" fill="#FEEFE7"/>
<path d="M82.8978 68.2792L83.0645 68.1211L82.8269 68.2335L82.8978 68.2792Z" fill="#FEEFE7"/>
<path d="M74.2029 71.5667L74.1487 71.7955L74.3071 71.6416L74.2029 71.5667Z" fill="#FEEFE7"/>
<path d="M53.391 83.3975C53.7245 83.3975 54.0538 83.4059 54.3872 83.41L54.4206 83.3767C54.0663 83.3767 53.712 83.3684 53.3577 83.3684L53.391 83.4017V83.3975Z" fill="#FEEFE7"/>
<path d="M113.518 35.1133C113.785 34.7305 113.935 34.2062 114.339 33.9981C115.368 33.4613 115.881 32.7497 116.044 31.8176C116.115 31.4056 116.244 30.9978 116.331 30.6357C116.727 30.7856 117.244 31.0852 117.361 31.0061C118.295 30.3777 119.241 30.8729 120.174 30.9104L120.07 30.8272C119.999 31.0394 120.008 31.3016 119.845 31.4555C119.207 32.0589 118.486 32.6041 117.849 33.2075C116.681 34.3102 115.198 34.897 113.414 35.0343L113.518 35.1133Z" fill="#FEEFE7"/>
<path d="M111.763 46.8068C111.696 45.7956 112.292 45.0923 113.376 44.6179C113.497 44.5638 113.647 44.5514 113.78 44.5181C113.789 44.7178 113.91 45.0008 113.789 45.1048C113.113 45.6749 112.38 46.1992 111.663 46.7361L111.759 46.811L111.763 46.8068Z" fill="#FEEFE7"/>
<path d="M120.175 30.9104C120.771 30.6025 121.371 30.3029 121.959 29.9866C122.588 29.6537 123.272 29.5871 123.997 29.6787L123.897 29.5996C122.826 30.4111 121.583 30.8896 120.07 30.823L120.175 30.9063V30.9104Z" fill="#FEEFE7"/>
<path d="M113.409 35.0344C112.767 35.4298 112.134 35.8334 111.479 36.2163C111.392 36.2662 111.188 36.2662 111.092 36.2163C110.783 36.0623 110.821 35.875 111.196 35.7627C111.963 35.5338 112.742 35.3216 113.518 35.1052L113.413 35.0261L113.409 35.0344Z" fill="#FEEFE7"/>
<path d="M115.794 42.5165C116.219 42.0546 116.765 41.7217 117.473 41.5802C117.586 41.5594 117.757 41.5636 117.836 41.6177C118.082 41.78 118.015 41.9547 117.715 42.1337C117.119 42.4915 116.486 42.6372 115.764 42.4166L115.794 42.5165Z" fill="#FEEFE7"/>
<path d="M113.718 52.2457C113.484 52.1624 113.255 52.075 113.022 51.9918C113.143 51.9377 113.255 51.8628 113.384 51.8378C113.514 51.8129 113.676 51.8129 113.793 51.8545C113.905 51.8919 113.976 52.0001 114.068 52.075C113.951 52.1333 113.835 52.1874 113.718 52.2457Z" fill="#FEEFE7"/>
<path d="M110.658 47.5559C110.446 48.3466 109.975 48.8667 108.824 48.6961L108.941 48.7918C109.383 48.2509 109.762 47.6475 110.746 47.6433L110.658 47.5559Z" fill="#FEEFE7"/>
<path d="M108.207 50.3315C107.928 49.6615 108.549 49.262 108.941 48.7918L108.824 48.696C108.866 49.2994 109.07 49.9486 108.12 50.269L108.212 50.3315H108.207Z" fill="#FEEFE7"/>
<path d="M125.422 37.7393C125.389 37.8433 125.339 38.0389 125.331 38.0389C125.035 38.0014 125.105 37.9224 125.531 37.8225L125.422 37.7393Z" fill="#FEEFE7"/>
<path d="M115.764 42.4165L115.781 42.662L115.794 42.5164L115.764 42.4165Z" fill="#FEEFE7"/>
<path d="M110.746 47.6433C111.088 47.3645 111.425 47.0856 111.767 46.8068L111.671 46.7319C111.334 47.0066 111 47.2812 110.663 47.5559L110.75 47.6433H110.746Z" fill="#FEEFE7"/>
<path d="M101.196 57.0728L101.117 57.2101L101.288 57.1435L101.196 57.0728Z" fill="#FEEFE7"/>
<path d="M98.6746 84.1422C98.808 83.9716 98.9205 83.7885 99.0872 83.6428C99.1539 83.5846 99.3748 83.5721 99.4665 83.6179C99.825 83.7926 99.7792 83.9549 99.354 84.0174C99.0956 84.0548 98.8246 84.0465 98.5579 84.059L98.6704 84.1464L98.6746 84.1422Z" fill="#FEEFE7"/>
<path d="M98.6455 84.7956C98.4162 84.5959 97.7826 84.7665 97.891 84.3171C97.9119 84.2214 98.4037 84.1964 98.6788 84.1423L98.5663 84.0549C98.5454 84.3337 98.5246 84.6167 98.5079 84.8955L98.6496 84.7915L98.6455 84.7956Z" fill="#FEEFE7"/>
<path d="M77.8459 82.6816C77.3082 83.1019 76.6996 83.4099 75.9243 83.4557C76.287 82.7607 77.0873 82.7524 77.8459 82.6816Z" fill="#FEEFE7"/>
<path d="M302.872 150.616L302.793 150.349L303.043 150.387L302.872 150.616Z" fill="#FEEFE7"/>
<path d="M100.196 88.2079L100.45 88.3036L100.267 88.1621L100.196 88.2079Z" fill="#FEEFE7"/>
<path d="M52.3906 173.807L52.003 173.794L51.6445 173.911C51.9238 173.965 52.1739 173.927 52.3906 173.807Z" fill="#FEEFE7"/>
<path d="M306.899 144.207C306.54 144.207 306.178 144.215 305.819 144.215C306.178 144.011 306.536 144.045 306.899 144.207Z" fill="#FEEFE7"/>
</g>
<defs>
<clipPath id="clip0_320_3296">
<rect width="332" height="280" fill="white"/>
</clipPath>
</defs>
</svg>
