<svg width="329" height="278" viewBox="0 0 329 278" fill="none" xmlns="http://www.w3.org/2000/svg">
<path d="M224.376 275.827C223.519 275.683 222.695 275.641 221.924 276.091C221.24 276.491 220.518 276.859 219.801 277.218C218.577 277.828 217.418 277.87 216.314 276.999C216.025 276.772 215.53 276.726 215.188 276.533C213.453 275.542 211.507 275.385 209.475 275.563C208.923 275.612 208.379 275.711 207.933 275.777C207.097 275.187 206.577 274.486 205.37 274.618C204.685 274.692 203.947 274.573 203.255 274.461C202.398 274.321 201.602 274.007 201.235 273.326C200.811 272.542 200.031 272.076 199.17 271.659C197.834 271.007 196.524 270.339 195.468 269.394C194.788 268.787 193.881 268.449 192.958 268.131C191.388 267.595 189.833 267.029 188.279 266.468C187.492 266.184 186.903 265.754 186.359 265.181C184.903 263.65 183.349 262.173 181.618 260.827C180.287 259.792 178.84 258.876 177.072 258.335C175.666 257.902 174.297 257.856 172.941 258.438C172.566 258.599 172.162 258.735 171.816 258.929C171.161 259.297 170.472 259.152 169.763 259.123C169.388 259.111 168.996 259.346 168.609 259.466L168.712 259.383C167.723 259.408 166.738 259.433 165.872 259.907C165.526 260.097 165.159 260.275 164.784 260.431C162.315 261.459 159.92 261.422 157.62 260.105C157.282 259.911 156.968 259.684 156.643 259.474L156.746 259.552C155.389 259.123 154.153 259.181 153.122 260.101L153.192 260.06C152.343 260.089 151.49 260.089 150.649 260.151C150.064 260.196 149.532 260.18 149.021 259.92C148.114 259.462 147.195 259.474 146.177 259.759C144.305 260.287 142.384 260.704 140.501 261.203C140.29 261.257 140.072 261.521 140.043 261.706C140.022 261.847 140.257 262.074 140.451 262.156C140.686 262.259 140.999 262.284 141.276 262.284C142.129 262.284 142.982 262.255 143.835 262.239L143.741 262.148C143.085 262.358 142.446 262.635 141.766 262.767C139.656 263.18 138.069 264.393 136.106 265.045C135.014 265.408 134.548 266.291 134.375 267.273C134.268 267.871 133.485 268.284 132.821 268.243C131.556 268.164 130.294 268.04 129.008 267.933C128.423 268.424 127.833 268.915 127.244 269.41C126.073 270.384 125.171 270.595 123.88 270.021C122.504 269.41 121.172 268.771 119.577 268.564C119.21 268.519 118.897 268.189 118.571 267.979C117.969 267.595 117.256 267.434 116.568 267.653C114.416 268.338 112.38 267.562 110.306 267.372C109.445 267.294 108.736 266.749 108.386 266.105C107.784 264.995 106.63 264.298 105.467 263.704C102.949 262.424 100.463 261.079 97.6393 260.225C96.8397 259.982 96.0853 259.647 95.3021 259.367C94.3623 259.028 93.7234 258.492 93.1669 257.774C91.6541 255.83 89.725 254.159 87.5485 252.665C86.2501 251.774 85.0093 250.825 83.7356 249.909C83.4182 249.682 83.1214 249.377 82.7422 249.274C80.8502 248.766 79.6383 247.611 78.7108 246.344C77.5402 244.747 75.9779 243.431 74.4939 242.052C72.3587 240.063 70.1781 238.103 67.9564 236.172C66.9011 235.256 65.9571 234.22 64.4526 233.701C63.1129 233.238 61.9505 232.603 61.4229 231.439C59.1021 229.454 57.0081 227.292 54.3206 225.588C53.4302 225.023 52.6387 224.354 51.7814 223.756C51.2496 223.385 50.7302 222.943 50.0996 222.724C48.9701 222.336 48.4466 221.569 47.717 220.867C46.6247 219.828 45.5983 218.763 44.5842 217.674C43.6568 216.675 42.4366 215.85 41.3649 214.934C40.8785 214.517 40.3756 214.104 39.9799 213.634C38.5372 211.921 36.6946 210.481 34.9839 208.955C33.5618 207.684 31.9707 206.541 30.899 205.018C30.4208 204.337 29.7118 203.697 28.9286 203.227C27.1685 202.167 26.0968 200.722 24.9508 199.278C22.7332 196.485 20.4619 193.72 18.1206 190.992C16.5047 189.107 14.4189 187.53 12.4527 185.88C11.7685 185.302 11.1543 184.712 10.6308 184.015C9.75689 182.855 8.6563 181.807 7.28365 180.949C6.62824 180.54 6.07176 179.979 5.63482 179.405C4.06844 177.363 2.50205 175.324 0.626514 173.447C0.292627 173.113 0.123622 172.634 0.0370587 172.201C-0.177289 171.136 0.544073 170.36 2.04863 169.944C2.17229 169.91 2.33305 169.935 2.46908 169.96C2.60511 169.985 2.84419 170.03 2.85243 170.08C2.95136 170.921 4.01073 170.979 4.55072 171.45C4.90522 171.759 5.04949 172.23 5.27208 172.601C5.75849 172.296 6.1913 172.003 6.65297 171.743C7.47327 171.28 7.62166 170.649 7.38258 169.935C7.20121 169.386 6.90854 168.862 6.73954 168.314C6.68183 168.124 6.76427 167.798 6.9374 167.686C8.15753 166.906 9.30346 166.061 10.4164 165.186C10.7008 164.963 11.1749 164.806 11.5788 164.786C12.6011 164.736 13.5039 164.592 13.9284 163.725C15.9565 162.318 17.7908 160.676 20.5773 160.172C20.8453 160.238 21.142 160.267 21.3811 160.374C22.4982 160.874 23.6318 160.758 24.654 160.292C26.3853 159.5 28.096 158.662 29.7324 157.75C31.8264 156.582 32.9724 154.928 33.3021 152.897C33.3722 152.468 33.5495 151.973 33.8957 151.659C34.5181 151.098 35.5816 150.888 35.4662 149.819C35.4003 149.196 35.9196 148.536 36.1175 147.88C36.1711 147.698 36.0392 147.463 35.9403 147.273C35.7836 146.968 35.4332 146.679 35.4209 146.378C35.3755 145.247 35.4168 144.112 35.458 142.977C35.4662 142.763 35.5734 142.524 35.73 142.346C36.6369 141.339 36.6328 140.217 36.4638 139.066C36.4143 138.727 36.2577 138.393 36.2535 138.055C36.2123 135.653 34.7655 133.705 33.1414 131.811C32.7333 131.337 32.284 130.912 31.6203 130.644C31.2535 130.495 30.7918 130.301 30.6475 130.033C29.8932 128.642 28.1125 127.879 27.3416 126.488C27.0737 126.001 26.3729 125.667 25.903 125.242C25.5279 124.908 25.1404 124.57 24.8601 124.186C22.8486 121.425 20.7463 118.71 18.3761 116.135C17.4033 115.079 16.921 113.94 17.0488 112.624C17.1148 111.943 17.0488 111.254 17.0736 110.573C17.0818 110.35 17.1725 110.127 17.2261 109.904C18.3844 108.576 19.79 107.445 21.7026 106.859C22.7043 106.554 23.3226 105.943 24.0563 105.423C25.2435 104.581 26.5255 103.896 28.0176 103.434C29.213 103.067 30.3507 102.572 31.5379 102.188C33.1166 101.676 34.6913 101.148 36.3195 100.756C37.383 100.5 38.5454 100.315 39.6171 100.859C39.0565 101.713 39.1802 102.184 40.1035 102.464C40.491 102.58 40.9238 102.63 41.3402 102.642C41.8802 102.658 42.5356 102.044 42.3212 101.718C41.8595 101.012 41.6452 100.253 41.3319 99.51C41.0186 98.7713 40.3962 98.1194 39.9551 97.4096C39.4152 96.539 39.2091 95.7096 39.3368 94.7811C39.4894 93.6629 39.8068 92.5322 39.7326 91.4222C39.6913 90.8074 39.7326 90.4443 40.2313 89.9532C40.8373 89.3508 41.1547 88.5626 41.707 87.6754C42.1687 87.5847 42.853 87.4609 43.5372 87.3165C44.1061 87.1968 44.5925 86.9698 44.8687 86.5324C45.252 85.9259 45.5488 85.2821 46.2866 84.853C47.0946 84.3826 47.2471 83.4129 48.2487 83.0951C49.5678 82.6784 50.9528 82.5422 52.3708 82.6412C52.511 82.6495 52.6511 82.6866 52.7913 82.7114L52.7583 82.6784C53.0606 83.0195 53.4109 83.0222 53.8094 82.6866L53.7764 82.7196C54.8111 82.373 55.9488 82.2245 56.8474 81.622C57.1648 81.4116 57.5893 81.3043 57.9686 81.1475C60.1038 80.2727 62.3874 79.5671 64.3372 78.4777C66.2828 77.3925 67.8945 75.9235 69.667 74.6319C70.3966 74.0996 71.151 73.5962 72.1856 73.4435C74.3332 73.1216 76.0562 72.1437 77.738 71.1038L77.6308 71.0295C77.7957 71.2152 77.9153 71.4463 78.1337 71.5784C78.4511 71.7682 78.8963 72.0653 79.1849 72.0034C80.5575 71.7104 81.9178 71.3638 83.2327 70.9346C85.2278 70.2868 87.2394 69.7462 89.4199 69.6843C90.7473 69.6472 91.8767 69.2552 92.9031 68.5455C93.5585 68.0916 94.4365 67.976 95.3104 68.335C95.5536 68.434 95.8586 68.4671 96.1389 68.4836C97.3961 68.5661 98.5668 69.1727 99.9106 68.8013C101.065 68.4836 101.679 67.6748 102.561 67.1177C103.015 66.833 103.583 66.5029 104.103 66.7092C105.5 67.2621 106.564 66.7298 107.689 66.214C108.344 65.9128 108.806 65.5249 108.93 64.9183C109.086 64.1343 109.449 63.3379 109.362 62.5704C109.136 60.5114 109.894 58.77 111.506 57.2061C111.667 57.0493 111.77 56.7811 111.737 56.583C111.708 56.4015 111.461 56.1085 111.296 56.1002C110.743 56.0837 110.117 56.059 109.643 56.2447C107.594 57.0369 105.591 57.8993 103.27 58.8649C101.481 58.8154 99.3541 58.8773 97.3261 59.5458C96.7449 60.0162 96.9468 61.0148 96.0194 61.1592C94.2922 61.4274 93.7687 62.3641 93.4802 63.5401C93.2906 64.3159 93.0721 65.0917 92.8495 65.9376C92.3714 65.3021 91.9427 64.7244 91.5098 64.1467C91.1883 63.7217 90.3639 64.0147 90.096 63.5236C89.927 63.2183 89.8899 62.8263 89.6178 62.6034C89.2674 62.3187 88.7481 62.1702 88.1833 61.9061C88.6903 61.3944 89.1314 60.9611 89.5519 60.5155C89.7209 60.338 89.9888 60.0987 89.9435 59.9295C89.6096 58.6503 90.5288 57.4991 90.4711 56.2447C90.3021 52.3782 90.6895 48.5077 90.2567 44.6453C90.1949 44.08 90.265 43.5065 90.2114 42.937C90.1042 41.7486 90.5247 40.6592 91.3202 39.6978C93.9212 36.5617 96.7861 33.5825 100.063 30.8673C100.962 30.1245 101.963 29.4973 103.064 28.9526C105.611 27.6941 108.175 26.4685 110.517 24.9542C111.84 24.0959 113.307 23.3572 114.808 22.7053C118.592 21.0547 121.91 18.9337 125.01 16.5693C125.204 16.4208 125.513 16.3712 125.768 16.2763C125.88 16.7715 126.152 17.1594 126.873 17.0438C127.269 16.9819 127.669 16.8251 127.986 16.6312C128.11 16.5528 128.044 16.2475 128.002 16.0535C127.99 15.9875 127.768 15.8843 127.677 15.905C127.001 16.0494 126.329 16.2186 125.661 16.3836C126.271 15.3561 126.885 14.3287 127.392 13.4745C127.054 11.9725 126.758 10.6397 126.473 9.38525C126.77 8.80755 127.339 8.76216 127.891 8.66725C128.6 8.54346 129.251 8.29175 129.651 7.78008C130.055 7.26428 130.571 6.94242 131.37 6.93829C132.289 6.93416 132.937 6.58755 133.485 5.97271C134.322 5.03602 135.426 4.36754 136.84 3.9549C137.871 3.65368 138.938 3.27405 139.664 2.49828C139.882 2.26308 140.36 2.1104 140.744 2.06501C141.589 1.9701 142.454 1.98248 143.308 1.92884C143.889 1.89583 144.388 1.74315 144.746 1.31813C145.406 0.538243 146.461 0.468094 147.434 0.666161C148.522 0.888987 149.532 1.35114 150.596 1.6565C150.934 1.7514 151.14 1.54921 151.082 1.30575C150.962 0.785827 151.206 0.439209 151.824 0.249395C152.797 -0.0435798 153.774 -0.138487 154.713 0.298911C156.061 0.930251 157.434 1.5162 158.489 2.50241C159.606 3.54226 161.07 4.26851 162.475 5.05253C163.638 5.70037 164.714 6.47613 165.703 7.28904C166.622 8.04417 168.09 8.11432 168.856 9.00974C171.243 10.1197 173.011 11.7744 174.73 13.4332C175.744 14.4112 176.828 15.2901 178.044 16.0824C178.485 16.3712 179.034 16.5693 179.401 16.9035C182.599 19.8127 186.594 22.0822 189.722 25.0449C191.099 26.3448 192.455 27.6611 194.244 28.639C194.59 28.8288 194.965 29.0764 195.139 29.3653C195.975 30.7806 197.542 31.6224 199.079 32.4023C200.782 33.2647 202.018 34.5315 203.692 35.4311C205.196 36.244 206.338 37.4819 207.628 38.5424C208.127 38.9509 208.519 39.4667 209.084 39.7886C210.856 40.7995 212.13 42.1819 213.552 43.4569C214.31 44.1378 215.007 44.8475 216.12 45.223C216.615 45.3922 217.052 45.7553 217.406 46.0978C220.127 48.7264 223.053 51.2063 226.062 53.6203C227.282 54.5982 228.387 55.6298 229.331 56.777C230.419 58.1057 231.454 59.4715 233.433 60.1028C235.275 61.382 236.722 62.9418 238.091 64.5305C239.294 65.9252 240.349 67.4066 241.38 68.8921C241.949 69.7132 242.621 70.4023 243.651 70.8769C244.138 71.0997 244.735 71.339 244.974 71.698C245.77 72.9029 247.105 73.068 248.581 73.1258C250.3 73.1959 251.99 73.2413 253.664 72.7709C254.311 72.5893 255.073 72.6265 255.782 72.6306C256.195 72.6306 256.681 72.6884 257.003 72.8699C258.857 73.918 260.989 74.6154 262.691 75.8574C264.167 76.9303 265.741 77.9206 267.275 78.944C268.363 79.6702 269.262 80.6111 270.75 80.8751C272.91 82.3235 275.511 83.3675 276.957 85.4678C277.786 86.6727 279.019 87.6548 280.56 88.3357C281.842 88.901 282.811 89.7221 283.681 90.6382C284.546 91.5501 285.531 92.3507 286.673 93.0645C288.24 94.0507 289.608 95.2061 290.869 96.4647C291.933 97.5252 293.244 98.4289 294.46 99.3903C295.367 100.104 295.898 101.111 297.106 101.594C297.638 102.53 298.417 103.323 299.213 104.136C300.709 105.662 302.246 107.098 304.254 108.25C305.738 109.1 306.925 110.284 308.219 111.34C308.401 111.489 308.549 111.761 308.516 111.955C308.421 112.512 308.755 112.797 309.324 113.003C310.012 113.255 310.565 113.705 310.68 114.254C311.059 116.036 312.848 117.134 313.838 118.611C315.136 119.267 315.363 120.464 316.043 121.425C315.738 123.04 315.775 124.383 316.154 125.453C315.812 126.055 315.581 126.748 315.082 127.285C313.908 128.535 313.491 129.884 313.541 131.44C313.611 133.602 313.401 135.769 313.413 137.935C313.421 140.221 313.376 142.486 312.568 144.706C312.251 145.577 312.193 146.501 311.995 147.401C311.847 148.074 311.777 148.771 311.484 149.402C310.519 151.465 310.177 153.603 310.161 155.782C310.148 157.28 310.058 158.835 309.184 160.119C308.351 161.344 307.976 162.632 307.432 163.907C306.884 165.194 306.138 166.436 305.433 167.678C305.004 168.433 304.992 169.234 304.955 170.022C304.897 171.235 304.34 172.246 303.161 173.001C302.114 173.67 301.401 174.483 301.063 175.514C300.993 175.733 300.853 175.939 300.758 176.154C300.276 177.26 299.155 178.027 298.417 178.984C297.762 179.839 297.782 180.969 297.024 181.823C296.616 182.286 296.104 182.686 295.655 183.127C294.25 184.51 294.241 186.594 295.742 187.815C296.632 188.537 297.654 189.168 298.693 189.754C298.92 189.882 299.472 189.647 299.876 189.577L299.823 189.556C300.07 190.774 301.199 191.797 300.977 193.13C300.931 193.398 301.253 193.782 301.546 193.988C302.073 194.355 302.683 194.657 303.297 194.933C304.584 195.511 304.872 196.749 306.014 197.45C307.011 198.061 307.824 198.87 308.718 199.592C309.534 201.416 311.418 202.744 312.325 204.531C313.079 206.025 314.365 207.209 315.948 208.331C316.01 210.06 316.187 211.847 316.773 213.601C317.131 214.67 316.752 215.606 315.441 216.18L315.507 216.275C315.157 216.271 314.81 216.266 314.46 216.262L314.522 216.2C313.755 216.807 314.744 217.57 314.332 218.103C313.866 218.709 313.561 219.312 313.475 219.993C313.434 220.323 313.495 220.678 313.603 221.004C313.747 221.453 313.887 221.907 313.603 222.328C312.902 223.376 313.318 224.338 313.974 225.237C314.975 226.607 316.142 227.845 317.708 228.893C320.124 230.511 321.74 232.681 323.261 234.864C323.698 235.491 323.496 236.176 323.318 236.849C323.182 237.361 323.665 237.678 324.097 237.963C324.304 238.099 324.6 238.182 324.872 238.219C325.775 238.33 326.377 238.747 326.966 239.284C327.964 240.195 328.434 241.206 328.257 242.403C328.121 243.303 328.051 244.19 328.154 245.098C328.207 245.576 327.069 245.952 327.882 246.567C327.931 246.604 327.865 246.835 327.778 246.88C326.674 247.421 325.8 248.044 325.318 249.1C324.646 250.569 323.022 251.436 321.253 251.902C319.238 252.434 317.119 252.731 315.029 253.066C313.891 253.247 312.778 253.103 311.752 252.575C311.167 252.273 310.404 252.17 309.88 251.828C309.324 251.461 308.772 251.159 308.112 250.928C307.415 250.681 306.76 250.59 306.08 250.879C305.235 251.238 304.514 251.102 303.689 250.751C303.021 250.466 302.325 250.854 301.711 251.151L301.636 251.221C300.544 251.778 299.365 252.15 298.116 252.43C296.471 252.802 294.872 253.293 293.236 253.693C291.855 254.031 290.602 254.555 289.423 255.211C288.734 255.595 288.211 256.165 287.279 256.276C286.026 256.429 285.004 257.229 283.635 257.114C283.046 257.064 282.522 257.254 282.077 257.568C281.587 257.914 281.026 257.815 280.457 257.757C280.041 257.716 279.365 257.584 279.237 257.733C278.305 258.801 276.681 258.607 275.457 259.132C274.089 259.713 272.58 260.114 270.96 260.081C270.544 260.072 270.111 260.151 269.703 260.242C265.857 261.092 262.015 261.946 258.177 262.816C255.716 263.373 253.293 264.021 250.737 264.302C250.222 264.36 249.756 264.727 249.27 264.954L249.41 264.871C248.845 264.83 248.243 264.673 247.72 264.772C245.362 265.21 242.967 265.573 240.762 266.415C240.411 266.547 240.007 266.864 239.958 267.137C239.912 267.368 240.337 267.661 240.63 268.012C240.23 268.106 239.871 268.247 239.504 268.276C238.053 268.387 236.743 268.82 235.461 269.328C234.15 269.844 233.037 270.533 232.41 271.626C232.167 272.051 231.887 272.41 231.264 272.546C229.966 272.835 229.084 273.595 228.181 274.325C227.377 274.977 226.573 275.633 225.362 275.786L225.403 275.86C225.04 275.86 224.681 275.868 224.319 275.868L224.356 275.794L224.376 275.827ZM120.603 58.6875C121.152 58.671 121.378 58.3821 121.502 58.0066C121.795 57.7673 122.087 57.528 122.38 57.2845C123.118 57.1442 123.567 56.7522 123.814 56.2034C123.847 56.1291 123.765 55.9929 123.678 55.931C123.621 55.8857 123.427 55.8774 123.369 55.9145C122.833 56.2942 122.425 56.7357 122.467 57.3505C122.186 57.5981 121.902 57.8498 121.622 58.0974C121.11 58.1387 120.752 58.312 120.694 58.7618C120.57 58.7906 120.434 58.7989 120.331 58.8484C120.274 58.8773 120.278 58.9763 120.253 59.0465C120.368 58.9268 120.484 58.803 120.599 58.6834L120.603 58.6875ZM44.2833 147.702C44.576 147.467 44.8728 147.232 45.1654 147.001L45.3262 146.947L45.252 147.083C44.914 147.306 44.576 147.529 44.238 147.752C44.3081 148.045 44.2256 148.065 43.9907 147.814C44.0896 147.776 44.1844 147.743 44.2833 147.706V147.702ZM287.976 253.895C288.202 253.846 288.429 253.8 288.652 253.751C288.598 253.689 288.541 253.627 288.487 253.565C288.351 253.705 288.215 253.846 288.079 253.986C287.84 254.048 287.597 254.11 287.353 254.172C287.403 254.225 287.448 254.283 287.498 254.337C287.654 254.188 287.815 254.04 287.972 253.895H287.976ZM55.4459 160.903C55.1408 160.981 54.8358 161.063 54.5308 161.142C54.6215 161.163 54.7492 161.229 54.7946 161.2C54.9883 161.084 55.1532 160.944 55.3305 160.812L55.5778 160.692L55.4418 160.898L55.4459 160.903ZM68.3067 164.274C68.08 164.352 67.7709 164.381 67.6389 164.521C67.371 164.806 67.4782 165.145 67.8244 165.301C67.9234 165.347 68.146 165.351 68.1872 165.301C68.3315 165.145 68.5005 164.951 68.5046 164.773C68.5046 164.583 68.3232 164.394 68.2202 164.204L68.4221 164.146L68.3067 164.274ZM303.401 121.698C303.512 121.991 303.574 122.308 303.747 122.577C303.899 122.812 304.167 122.791 304.312 122.56C304.357 122.49 304.307 122.321 304.229 122.275C303.928 122.098 303.603 121.949 303.281 121.788C303.458 121.487 303.673 121.194 303.8 120.881C303.998 120.402 303.751 120.002 303.19 119.799C302.679 119.618 301.921 119.799 301.756 120.146C301.583 120.509 301.789 121.087 302.255 121.318C302.601 121.491 303.017 121.574 303.405 121.698H303.401ZM122.458 77.4709C120.69 76.3526 119.993 76.3196 118.546 77.2934C118.456 77.3553 118.419 77.4956 118.423 77.5988C118.423 77.6731 118.522 77.7845 118.612 77.8134C119.997 78.2631 121.284 78.16 122.446 77.3718L122.516 77.2274L122.458 77.4667V77.4709ZM129.227 260.869C129.087 260.555 128.988 260.497 128.984 260.7C128.984 260.724 129.214 260.749 129.342 260.774C128.88 261.009 128.444 261.281 127.953 261.471C127.326 261.715 126.642 261.859 126.012 262.103C125.793 262.185 125.636 262.42 125.525 262.61C125.434 262.763 126.288 262.986 126.642 262.87C127.768 262.503 128.889 262.127 130.117 261.719C129.746 261.364 129.486 261.116 129.227 260.865V260.869ZM106.992 260.27C106.625 259.92 106.296 259.544 105.888 259.231C105.463 258.909 104.902 258.711 104.325 258.909C103.592 259.16 102.66 259.173 102.248 259.874C102.495 260.151 102.73 260.419 102.977 260.683C104.049 261.834 105.278 261.855 106.395 260.741C106.572 260.563 106.72 260.369 106.885 260.18L107.054 260.01L107.001 260.27H106.992ZM302.457 142.961C302.786 142.957 303.116 142.953 303.446 142.949C303.611 142.784 303.945 142.585 303.908 142.453C303.631 141.463 303.38 140.485 303.747 139.47C303.763 139.421 303.561 139.321 303.446 139.235C302.452 139.35 301.546 139.668 300.915 140.324C300.688 140.559 300.499 141.116 300.655 141.24C301.323 141.777 301.253 142.804 302.457 142.961ZM122.351 66.2305C123.155 66.2017 123.584 66.6143 124.07 67.0517C124.676 67.5964 125.661 67.6376 126.345 67.2126C126.993 66.8082 127.586 66.342 128.192 65.9128C128.077 65.6735 127.941 65.4672 127.883 65.2526C127.603 64.1838 126.572 64.1137 125.636 64.6584C124.614 65.2567 123.633 65.8963 122.491 66.3502C122.071 66.3502 121.65 66.3296 121.238 66.3543C120.785 66.3832 120.513 66.573 120.488 66.9733C120.476 67.1837 120.377 67.3901 120.311 67.5923C120.125 68.1534 120.327 68.3598 121.119 68.3391C121.387 68.3309 121.654 68.236 122.025 68.1576C122.133 67.5386 122.244 66.8866 122.355 66.2347L122.351 66.2305ZM52.2059 172.547C52.7253 172.712 53.2282 172.952 53.7641 173.018C54.1103 173.059 54.741 172.923 54.8358 172.737C55.2398 171.924 55.4995 171.062 55.7921 170.216C55.8127 170.158 55.6355 169.981 55.5572 169.985C53.5745 170.071 51.8185 170.699 50.149 171.503C50.0501 171.549 49.9429 171.722 49.98 171.788C50.0748 171.961 50.2026 172.159 50.3922 172.25C50.6189 172.362 50.924 172.374 51.1919 172.428C50.7591 172.696 50.2974 172.939 49.9017 173.241C49.6132 173.459 49.3906 173.744 49.1721 174.016C48.9619 174.272 49.0855 174.809 49.3864 174.903C49.6173 174.978 49.9429 175.06 50.1367 174.99C50.755 174.759 51.3444 174.47 51.9256 174.177C52.7707 173.756 52.816 173.554 52.2101 172.547H52.2059ZM99.148 87.4402C98.6328 87.6094 98.134 87.8281 97.6023 87.9354C96.9262 88.0716 96.2172 88.1046 95.5289 88.2078C95.4299 88.2243 95.3227 88.3522 95.2856 88.4471C95.2609 88.5131 95.3269 88.6617 95.3887 88.6782C97.7383 89.2476 100.104 89.0908 102.466 88.7318C102.841 88.674 103.398 88.0014 103.266 87.6466C103.159 87.3536 102.92 86.9657 102.615 86.8708C101.312 86.4623 99.9642 86.1446 98.6286 85.8062C98.5421 85.7856 98.4019 85.9052 98.2164 85.996C98.5009 86.487 98.7894 86.9863 99.0738 87.4856L99.1439 87.4402H99.148ZM135.167 59.4261C135.48 59.3848 135.513 59.4426 135.266 59.6077C135.208 59.5458 135.15 59.4839 135.097 59.4179C134.833 58.671 135.954 58.2295 135.781 57.5403C135.624 56.909 135.781 56.4716 136.424 56.0713C136.733 55.8815 136.919 55.539 137.092 55.2419C137.858 53.9215 137.162 52.6588 136.791 51.3879C136.774 51.3384 136.539 51.2971 136.416 51.3095C136.288 51.3219 136.082 51.392 136.061 51.4622C135.946 51.8954 135.872 52.337 135.773 52.8362C135.261 53.1416 134.693 53.4593 134.153 53.806C133.712 54.0907 133.365 54.5074 132.875 54.689C132.075 54.9861 133.027 55.8031 132.12 56.0342C131.531 56.1869 131.288 56.5913 131.288 57.0947C131.288 57.5403 131.407 58.0644 131.164 58.4151C130.694 59.0877 131.222 59.4509 131.58 59.913C132.059 60.5279 132.726 60.6228 133.374 60.3133C133.975 60.0244 134.569 59.7232 135.163 59.4261H135.167ZM75.2442 82.666C75.0669 82.9714 74.9433 83.3097 74.7042 83.5821C73.8138 84.5889 72.8822 85.5751 71.9754 86.5696C71.6374 86.941 72.0042 87.4733 72.639 87.5599C73.6819 87.7002 77.1321 87.6218 78.076 87.3701C78.5954 87.2298 79.1148 87.0235 79.5517 86.7635C80.1123 86.4252 80.5822 85.996 81.1016 85.6164C81.5138 85.311 82.2269 85.0676 82.3094 84.721C82.5031 83.8915 83.2987 83.4253 83.7521 82.7692C83.9335 82.5092 83.7109 82.1048 83.3523 81.9067C82.3712 81.3662 81.2954 81.1392 80.1371 81.3579C79.0365 81.5684 77.9606 81.8531 76.8765 82.1048C77.0455 81.5024 77.5443 81.098 78.2327 80.8999C80.6358 80.2108 82.87 79.2493 85.1206 78.2961C85.9368 77.9495 86.5056 77.5451 86.8066 76.8725C87.26 75.8616 88.1586 75.1353 89.354 74.7433C90.5247 74.3596 91.6912 73.8974 93.0268 73.918C93.4307 73.9222 93.8677 73.8066 94.2345 73.6581C94.4365 73.5755 94.6261 73.3032 94.6179 73.1258C94.6096 72.9607 94.3458 72.676 94.1686 72.6595C92.6187 72.5357 91.0605 72.449 89.5024 72.3871C89.0902 72.3706 88.6161 72.4202 88.2575 72.5687C86.6046 73.2578 84.7909 73.5673 83.0637 74.079C81.6045 74.5081 80.2648 75.1766 78.6737 75.3458C77.1115 75.5108 75.8913 76.4475 74.2878 76.6002C73.2491 76.6992 72.5442 77.3017 72.0454 78.0403C71.4436 78.9399 70.714 79.8064 70.578 80.8421C70.4955 81.457 70.071 81.8448 69.6175 82.2699C69.4362 82.439 69.6011 82.699 69.9391 82.7527C70.9119 82.9012 71.9259 82.9218 72.8699 83.1488C73.8509 83.384 74.4939 82.9177 75.2524 82.666H75.2442ZM97.4044 84.2052C99.0326 84.3001 100.455 83.7306 101.893 83.2561C102.145 83.1735 102.005 82.8764 101.728 82.7196C101.543 82.6165 101.411 82.4556 101.246 82.3111C102.211 81.9975 103.291 82.5298 104.177 81.9893C104.898 81.5519 105.681 81.4116 106.584 81.4652C107.141 81.4982 107.718 81.3992 108.27 81.3043C109.577 81.0773 110.405 80.0746 110.17 78.9811C110.051 78.4241 109.861 77.8711 109.622 77.3388C109.416 76.8849 108.934 76.5878 108.328 76.5837C105.339 76.5796 102.351 76.5548 99.3665 76.6415C98.2453 76.6745 97.1241 76.9509 96.0276 77.182C95.4959 77.2934 94.9394 77.4832 94.5189 77.7597C92.0746 79.3442 90.0506 81.2589 87.9855 83.1405C87.8082 83.3015 87.7752 83.5573 87.6722 83.7719C87.4743 84.1845 87.8701 84.7498 88.4183 84.8117C89.8198 84.9727 91.2172 85.1336 92.6228 85.2739C93.0144 85.311 93.0391 85.1295 93.0432 84.8324C93.0515 84.3124 93.2864 84.135 93.6739 84.2175C94.3541 84.362 95.0177 84.5683 95.7061 84.6838C96.4481 84.8076 97.1117 84.6673 97.5445 84.1061L97.4044 84.2093V84.2052ZM122.516 29.3735L122.615 29.4519C122.71 29.2497 122.726 28.9403 122.903 28.8619C125.129 27.8674 126.923 26.353 129.326 25.5566C130.785 25.0738 131.869 24.1289 132.937 23.2004C133.563 22.6558 133.852 22.0574 133.745 21.3436C133.662 20.7865 133.728 20.2005 133.283 19.7012C132.232 19.2639 131.164 19.1359 130.035 19.5403C128.477 20.0933 126.873 20.5513 125.397 21.261C123.938 21.9625 122.392 22.5567 120.847 23.1385C119.519 23.6337 118.472 24.3682 117.615 25.2884C117.194 25.7423 116.852 26.2457 116.419 26.6955C116.164 26.9596 115.834 27.1989 115.48 27.3764C115.29 27.4713 114.919 27.4754 114.725 27.3846C114.342 27.2113 113.979 27.005 113.542 27.1659C109.754 28.5235 106.37 30.401 103.031 32.3404C102.689 32.5385 102.392 32.7943 102.12 33.0584C99.2387 35.8726 96.3615 38.6786 94.0078 41.8105C92.8701 43.3249 92.2724 44.9259 92.2188 46.6508C92.157 48.6933 92.1776 50.74 92.2559 52.7867C92.2889 53.6863 92.5321 54.5817 92.7423 55.4689C92.7836 55.6422 93.0845 55.8155 93.3194 55.9104C94.0284 56.191 94.8446 55.9971 95.1331 55.4771C95.467 54.8747 95.7556 54.2557 96.1307 53.513C96.3862 54.6601 96.6088 55.6505 96.8191 56.5954C97.5899 56.843 98.1958 57.0245 98.4432 57.6848C98.6699 58.2831 98.9337 58.2831 99.6921 57.9406C100.632 57.5197 100.636 57.5115 100.071 56.6243L100.158 56.6944C100.731 55.8898 102.26 55.4153 101.522 54.1608C101.757 53.7688 101.864 53.1746 102.248 53.0219C103.921 52.3535 104.956 51.1568 106.263 50.1871C106.444 50.0509 106.753 50.022 107.005 49.9436L106.914 49.8817C107.569 50.4718 108.217 51.0743 108.888 51.6561C109.486 52.176 110.208 52.5103 111.131 52.5103C111.56 52.5103 111.988 52.502 112.413 52.5391C114.882 52.7496 116.861 52.0811 118.377 50.5007C119.433 49.4031 120.735 48.5489 122.347 47.996C122.858 47.8227 123.32 47.5256 123.757 47.2408C124.556 46.7168 125.117 46.0524 125.129 45.2024C125.15 43.8407 125.138 42.4749 125.055 41.1131C125.039 40.8243 124.701 40.5231 124.445 40.2755C123.81 39.6689 123.724 39.6441 124.247 38.9633C124.717 38.3567 124.536 37.9152 124.025 37.453L124.132 37.5356C124.672 36.8753 125.158 36.2192 125.167 35.3733C125.183 34.1189 125.476 32.9099 126.642 31.9608L126.712 32.1011L126.547 32.0351C127.817 30.9746 128.749 29.7738 129.004 28.1604C128.139 27.9169 127.306 27.6116 126.312 27.9994C125.063 28.4864 123.786 28.9279 122.52 29.3859L122.516 29.3735ZM302.143 147.616C301.438 147.702 301.018 147.785 300.589 147.801C299.015 147.863 297.976 148.581 297.11 149.538C296.492 150.223 296.492 150.974 297.312 151.668C298.442 152.617 298.598 153.595 297.836 154.742C297.102 155.848 296.632 157.015 296.422 158.278C296.158 159.854 295.696 161.41 295.284 162.97C294.876 164.526 294.414 166.077 293.998 167.633C293.874 168.095 294.291 168.516 294.884 168.623C295.606 168.751 296.257 168.623 296.414 168.285C296.958 167.113 297.679 165.97 297.972 164.757C298.277 163.494 298.8 162.429 299.835 161.418C301.047 160.23 301.187 158.666 301.232 157.197C301.257 156.467 301.467 155.885 301.896 155.291C302.321 154.701 302.613 154.032 303.133 153.504C304.303 152.311 304.279 150.97 304.056 149.6C304.007 149.291 303.714 148.986 303.458 148.73C303.108 148.375 302.679 148.069 302.143 147.624V147.616ZM129.672 40.75C129.672 40.8614 129.672 40.977 129.672 41.0884C129.701 42.2066 131.082 42.9205 132.38 42.4872C134.474 41.7899 136.358 40.8078 138.2 39.7679C139.198 39.2026 139.759 38.4557 139.594 37.4448C139.466 36.6566 139.359 35.8685 139.177 35.0886C139.041 34.4985 138.625 34.0529 137.813 33.9497C137.421 33.9002 136.861 33.9621 136.778 33.6072C136.717 33.3308 137.005 32.9924 137.182 32.6994C137.368 32.3982 137.31 32.2207 136.943 32.2496C134.194 32.4807 131.267 34.1767 130.393 36.0459C130.245 36.3595 130.171 36.702 130.125 37.0363C129.96 38.2701 129.82 39.508 129.672 40.7459V40.75ZM292.543 167.889C292.292 167.707 292.069 167.422 291.9 167.443C291.22 167.521 290.503 167.608 289.893 167.847C288.99 168.202 288.244 168.739 288.079 169.609C287.58 172.291 286.5 174.862 285.634 177.47C285.527 177.788 285.474 178.134 285.498 178.46C285.515 178.663 285.696 178.873 285.865 179.042C286.055 179.232 286.797 179.265 287.048 179.133C287.283 179.009 287.584 178.931 287.749 178.766C288.363 178.151 289.072 177.557 289.497 176.859C290.354 175.448 291.051 173.975 291.818 172.527C291.653 171.256 292.378 170.092 292.489 168.854C292.518 168.52 292.531 168.186 292.547 167.889H292.543ZM84.6631 91.253C84.9805 91.971 85.2484 92.7138 85.6524 93.407C85.8049 93.6711 86.2377 93.8774 86.5963 94.0177C87.5403 94.3932 88.5584 94.4427 89.4406 93.9765C90.6401 93.3493 92.0169 93.0645 93.2741 92.5652C94.0284 92.2681 94.7415 91.9091 95.4629 91.5543C95.5495 91.513 95.5783 91.3397 95.5536 91.2407C95.533 91.1623 95.3969 91.0508 95.298 91.0385C92.7671 90.7703 90.2238 90.8487 87.6846 90.9023C86.7035 90.9229 85.7018 90.8734 84.6631 91.2489V91.253ZM281.826 255.463C281.632 255.348 281.418 255.108 281.249 255.129C277.184 255.583 273.301 256.598 269.41 257.584C269.286 257.617 269.138 257.696 269.084 257.782C268.977 257.972 268.903 258.178 268.874 258.385C268.866 258.434 269.08 258.541 269.212 258.562C270.354 258.768 271.455 258.554 272.526 258.286C275.082 257.65 277.629 256.99 280.169 256.321C280.696 256.181 281.187 255.954 281.677 255.748C281.764 255.711 281.776 255.562 281.822 255.463H281.826ZM120.261 75.3912C121.176 75.3293 121.741 75.2963 122.302 75.2509C123.077 75.1848 123.332 74.6979 122.899 74.0336C122.718 73.753 122.298 73.5054 122.66 73.1835C123.019 72.8658 123.064 72.6512 122.603 72.3954C121.362 71.7145 120.035 71.5 118.608 71.9415C118.39 72.0116 118.105 72.2551 118.105 72.416C118.11 73.1629 118.332 73.9015 118.11 74.6525C118.031 74.9166 118.542 75.2674 118.93 75.2921C119.49 75.3334 120.047 75.3705 120.257 75.387L120.261 75.3912ZM200.308 201.576C200.452 202.365 200.551 202.926 200.675 203.479C200.687 203.537 200.864 203.607 200.967 203.607C201.095 203.607 201.26 203.574 201.346 203.508C201.548 203.351 201.849 203.178 201.87 202.992C201.973 202.142 202.793 201.894 203.572 201.638C204.483 201.337 205.555 201.482 206.408 200.97C206.804 200.735 206.952 200.12 206.614 199.806C206.231 199.451 205.802 199.146 205.188 199.154C203.568 199.179 202.055 199.377 201.231 200.722C201.05 201.015 200.687 201.234 200.308 201.576ZM107.104 73.4435C107.672 73.3527 108.093 73.3238 108.485 73.2207C108.926 73.1051 109.033 72.6471 108.752 72.4119C108.118 71.8837 107.351 71.6939 106.456 71.7517C105.381 71.8218 104.911 72.3252 104.989 73.3403C105.055 74.178 104.82 74.4545 103.996 74.5122C103.159 74.5659 102.322 74.6113 101.485 74.6814C101.39 74.6897 101.316 74.8382 101.23 74.9249C101.341 74.9909 101.452 75.1147 101.568 75.1188C103.53 75.1848 105.488 75.255 107.45 75.2797C107.85 75.2839 108.262 75.1353 108.653 75.0239C108.719 75.0033 108.785 74.7763 108.732 74.7309C108.266 74.3389 107.771 73.9675 107.099 73.4435H107.104ZM40.66 163.857C40.3138 163.775 39.8974 163.56 39.5553 163.622C38.2898 163.849 37.2882 164.443 36.6864 165.367C36.5256 165.615 36.538 166.061 36.7193 166.296C36.9007 166.527 37.4201 166.754 37.7416 166.717C38.5578 166.618 39.3863 166.403 39.8274 165.759C40.1571 165.277 40.4251 164.765 40.6971 164.261C40.7425 164.175 40.6806 164.051 40.66 163.861V163.857ZM121.889 259.66C122.12 259.746 122.388 259.936 122.553 259.891C124.136 259.445 125.698 258.962 127.335 258.471C127.129 258.034 126.951 257.634 126.753 257.238C126.556 256.841 125.789 256.614 125.348 256.825C124.75 257.114 124.103 257.386 123.637 257.782C122.978 258.348 122.467 259.024 121.885 259.656L121.889 259.66ZM274.872 253.726C276.323 253.293 277.357 252.818 278.458 252.694C280.358 252.488 281.83 251.584 283.491 250.998C283.565 250.974 283.619 250.796 283.586 250.714C283.549 250.615 283.433 250.495 283.314 250.462C282.44 250.194 281.582 250.272 280.976 250.846C280.276 251.506 279.427 251.811 278.388 251.881C277.819 251.919 277.221 251.898 276.694 252.038C276.03 252.216 275.403 252.5 274.81 252.802C274.633 252.892 274.505 253.202 274.554 253.379C274.629 253.648 274.938 253.701 274.868 253.73L274.872 253.726ZM284.954 171.037C284.827 170.926 284.748 170.806 284.633 170.773C284.513 170.74 284.307 170.752 284.221 170.814C283.483 171.338 282.621 171.805 282.073 172.44C281.442 173.17 281.154 174.074 281.315 174.998C281.335 175.106 281.789 175.275 281.978 175.234C282.374 175.143 282.906 175.007 283.066 174.759C283.829 173.558 284.818 172.419 284.958 171.037H284.954ZM138.271 46.7869C137.582 47.1047 136.824 47.4018 136.139 47.7814C134.989 48.421 133.881 49.1101 132.772 49.7951C132.471 49.9808 132.516 50.1995 132.813 50.3233C132.928 50.3728 133.085 50.4182 133.2 50.3934C135.529 49.9684 136.96 48.52 138.617 47.3358C138.695 47.2821 138.703 47.1088 138.658 47.0222C138.617 46.9396 138.46 46.8984 138.266 46.7828L138.271 46.7869ZM43.7887 145.127C43.6238 144.719 43.4672 144.29 43.2734 143.873C42.8365 142.911 41.7112 142.726 40.6765 143.464C40.4951 143.592 40.3921 143.852 40.3797 144.059C40.355 144.517 40.5199 144.946 40.9238 145.292C41.1464 145.482 41.3731 145.453 41.6287 145.268C42.0162 144.983 42.3089 145.09 42.6098 145.408C42.7417 145.544 43.092 145.66 43.2775 145.614C43.4795 145.565 43.6032 145.317 43.7887 145.131V145.127ZM312.383 242.494C312.288 242.832 312.214 243.158 312.106 243.476C311.871 244.165 311.962 244.334 312.63 244.367C313.05 244.388 313.475 244.396 313.891 244.367C314.341 244.33 314.666 244.136 314.613 243.732C314.563 243.332 314.761 243.121 315.251 243.067C315.528 243.034 315.829 243.034 316.076 242.944C316.303 242.861 316.467 242.68 316.661 242.539C316.451 242.424 316.261 242.259 316.031 242.197C314.761 241.863 313.557 242.11 312.383 242.498V242.494ZM260.106 260.572C260.243 260.584 260.383 260.617 260.515 260.605C262.345 260.444 263.903 259.684 265.552 259.127C265.618 259.107 265.634 258.921 265.609 258.822C265.585 258.727 265.465 258.57 265.395 258.57C263.565 258.612 261.858 259.008 260.308 259.788C260.098 259.895 259.987 260.142 259.872 260.341C259.847 260.382 260.024 260.493 260.111 260.572H260.106ZM136.935 255.929C137.158 255.826 137.628 255.727 137.809 255.488C138.085 255.125 138.213 254.671 138.312 254.242C138.456 253.602 138.077 253.272 137.116 253.206C136.881 253.19 136.482 253.301 136.412 253.441C136.144 253.949 135.958 254.489 135.785 255.026C135.665 255.393 136.267 255.925 136.939 255.929H136.935ZM125.727 61.1262C126.584 61.25 127.273 60.8786 127.45 60.2596C127.578 59.8222 127.652 59.3518 127.17 58.997C126.898 58.7948 126.123 59.0795 125.805 59.521C125.595 59.814 125.282 60.1152 125.261 60.4247C125.245 60.6764 125.591 60.9446 125.723 61.1303L125.727 61.1262ZM288.483 249.501C289.068 249.422 289.641 249.389 290.173 249.257C290.362 249.212 290.585 248.931 290.573 248.77C290.56 248.597 290.321 248.345 290.115 248.291C288.85 247.961 287.592 248.065 286.397 248.51C286.228 248.572 286.158 248.849 286.096 249.038C286.084 249.084 286.29 249.224 286.409 249.241C287.098 249.34 287.794 249.418 288.479 249.501H288.483ZM142.57 259.094C144.066 259.532 145.154 258.987 146.267 258.554C146.321 258.533 146.354 258.372 146.309 258.331C146.23 258.248 146.098 258.174 145.975 258.154C144.635 257.935 143.831 258.839 142.57 259.094ZM52.1276 163.973C52.2678 163.973 52.4574 164.018 52.5439 163.964C53.0922 163.609 53.6404 163.255 54.1351 162.858C54.3741 162.665 54.3123 162.4 54.0567 162.297C53.8218 162.202 53.5167 162.099 53.2859 162.14C52.2801 162.33 52.1771 163.073 51.905 163.7C51.8762 163.762 52.0452 163.878 52.1276 163.973ZM105.343 102.105C105.265 101.907 105.261 101.598 105.1 101.536C104.779 101.408 104.329 101.309 104.012 101.392C103.501 101.528 103.126 101.87 103.039 102.332C103.027 102.398 103.192 102.518 103.303 102.555C104.169 102.844 105.005 102.654 105.343 102.101V102.105ZM279.105 170.604C279.08 170.484 279.089 170.373 279.027 170.29C278.973 170.216 278.808 170.109 278.755 170.129C278.128 170.34 277.419 170.48 277.073 171C276.978 171.144 277.048 171.446 277.188 171.578C277.337 171.714 277.687 171.821 277.897 171.78C278.635 171.627 278.932 171.136 279.109 170.608L279.105 170.604ZM235.572 258.471C235.531 258.273 235.555 258.116 235.481 258.071C235.156 257.889 234.818 257.687 234.447 257.609C234.278 257.576 233.931 257.778 233.824 257.939C233.63 258.236 233.968 258.636 234.438 258.645C234.813 258.653 235.197 258.529 235.568 258.467L235.572 258.471ZM127.343 265.181C127.549 265.321 127.644 265.445 127.755 265.453C128.019 265.478 128.308 265.482 128.559 265.428C128.88 265.362 129.033 265.123 128.856 264.908C128.736 264.76 128.373 264.574 128.237 264.62C127.908 264.735 127.648 264.975 127.339 265.177L127.343 265.181ZM134.726 30.8178C134.75 30.9086 134.738 31.0447 134.808 31.0736C135.031 31.1726 135.364 31.3501 135.505 31.2841C135.958 31.0736 136.346 30.7765 136.741 30.4959C136.787 30.4629 136.754 30.3061 136.696 30.2483C136.622 30.1741 136.482 30.1039 136.366 30.0998C135.463 30.0791 135.01 30.2813 134.73 30.8178H134.726ZM210.291 226.389C210.036 226.438 209.751 226.45 209.533 226.554C209.339 226.644 209.224 226.838 209.075 226.987C209.306 227.074 209.529 227.21 209.772 227.239C210.019 227.267 210.295 227.206 210.547 227.16C210.856 227.102 211.054 226.9 210.914 226.69C210.819 226.545 210.506 226.488 210.291 226.393V226.389ZM19.8766 178.068C19.7694 177.891 19.7158 177.664 19.5427 177.544C19.2995 177.379 18.9532 177.454 18.8914 177.697C18.8502 177.85 19.0439 178.093 19.2212 178.217C19.4726 178.39 19.7323 178.304 19.8766 178.073V178.068ZM139.111 52.2709C139.495 52.143 139.808 52.11 139.973 51.9656C140.27 51.7139 140.06 51.3095 139.594 51.2641C139.359 51.2393 138.881 51.3755 138.881 51.4374C138.881 51.7097 139.017 51.9821 139.111 52.2751V52.2709ZM319.077 247.941C318.953 247.965 318.817 247.974 318.71 248.023C318.627 248.06 318.578 248.143 318.516 248.209C318.751 248.271 318.986 248.353 319.225 248.382C319.316 248.395 319.497 248.308 319.518 248.242C319.584 248.036 319.411 247.932 319.077 247.945V247.941ZM120.364 255.76C120.34 255.649 120.364 255.496 120.278 255.434C119.96 255.207 119.585 254.96 119.161 255.195C118.988 255.29 118.839 255.628 118.922 255.76C119.157 256.14 120.105 256.115 120.364 255.76ZM94.6467 89.9656C94.589 89.9037 94.5354 89.7923 94.4736 89.7923C94.1809 89.784 93.8058 89.5034 93.6368 89.9285C93.6327 89.945 93.8306 90.0481 93.9336 90.044C94.1727 90.0399 94.4076 89.9945 94.6426 89.9656H94.6467ZM295.272 152.551C295.375 152.295 295.284 152.122 294.996 152.101C294.897 152.093 294.765 152.183 294.682 152.258C294.316 152.592 294.386 153.034 294.765 152.93C294.963 152.873 295.107 152.683 295.272 152.555V152.551ZM301.554 210.96C301.492 210.696 301.294 210.551 300.969 210.593C300.87 210.605 300.705 210.778 300.729 210.828C300.82 211.009 300.936 211.257 301.121 211.319C301.41 211.414 301.583 211.228 301.55 210.96H301.554ZM298.656 246.204L298.817 246.076H298.499L298.656 246.204ZM273.8 249.232C274.018 249.121 274.237 249.009 274.455 248.898C274.258 248.774 274.076 248.572 273.858 248.547C273.355 248.485 272.918 248.795 273.136 248.981C273.293 249.113 273.573 249.154 273.8 249.232ZM291.393 250.813C290.494 250.71 290.132 250.656 289.765 250.639C289.67 250.639 289.476 250.813 289.489 250.825C289.6 250.965 289.761 251.209 289.88 251.196C290.218 251.168 290.548 251.04 291.393 250.809V250.813ZM139.392 259.92C139.503 259.883 139.61 259.845 139.722 259.808C139.631 259.755 139.544 259.664 139.445 259.647C139.099 259.602 138.938 259.693 139.05 259.854C139.087 259.907 139.272 259.899 139.392 259.916V259.92ZM103.996 85.8887C104.28 86.0414 104.441 86.0001 104.416 85.7649C104.416 85.7319 104.21 85.6907 104.107 85.6948C104.066 85.6948 104.033 85.8186 103.996 85.8887ZM43.7475 154.564C43.7062 154.659 43.6073 154.771 43.6362 154.849C43.7598 155.171 43.9577 155.179 44.1226 154.87C44.1638 154.795 44.1019 154.659 44.0319 154.585C43.9948 154.544 43.8464 154.569 43.7475 154.564ZM184.619 191.384C184.603 191.31 184.615 191.199 184.557 191.166C184.475 191.12 184.318 191.091 184.236 191.124C183.947 191.244 183.976 191.38 184.31 191.459C184.396 191.479 184.512 191.409 184.619 191.384ZM320.392 237.757L320.367 237.971L320.713 237.885L320.392 237.761V237.757ZM113.785 250.743C113.406 250.734 113.307 250.846 113.542 251.036C113.583 251.069 113.765 250.99 113.884 250.961C113.851 250.887 113.818 250.817 113.785 250.743ZM132.397 73.3857C132.397 73.1258 132.273 73.0556 132.059 73.2083C132.026 73.233 132.092 73.3733 132.149 73.4394C132.166 73.46 132.31 73.4064 132.397 73.3899V73.3857ZM134.276 260.341C134.173 260.361 133.988 260.369 133.979 260.402C133.93 260.638 134.074 260.687 134.355 260.53C134.375 260.518 134.301 260.407 134.272 260.341H134.276ZM125.772 62.5003L126.003 62.6323L126.065 62.4508L125.768 62.4962L125.772 62.5003ZM141.803 35.8231C142.001 35.6126 141.947 35.493 141.638 35.5054C141.601 35.5054 141.539 35.6622 141.556 35.7364C141.564 35.7736 141.717 35.7942 141.803 35.8231ZM45.3344 153.611L45.623 153.752L45.6518 153.512L45.3386 153.611H45.3344ZM53.3477 153.483L53.1952 153.652L53.4302 153.681L53.3477 153.483ZM19.0233 184.964L18.8625 185.149L19.114 185.178L19.0233 184.968V184.964ZM231.73 258.525L231.895 258.335L231.639 258.306L231.73 258.521V258.525ZM94.8034 57.0328C94.7127 56.9503 94.6179 56.8677 94.5272 56.7852C94.4241 56.8595 94.2428 56.9296 94.2386 57.008C94.2304 57.0864 94.3953 57.235 94.4942 57.2391C94.5931 57.2432 94.7003 57.1112 94.8034 57.0369V57.0328Z" fill="#FDEBE1"/>
<path d="M249.29 264.983C250.246 264.966 251.075 265.288 251.903 265.618L251.833 265.544C251.64 265.692 251.475 265.936 251.248 265.977C249.236 266.349 247.299 266.992 245.193 267L245.304 267.071C245.547 266.835 245.733 266.518 246.042 266.386C246.743 266.093 247.493 265.878 248.239 265.668C248.762 265.519 249.17 265.292 249.426 264.896L249.286 264.979L249.29 264.983Z" fill="#FDEBE1"/>
<path d="M73.4756 71.0583C74.2794 70.1299 75.3305 69.4119 76.4888 68.7847C76.8062 68.6155 77.2391 68.7682 77.4246 69.1437C77.5276 69.35 77.5647 69.5769 77.6348 69.7915L77.7832 69.6553C76.9629 70.0226 76.1426 70.3898 75.3223 70.7571C74.7081 71.0336 74.0609 71.1326 73.3726 70.9799L73.4756 71.0583Z" fill="#FDEBE1"/>
<path d="M103.979 61.0026C103.831 61.1718 103.715 61.4441 103.521 61.4895C103.319 61.5349 103.027 61.3822 102.792 61.2873C102.676 61.2378 102.565 61.1347 102.516 61.0397C102.417 60.8376 102.235 60.5735 102.322 60.4249C102.417 60.2722 102.788 60.1649 103.043 60.1567C103.715 60.1361 104.037 60.4579 103.975 61.0026H103.979Z" fill="#FDEBE1"/>
<path d="M251.899 265.618C252.217 265.214 252.687 265.028 253.272 265.016C254.236 264.999 255.201 264.987 256.166 264.975L256.067 264.884C255.869 265.024 255.696 265.247 255.469 265.288C254.278 265.527 253.082 265.825 251.833 265.544L251.903 265.618H251.899Z" fill="#FDEBE1"/>
<path d="M305.886 252.612C305.82 252.954 305.478 253.128 305.045 253.008C304.954 252.983 304.835 252.864 304.839 252.797C304.86 252.521 305.387 252.257 305.717 252.356C305.804 252.381 305.832 252.521 305.886 252.612Z" fill="#FDEBE1"/>
<path d="M81.9012 67.6792C81.3529 68.5334 80.4585 68.9006 79.2795 68.8594L79.4279 68.9708C80.2029 68.4591 80.8377 67.7659 81.9754 67.7287L81.9053 67.6833L81.9012 67.6792Z" fill="#FDEBE1"/>
<path d="M77.738 71.1124C77.7545 70.6254 77.771 70.1427 77.7833 69.6557L77.6349 69.7919C78.2326 69.5154 78.8303 69.2431 79.4239 68.9666L79.2755 68.8552C79.5105 69.9611 78.7602 70.5924 77.6226 71.0381L77.7297 71.1124H77.738Z" fill="#FDEBE1"/>
<path d="M256.166 264.97C256.265 264.892 256.347 264.785 256.467 264.735C256.71 264.632 257.143 264.442 257.196 264.496C257.687 264.954 256.99 264.71 256.891 264.747C256.644 264.842 256.343 264.842 256.067 264.879L256.166 264.97Z" fill="#FDEBE1"/>
<path d="M245.193 267.005C244.851 267.141 244.509 267.281 244.158 267.409C244.047 267.451 243.89 267.484 243.783 267.451C243.445 267.351 243.437 267.191 243.754 267.153C244.265 267.096 244.785 267.1 245.3 267.075L245.189 267.005H245.193Z" fill="#FDEBE1"/>
<path d="M301.731 251.18C301.962 251.221 302.201 251.246 302.424 251.308C302.465 251.32 302.494 251.518 302.461 251.535C302.04 251.737 301.797 251.576 301.661 251.25L301.735 251.18H301.731Z" fill="#FDEBE1"/>
<path d="M296.603 254.894L296.607 255.108L296.249 255.009L296.603 254.894Z" fill="#FDEBE1"/>
<path d="M146.82 261.269C146.869 261.339 146.98 261.434 146.956 261.48C146.824 261.731 146.688 261.719 146.63 261.443C146.622 261.393 146.754 261.327 146.82 261.269Z" fill="#FDEBE1"/>
<path d="M143.823 262.243C143.963 262.082 144.083 261.904 144.252 261.768C144.322 261.711 144.528 261.686 144.61 261.727C144.944 261.892 144.895 262.041 144.491 262.098C144.239 262.136 143.984 262.136 143.728 262.152L143.823 262.243Z" fill="#FDEBE1"/>
<path d="M299.897 189.61C299.975 189.573 300.053 189.54 300.132 189.503C299.963 189.317 299.868 189.346 299.847 189.589L299.901 189.61H299.897Z" fill="#FDEBE1"/>
<path d="M315.462 216.217C315.124 216.511 314.819 216.518 314.547 216.237L314.485 216.299C314.831 216.299 315.181 216.308 315.532 216.312L315.466 216.217H315.462Z" fill="#FDEBE1"/>
<path d="M168.596 259.466C168.687 259.486 168.782 259.503 168.873 259.524C168.815 259.478 168.757 259.429 168.699 259.383L168.596 259.466Z" fill="#FDEBE1"/>
<path d="M153.11 260.102L153.345 260.209L153.184 260.061L153.11 260.102Z" fill="#FDEBE1"/>
<path d="M225.378 275.819C225.044 275.819 224.71 275.827 224.372 275.827L224.335 275.901C224.698 275.901 225.057 275.893 225.419 275.893L225.378 275.819Z" fill="#FDEBE1"/>
<path d="M81.9712 67.7247L82.1361 67.5679L81.9011 67.6793L81.9712 67.7247Z" fill="#FDEBE1"/>
<path d="M73.3727 70.9841L73.3191 71.2111L73.4757 71.0584L73.3727 70.9841Z" fill="#FDEBE1"/>
<path d="M52.7913 82.7154C53.121 82.7154 53.4467 82.7237 53.7765 82.7278L53.8094 82.6948C53.4591 82.6948 53.1087 82.6865 52.7583 82.6865L52.7913 82.7195V82.7154Z" fill="#FDEBE1"/>
<path d="M112.252 34.8372C112.516 34.4576 112.664 33.9377 113.064 33.7313C114.082 33.199 114.589 32.4934 114.75 31.5691C114.82 31.1606 114.948 30.7562 115.034 30.3972C115.426 30.5458 115.937 30.8429 116.053 30.7645C116.976 30.1414 117.912 30.6324 118.835 30.6696L118.732 30.587C118.662 30.7975 118.67 31.0574 118.509 31.2101C117.879 31.8084 117.165 32.349 116.535 32.9473C115.381 34.0408 113.913 34.6227 112.149 34.7588L112.252 34.8372Z" fill="#FDEBE1"/>
<path d="M110.517 46.4321C110.451 45.4294 111.04 44.732 112.112 44.2616C112.231 44.208 112.38 44.1956 112.512 44.1626C112.52 44.3607 112.64 44.6413 112.52 44.7444C111.852 45.3097 111.127 45.8297 110.418 46.362L110.513 46.4362L110.517 46.4321Z" fill="#FDEBE1"/>
<path d="M118.835 30.6694C119.424 30.3641 120.018 30.067 120.599 29.7534C121.222 29.4233 121.898 29.3573 122.615 29.448L122.516 29.3696C121.457 30.1743 120.228 30.6488 118.732 30.5828L118.835 30.6653V30.6694Z" fill="#FDEBE1"/>
<path d="M112.145 34.7587C111.51 35.1508 110.883 35.551 110.236 35.9306C110.15 35.9802 109.948 35.9802 109.853 35.9306C109.548 35.778 109.585 35.5923 109.956 35.4809C110.714 35.2539 111.485 35.0435 112.252 34.8289L112.149 34.7505L112.145 34.7587Z" fill="#FDEBE1"/>
<path d="M114.503 42.178C114.923 41.72 115.463 41.3898 116.164 41.2495C116.275 41.2289 116.444 41.233 116.523 41.2867C116.766 41.4476 116.7 41.6209 116.403 41.7984C115.814 42.1532 115.187 42.2976 114.474 42.0789L114.503 42.178Z" fill="#FDEBE1"/>
<path d="M112.45 51.8256C112.219 51.7431 111.992 51.6564 111.761 51.5739C111.881 51.5202 111.992 51.446 112.12 51.4212C112.248 51.3964 112.409 51.3964 112.524 51.4377C112.635 51.4748 112.705 51.5821 112.796 51.6564C112.681 51.7142 112.565 51.7678 112.45 51.8256Z" fill="#FDEBE1"/>
<path d="M109.424 47.175C109.214 47.9591 108.748 48.4749 107.611 48.3057L107.726 48.4006C108.163 47.8642 108.538 47.2658 109.511 47.2617L109.424 47.175Z" fill="#FDEBE1"/>
<path d="M107 49.9271C106.724 49.2627 107.338 48.8666 107.726 48.4003L107.61 48.3054C107.652 48.9037 107.854 49.5475 106.914 49.8652L107.004 49.9271H107Z" fill="#FDEBE1"/>
<path d="M124.025 37.4407C123.992 37.5438 123.942 37.7378 123.934 37.7378C123.641 37.7006 123.711 37.6222 124.132 37.5232L124.025 37.4407Z" fill="#FDEBE1"/>
<path d="M114.474 42.0789L114.49 42.3223L114.503 42.1779L114.474 42.0789Z" fill="#FDEBE1"/>
<path d="M109.511 47.2616C109.849 46.9851 110.183 46.7087 110.521 46.4322L110.426 46.3579C110.092 46.6303 109.762 46.9026 109.428 47.1749L109.515 47.2616H109.511Z" fill="#FDEBE1"/>
<path d="M100.067 56.6123L99.9888 56.7485L100.158 56.6825L100.067 56.6123Z" fill="#FDEBE1"/>
<path d="M97.5734 83.4542C97.7053 83.285 97.8166 83.1035 97.9815 82.959C98.0475 82.9013 98.2659 82.8889 98.3566 82.9343C98.7111 83.1076 98.6658 83.2685 98.2453 83.3304C97.9898 83.3676 97.7218 83.3593 97.458 83.3717L97.5693 83.4583L97.5734 83.4542Z" fill="#FDEBE1"/>
<path d="M97.5445 84.1022C97.3177 83.9041 96.6912 84.0733 96.7984 83.6276C96.819 83.5327 97.3054 83.508 97.5774 83.4543L97.4661 83.3677C97.4455 83.6441 97.4249 83.9247 97.4084 84.2012L97.5486 84.098L97.5445 84.1022Z" fill="#FDEBE1"/>
<path d="M76.9755 82.0056C76.4437 82.4224 75.8419 82.7277 75.0752 82.7731C75.4338 82.084 76.2253 82.0758 76.9755 82.0056Z" fill="#FDEBE1"/>
<path d="M299.509 149.369L299.431 149.105L299.678 149.142L299.509 149.369Z" fill="#FDEBE1"/>
<path d="M99.0779 87.4856L99.3293 87.5805L99.148 87.4402L99.0779 87.4856Z" fill="#FDEBE1"/>
<path d="M51.8018 172.366L51.4185 172.353L51.064 172.469C51.3401 172.522 51.5875 172.485 51.8018 172.366Z" fill="#FDEBE1"/>
<path d="M303.491 143.015C303.137 143.015 302.778 143.023 302.424 143.023C302.778 142.821 303.133 142.854 303.491 143.015Z" fill="#FDEBE1"/>
</svg>
