<svg xmlns="http://www.w3.org/2000/svg" width="521" height="105" fill="none" viewBox="0 0 521 105">
  <path fill="#fff" d="m32.765 63.377-9.186 8.718-.003 19.224c-.002 1.087.215 1.918.644 2.497.433.576 1.17 1.026 2.21 1.34l-.001 1.681-19.021-.003v-1.682c1.072-.348 1.815-.804 2.233-1.365.417-.559.627-1.38.625-2.468l.014-60.72c0-1.048-.208-1.856-.623-2.417-.418-.558-1.159-1.014-2.23-1.367v-1.682l19.021.004v1.682c-1.072.315-1.817.762-2.233 1.338-.42.578-.625 1.391-.625 2.44l-.005 25.095 25.105-24.09c1.16-1.122 1.744-2.014 1.743-2.68 0-1.015-.864-1.716-2.59-2.103l.001-1.681 24.917.005v1.682c-1.042.244-1.786.525-2.233.84-.45.314-1.743 1.504-3.887 3.569L63.2 34.591 42.468 54.17l23.49 33.268c2.174 3.084 3.743 5.072 4.71 5.962.966.893 2.18 1.48 3.638 1.761v1.682l-23.825-.006.001-1.681c1.58-.383 2.37-1.05 2.37-1.995-.001-.49-.714-1.786-2.145-3.889l-17.942-25.9v.005Zm92.624 15.202-27.705-.007-4.104 10.083c-.565 1.4-.848 2.504-.847 3.31 0 1.541.994 2.61 2.983 3.204v1.681l-20.161-.005v-1.682c1.191-.28 2.1-.768 2.726-1.47.627-.7 1.34-2.064 2.143-4.096l22.429-55.094c.714-1.752 1.075-3.152 1.075-4.2.002-1.61-.863-2.77-2.589-3.47l.001-1.682 21.612.004-.001 1.682c-1.755.596-2.635 1.627-2.633 3.098 0 1.016.282 2.17.848 3.465l23.207 55.264c.981 2.349 1.845 3.95 2.591 4.81.742.858 1.74 1.425 2.989 1.706v1.682l-22.439-.006.001-1.681c1.971-.383 2.958-1.47 2.956-3.256.001-.737-.3-1.82-.891-3.26l-4.188-10.086-.003.006Zm-3.827-9.824-9.878-25.544-10.049 25.538 19.927.006Zm87.878-9.435c6.848 3.047 10.269 8.688 10.267 16.914-.001 6.548-1.998 11.679-5.987 15.388a18.266 18.266 0 0 1-7.035 4.017c-2.666.825-5.962 1.235-9.892 1.235l-41.665-.01.001-1.681c1.072-.348 1.815-.804 2.232-1.366.418-.558.627-1.38.626-2.467l.014-60.667c.001-1.085-.208-1.91-.623-2.47-.418-.559-1.159-1.014-2.231-1.367v-1.682l41.263.008c3.96.002 7.146.354 9.557 1.053 2.413.702 4.526 1.89 6.341 3.573 3.6 3.329 5.4 8.126 5.399 14.395-.003 7.004-2.757 12.045-8.266 15.124l-.001.003Zm-38.135-5.63 23.356.007c3.543.001 6.012-.614 7.411-1.837 1.578-1.398 2.367-3.572 2.369-6.513 0-3.01-.745-5.155-2.232-6.436-1.487-1.279-4.002-1.917-7.546-1.919l-23.356-.006-.005 16.705h.003Zm-.006 31.359 22.594.005c4.198.002 7.219-.678 9.066-2.046 2.114-1.575 3.17-4.148 3.172-7.722 0-3.535-1.056-6.11-3.168-7.72-1.815-1.368-4.838-2.051-9.066-2.053l-22.595-.006-.003 19.539v.003Zm100.252-6.439-27.705-.007-4.104 10.084c-.565 1.4-.848 2.504-.847 3.31 0 1.541.994 2.61 2.983 3.204l-.001 1.681-20.16-.006.001-1.68c1.19-.281 2.099-.77 2.725-1.47.627-.702 1.339-2.065 2.144-4.098l22.428-55.094c.715-1.751 1.075-3.151 1.075-4.2.002-1.61-.863-2.769-2.589-3.47l.001-1.681 21.612.004-.001 1.681c-1.755.597-2.635 1.628-2.633 3.098.001 1.017.282 2.172.848 3.466l23.207 55.264c.981 2.349 1.846 3.95 2.591 4.81.743.857 1.74 1.425 2.99 1.706l-.001 1.682-22.439-.006.001-1.682c1.971-.382 2.958-1.47 2.956-3.256.001-.736-.299-1.82-.891-3.259l-4.188-10.086-.003.005Zm-3.826-9.824-9.879-25.544-10.049 25.539 19.928.005Zm48.628-20.999-.009 43.596c-.002 1.087.208 1.909.623 2.47.417.56 1.161 1.017 2.234 1.367l-.001 1.681-17.907-.004.001-1.682c1.072-.348 1.815-.804 2.233-1.365.417-.559.626-1.38.625-2.468l.014-60.72c0-1.048-.208-1.856-.623-2.417-.418-.558-1.159-1.014-2.231-1.367l.001-1.681 20.721.004-.001 1.68c-1.28.387-1.921 1.19-1.92 2.418-.001.84.417 1.769 1.25 2.784L354.98 73.22l.009-42.547c0-1.049-.208-1.857-.623-2.418-.415-.56-1.162-1.014-2.234-1.367l.001-1.682 17.909.005-.001 1.682c-1.072.35-1.818.806-2.232 1.365-.418.559-.626 1.367-.626 2.416l-.014 60.72c-.001 1.086.208 1.908.623 2.469.418.561 1.162 1.017 2.234 1.367l-.001 1.682-19.202-.004.001-1.681c1.252-.316 1.875-1.066 1.877-2.257-.001-.701-.729-1.928-2.189-3.677l-34.154-41.506h-.005Zm97.779-23.824c10.633.002 19.064 3.385 25.29 10.144 6.582 7.076 9.872 16.216 9.868 27.422-.001 6.862-1.581 13.27-4.741 19.223-6.169 11.626-16.285 17.434-30.347 17.432-10.546-.003-18.93-3.385-25.156-10.144-3.336-3.608-5.867-7.934-7.593-12.976-1.52-4.447-2.276-9.122-2.275-14.023.002-7.18 1.565-13.745 4.694-19.697 5.99-11.381 16.078-17.174 30.257-17.38h.003Zm.041 12.186c-5.811-.001-10.654 2.027-14.529 6.083-4.593 4.79-6.889 11.07-6.888 18.834-.003 7.766 2.291 14.045 6.88 18.838 3.875 4.06 8.747 6.09 14.616 6.09 5.868.002 10.728-2.025 14.573-6.083 2.296-2.413 4.054-5.368 5.277-8.865a29.404 29.404 0 0 0 1.611-9.655c.001-8.114-2.293-14.5-6.88-19.153-3.904-3.988-8.791-6.017-14.663-6.09h.003ZM515.57 31.32l-7.284 16.88-1.251-.842c.029-.35.047-.63.047-.839.002-1.191-.864-2.467-2.589-3.837-5.298-4.345-11.52-6.516-18.665-6.517-3.154-.001-5.94.454-8.35 1.363-1.757.7-3.179 1.751-4.267 3.146-1.086 1.398-1.629 2.921-1.631 4.567 0 2.692 1.385 4.53 4.152 5.51 1.431.489 4.497 1.015 9.201 1.576l7.01.841c4.168.527 7.54 1.245 10.115 2.155 2.575.91 4.859 2.188 6.853 3.831 2.025 1.716 3.623 3.973 4.801 6.772 1.174 2.8 1.762 5.793 1.762 8.977-.002 5.04-1.385 9.517-4.156 13.436-2.502 3.569-6.388 6.21-11.658 7.923-3.931 1.294-8.145 1.94-12.639 1.938-8.067-.002-16.03-2.279-23.889-6.835-1.666-.908-2.664-1.366-2.99-1.364-.386 0-.999.382-1.832 1.152l-1.295-.787 6.613-17.595 1.295.735-.001.682c0 1.575.639 3.027 1.918 4.358 1.935 2.032 4.928 3.783 8.977 5.256 4.047 1.473 7.886 2.209 11.52 2.209 3.959 0 7.339-.784 10.138-2.356 1.548-.873 2.785-2.036 3.706-3.487.921-1.448 1.386-2.96 1.387-4.532-.001-2.377-1.088-4.074-3.26-5.087-1.518-.699-4.583-1.346-9.198-1.941l-6.879-.841c-4.613-.56-7.874-1.096-9.778-1.605-1.905-.509-3.81-1.325-5.717-2.447-2.707-1.576-4.836-3.943-6.382-7.099-1.398-2.838-2.1-6.099-2.097-9.78.002-6.06 1.775-11.071 5.317-15.03 4.646-5.22 11.613-7.832 20.902-7.828 3.899 0 7.531.468 10.897 1.401 3.364.933 7.56 2.649 12.592 5.145 1.726.81 2.784 1.214 3.171 1.213.624 0 1.353-.403 2.189-1.213l1.25.793-.005.002ZM243.567 6.878c2.524-3.39 5.764-5.649 8.766-5.647 4.923.001 9.3 4.806 13.983 4.809 1.862 0 3.965-1.414 5.284-3.18l2.701 5.582c-2.284 2.54-5.285 4.658-8.046 4.66-4.8-.002-9.301-4.803-13.504-4.805-2.522-.001-4.683 2.045-6.186 3.81l-2.998-5.227v-.002Z"/>
</svg>