<svg xmlns="http://www.w3.org/2000/svg" width="42" height="42" fill="none" viewBox="0 0 42 42">
  <rect width="40" height="40" x="1" y="1" stroke="#fff" stroke-width="2" rx="7"/>
  <path fill="#fff" d="M15.737 21.197c-.485.954.066 1.41 1.323 2.189 1.07.66 2.546.902 3.494.998l-3.737 3.595c-1.088 1.043.663 2.715 1.75 1.695l2.942-2.838c1.127 1.084 2.207 2.122 2.943 2.842 1.088 1.024 2.838-.634 1.762-1.695-.08-.077-3.987-3.825-3.749-3.595.96-.097 2.415-.352 3.47-.998v-.001c1.257-.783 1.808-1.238 1.33-2.192-.29-.542-1.068-.994-2.105-.212 0 0-1.4 1.073-3.66 1.073-2.259 0-3.658-1.073-3.658-1.073-1.037-.787-1.819-.33-2.105.212Z"/>
  <path fill="#fff" d="M21.499 20.612c2.753 0 5.001-2.151 5.001-4.8 0-2.66-2.248-4.812-5-4.812-2.755 0-5.003 2.152-5.003 4.812 0 2.649 2.248 4.8 5.003 4.8Zm0-7.174c1.353 0 2.456 1.061 2.456 2.374 0 1.301-1.103 2.363-2.456 2.363s-2.457-1.062-2.457-2.363c0-1.314 1.103-2.374 2.457-2.374Z"/>
</svg>