<svg width="40" height="40" viewBox="0 0 40 40" fill="none" xmlns="http://www.w3.org/2000/svg">
  <g id="Frame" opacity="0.4" class="Frame">
    <g id="Group" class="Group">
      <g id="Layer 2" class="Layer 2" fill="white">
        <path id="Vector" d="M35.2 37.5H4.8C3.8595 37.4967 2.95845 37.1216 2.29341 36.4566C1.62837 35.7915 1.25329 34.8905 1.25 33.95V13.55C1.25329 12.6095 1.62837 11.7085 2.29341 11.0434C2.95845 10.3784 3.8595 10.0033 4.8 10H10.35L11.875 5.4C12.1561 4.55499 12.6962 3.82001 13.4188 3.29943C14.1413 2.77885 15.0095 2.49914 15.9 2.5H24.0875C24.978 2.49914 25.8462 2.77885 26.5687 3.29943C27.2913 3.82001 27.8314 4.55499 28.1125 5.4L29.65 10H35.2C36.1405 10.0033 37.0415 10.3784 37.7066 11.0434C38.3716 11.7085 38.7467 12.6095 38.75 13.55V33.95C38.7467 34.8905 38.3716 35.7915 37.7066 36.4566C37.0415 37.1216 36.1405 37.4967 35.2 37.5ZM4.8 12.5C4.52152 12.5 4.25445 12.6106 4.05754 12.8075C3.86062 13.0045 3.75 13.2715 3.75 13.55V33.95C3.75 34.2285 3.86062 34.4956 4.05754 34.6925C4.25445 34.8894 4.52152 35 4.8 35H35.2C35.4785 35 35.7455 34.8894 35.9425 34.6925C36.1394 34.4956 36.25 34.2285 36.25 33.95V13.55C36.25 13.2715 36.1394 13.0045 35.9425 12.8075C35.7455 12.6106 35.4785 12.5 35.2 12.5H29.375C28.93 12.4995 28.4963 12.3593 28.1352 12.0991C27.7742 11.839 27.5039 11.472 27.3625 11.05L25.75 6.25C25.6454 5.89222 25.4286 5.57755 25.1315 5.35246C24.8344 5.12738 24.4727 5.00381 24.1 5H15.9C15.5273 5.00381 15.1656 5.12738 14.8685 5.35246C14.5714 5.57755 14.3546 5.89222 14.25 6.25L12.6375 11.05C12.4961 11.472 12.2258 11.839 11.8648 12.0991C11.5037 12.3593 11.07 12.4995 10.625 12.5H4.8Z" class="Vector"/>
        <path id="Vector_2" d="M20 31.0498C18.5166 31.0498 17.0666 30.6099 15.8332 29.7858C14.5999 28.9617 13.6386 27.7904 13.0709 26.4199C12.5032 25.0495 12.3547 23.5415 12.6441 22.0866C12.9335 20.6318 13.6478 19.2954 14.6967 18.2465C15.7456 17.1976 17.082 16.4833 18.5368 16.1939C19.9917 15.9045 21.4997 16.0531 22.8701 16.6207C24.2406 17.1884 25.4119 18.1497 26.236 19.383C27.0601 20.6164 27.5 22.0664 27.5 23.5498C27.5 25.5389 26.7098 27.4466 25.3033 28.8531C23.8968 30.2596 21.9891 31.0498 20 31.0498ZM20 18.5498C19.0111 18.5498 18.0444 18.8431 17.2222 19.3925C16.3999 19.9419 15.759 20.7228 15.3806 21.6364C15.0022 22.55 14.9032 23.5554 15.0961 24.5253C15.289 25.4952 15.7652 26.3861 16.4645 27.0853C17.1637 27.7846 18.0546 28.2608 19.0246 28.4537C19.9945 28.6467 20.9998 28.5476 21.9134 28.1692C22.8271 27.7908 23.6079 27.1499 24.1574 26.3277C24.7068 25.5054 25 24.5387 25 23.5498C25 22.2237 24.4732 20.952 23.5355 20.0143C22.5979 19.0766 21.3261 18.5498 20 18.5498Z" class="Vector"/>
        <path id="Vector_3" d="M31.7246 17.2998C32.415 17.2998 32.9746 16.7402 32.9746 16.0498C32.9746 15.3594 32.415 14.7998 31.7246 14.7998C31.0343 14.7998 30.4746 15.3594 30.4746 16.0498C30.4746 16.7402 31.0343 17.2998 31.7246 17.2998Z" class="Vector"/>
      </g>
    </g>
  </g>
</svg>