<svg xmlns="http://www.w3.org/2000/svg" width="40" height="40" fill="none" viewBox="0 0 40 40">
  <g opacity=".4">
    <path fill="#092562" d="M35.2 37.5H4.8a3.563 3.563 0 0 1-3.55-3.55v-20.4A3.563 3.563 0 0 1 4.8 10h5.55l1.525-4.6A4.237 4.237 0 0 1 15.9 2.5h8.187a4.237 4.237 0 0 1 4.026 2.9L29.65 10h5.55a3.563 3.563 0 0 1 3.55 3.55v20.4a3.563 3.563 0 0 1-3.55 3.55Zm-30.4-25a1.05 1.05 0 0 0-1.05 1.05v20.4A1.05 1.05 0 0 0 4.8 35h30.4a1.05 1.05 0 0 0 1.05-1.05v-20.4a1.05 1.05 0 0 0-1.05-1.05h-5.825a2.125 2.125 0 0 1-2.012-1.45l-1.613-4.8A1.738 1.738 0 0 0 24.1 5h-8.2a1.738 1.738 0 0 0-1.65 1.25l-1.613 4.8a2.126 2.126 0 0 1-2.012 1.45H4.8Z"/>
    <path fill="#092562" d="M20 31.05a7.5 7.5 0 1 1 0-15 7.5 7.5 0 0 1 0 15Zm0-12.5a5 5 0 1 0 0 10 5 5 0 0 0 0-10Zm11.725-1.25a1.25 1.25 0 1 0 0-2.5 1.25 1.25 0 0 0 0 2.5Z"/>
  </g>
</svg>