<svg width="17" height="17" viewBox="0 0 17 17" fill="none" xmlns="http://www.w3.org/2000/svg">
  <g id="Image/ic_srv_image_default_20_lm_w" clip-path="url(#clip0_237_1605)" class="Image/ic_srv_image_default_20_lm_w">
    <g id="Union" class="Union" fill="#FB6C1B">
      <path d="M4.9 6.90005C5.56274 6.90005 6.1 6.36279 6.1 5.70005C6.1 5.03731 5.56274 4.50005 4.9 4.50005C4.23726 4.50005 3.7 5.03731 3.7 5.70005C3.7 6.36279 4.23726 6.90005 4.9 6.90005Z"/>
      <path d="M9.14005 7.64665C9.62005 7.00665 10.58 7.00665 11.06 7.64665L13.14 10.42C13.4051 10.7734 13.3335 11.2749 12.98 11.54C12.6266 11.8051 12.1251 11.7334 11.86 11.38L10.1 9.03332L8.34005 11.38C8.07495 11.7334 7.57351 11.8051 7.22005 11.54C6.86658 11.2749 6.79495 10.7734 7.06005 10.42L9.14005 7.64665Z"/>
      <path d="M6.76573 8.94389C7.01081 8.57627 6.91147 8.07958 6.54385 7.83449C6.17622 7.58941 5.67953 7.68875 5.43444 8.05637L3.83444 10.4564C3.58936 10.824 3.6887 11.3207 4.05632 11.5658C4.42395 11.8109 4.92064 11.7115 5.16573 11.3439L6.76573 8.94389Z"/>
      <path fill-rule="evenodd" clip-rule="evenodd" d="M3.7 1.30005C1.93269 1.30005 0.5 2.73274 0.5 4.50005V11.7C0.5 13.4674 1.93269 14.9 3.7 14.9H13.3C15.0673 14.9 16.5 13.4674 16.5 11.7V4.50005C16.5 2.73274 15.0673 1.30005 13.3 1.30005H3.7ZM2.1 4.50005C2.1 3.61639 2.81634 2.90005 3.7 2.90005H13.3C14.1837 2.90005 14.9 3.61639 14.9 4.50005V11.7C14.9 12.5837 14.1837 13.3 13.3 13.3H3.7C2.81634 13.3 2.1 12.5837 2.1 11.7V4.50005Z"/>
    </g>
  </g>
  <defs>
    <clipPath id="clip0_237_1605" class="clip0_237">
      <rect width="16" height="16" fill="white" transform="translate(.5 .5)"/>
    </clipPath>
  </defs>
</svg>