<svg width="63" height="69" viewBox="0 0 63 69" fill="none" xmlns="http://www.w3.org/2000/svg">
  <g id="Group 270988573" class="Group 270988573" fill="white">
    <g id="Group" class="Group">
      <path id="Vector" d="M46.979 22.9077L41.6898 24.325L37.5886 20.6997C36.0438 19.3421 33.8497 18.8671 31.8662 19.3985L19.745 22.6464C17.7615 23.1779 16.0989 24.6863 15.4398 26.6345L13.7008 31.8246L8.41149 33.2419C7.61434 33.453 6.86679 33.8197 6.21183 34.3207C5.55688 34.8218 5.00744 35.4474 4.59512 36.1615C4.18281 36.8757 3.91574 37.6643 3.80928 38.4821C3.70283 39.2998 3.75908 40.1305 3.97481 40.9264L9.70288 62.3039C9.91401 63.101 10.2807 63.8486 10.7817 64.5035C11.2828 65.1585 11.9084 65.7079 12.6225 66.1202C13.3367 66.5326 14.1253 66.7996 14.9431 66.9061C15.7608 67.0125 16.5915 66.9563 17.3874 66.7405L55.955 56.4064C56.7521 56.1953 57.4997 55.8286 58.1546 55.3276C58.8096 54.8265 59.359 54.2009 59.7713 53.4868C60.1837 52.7726 60.4507 51.984 60.5572 51.1662C60.6636 50.3485 60.6074 49.5178 60.3916 48.7219L54.6636 27.3444C54.4524 26.5473 54.0858 25.7997 53.5847 25.1448C53.0837 24.4898 52.4581 23.9404 51.7439 23.5281C51.0298 23.1157 50.2411 22.8487 49.4234 22.7422C48.6057 22.6358 47.7749 22.692 46.979 22.9077ZM35.3425 56.6148C27.7943 58.6373 20.0399 54.1603 18.0174 46.6121C15.9948 39.0639 20.4866 31.3646 28.0348 29.342C35.583 27.3195 43.3374 31.7965 45.36 39.3447C47.3678 46.8378 42.8907 54.5922 35.3425 56.6148ZM48.496 31.6544L46.0717 32.304C45.0652 32.5146 44.0724 31.8948 43.8618 30.8883C43.6659 29.9369 44.1902 29.0288 45.1121 28.7227L47.316 28.1322C48.2929 27.8113 49.3261 28.3612 49.6469 29.3382C49.9677 30.3152 49.4729 31.3335 48.496 31.6544Z" class="Vector"/>
      <path id="Vector_2" d="M29.6587 35.4026C25.4714 36.5246 22.9707 40.8559 24.0927 45.0433C25.2147 49.2306 29.5312 51.6762 33.7186 50.5542C37.9059 49.4322 40.4066 45.1009 39.2846 40.9136C38.1626 36.7262 33.8461 34.2806 29.6587 35.4026Z" class="Vector"/>
    </g>
    <path id="Star 1" d="M43.5621 2.53451C43.8843 1.66389 45.1157 1.66389 45.4379 2.53451L47.1764 7.23281C47.2777 7.50653 47.4935 7.72234 47.7672 7.82362L52.4655 9.56215C53.3361 9.88431 53.3361 11.1157 52.4655 11.4379L47.7672 13.1764C47.4935 13.2777 47.2777 13.4935 47.1764 13.7672L45.4379 18.4655C45.1157 19.3361 43.8843 19.3361 43.5621 18.4655L41.8236 13.7672C41.7223 13.4935 41.5065 13.2777 41.2328 13.1764L36.5345 11.4379C35.6639 11.1157 35.6639 9.88431 36.5345 9.56215L41.2328 7.82362C41.5065 7.72234 41.7223 7.50653 41.8236 7.23281L43.5621 2.53451Z" class="Star 1"/>
  </g>
</svg>