<svg width="16" height="17" viewBox="0 0 16 17" fill="none" xmlns="http://www.w3.org/2000/svg">
  <g id="Study/ic_srvx_study_default_16_lm_w" class="Study/ic_srvx_study_default_16_lm_w">
    <path id="Union" fill-rule="evenodd" clip-rule="evenodd" d="M7.43087 15.3231C5.57256 14.054 3.6793 13.1859 1.54946 12.6525C0.668697 12.4319 0 11.644 0 10.6879V3.44996C0 2.41062 0.82885 1.45436 1.98005 1.48972C4.37264 1.56321 6.3075 2.38212 8 4.03441C9.69251 2.38212 11.6274 1.56321 14.0199 1.48972C15.1712 1.45436 16 2.41062 16 3.44996V10.6879C16 11.644 15.3313 12.4319 14.4505 12.6525C12.3207 13.1859 10.4274 14.054 8.56908 15.3231C8.55192 15.335 8.53434 15.3463 8.51634 15.3572C8.21744 15.5375 7.84433 15.5494 7.5332 15.3852C7.51636 15.3763 7.49984 15.3669 7.48366 15.3572M2 10.6879V3.49163C4.02031 3.57138 5.56474 4.29881 7 5.87757V12.6977C5.43739 11.8118 3.80991 11.1569 2.03537 10.7124C2.01989 10.7086 2.00926 10.7005 2.00344 10.6932C2.00124 10.6905 2 10.6879 2 10.6879ZM9 12.6977C10.5626 11.8118 12.1901 11.1569 13.9646 10.7124C13.9801 10.7086 13.9907 10.7005 13.9966 10.6932C13.9988 10.6905 14 10.6879 14 10.6879V3.49163C11.9797 3.57138 10.4353 4.29881 9 5.87757V12.6977Z" fill="white" class="Union"/>
  </g>
</svg>