<svg width="34" height="40" viewBox="0 0 34 40" fill="none" xmlns="http://www.w3.org/2000/svg">
  <g id="Clip path group" class="Clip path group">
    <mask id="mask0_542_3123" style="mask-type:luminance" maskUnits="userSpaceOnUse" x="0" y="0" width="34" height="40" class="mask0_542">
      <g id="clip0" class="clip0">
        <path id="Vector" d="M33.8992 0.131348H0.117188V39.8978H33.8992V0.131348Z" fill="white" class="Vector"/>
      </g>
    </mask>
    <g mask="url(#mask0_542_3123)">
      <g id="Group" class="Group" fill="white">
        <path id="Vector_2" d="M32.5606 25.0724C32.1312 24.7517 31.6597 24.4915 31.1594 24.2992C29.3728 23.6043 27.7022 23.4802 26.0511 23.9195C25.9496 23.9414 25.8461 23.9529 25.7423 23.9541L25.6457 23.9595C25.7764 23.7074 25.9046 23.464 26.0301 23.2259C26.3478 22.6235 26.6478 22.0546 26.9192 21.4724L27.315 20.6255C28.8896 17.2552 30.518 13.7701 31.7506 10.1853C32.1021 9.16354 32.2491 8.30024 32.2009 7.54586C32.1391 6.58374 31.6736 5.81621 30.9227 5.44036C30.1597 5.05833 29.211 5.15254 28.3842 5.6923C27.9452 5.94715 27.5532 6.27512 27.2248 6.66209L26.9636 7.00668C26.1322 8.05912 25.3651 9.16074 24.6664 10.3056C23.9447 11.5445 23.2808 12.8435 22.6395 14.0996C22.3307 14.7038 22.0218 15.308 21.7058 15.9082C21.6589 15.9835 21.601 16.0514 21.534 16.1095C21.5251 16.1184 21.5158 16.1271 21.507 16.1358C20.135 14.2247 19.236 14.0135 16.8911 15.0378C16.4715 13.9042 15.6145 13.2159 14.3429 12.9904C13.109 12.7715 12.0103 13.0969 10.9872 13.9847C10.9661 13.9631 10.9469 13.9438 10.9293 13.9258C10.8828 13.8827 10.8402 13.8356 10.8021 13.7849C10.0509 12.6846 9.0309 12.0454 7.92999 11.9862C6.85517 11.9294 5.8102 12.4331 4.97993 13.4066C4.29829 14.2214 3.71808 15.1159 3.25188 16.0705C2.00851 18.5607 1.33069 21.2851 0.732461 23.6881C0.319995 25.4017 0.17503 27.1686 0.302739 28.9264C0.471843 31.6947 1.6427 34.1168 3.78258 36.1268C6.40079 38.585 9.48108 39.8268 12.9531 39.8268C13.3296 39.8268 13.7106 39.8121 14.0965 39.7827C15.7659 39.6559 17.6951 39.3526 19.3435 38.0647C20.091 37.4803 20.8587 36.8953 21.601 36.3297C22.8721 35.3612 24.1862 34.3606 25.4425 33.3288C27.0018 32.07 28.789 31.1232 30.7068 30.5406C31.35 30.3591 31.9618 30.0794 32.52 29.7118C32.8897 29.4547 33.1936 29.1137 33.4059 28.7166C33.6186 28.3195 33.7341 27.8777 33.743 27.4273C33.7462 26.9692 33.6406 26.5169 33.435 26.1077C33.2294 25.6982 32.9297 25.3434 32.5606 25.0724ZM2.00118 27.5819C2.05175 27.2041 2.09591 26.8248 2.14012 26.4457C2.23174 25.5245 2.37024 24.6087 2.55514 23.7016C3.14952 21.0317 3.82732 18.9142 4.68846 17.0357C5.16238 15.9917 5.85008 15.0587 6.70711 14.2971C7.21461 13.8474 7.73752 13.6739 8.18017 13.8087C8.62688 13.9449 8.96799 14.3878 9.14055 15.0544C9.22688 15.4239 9.28761 15.799 9.32238 16.1769C9.33899 16.3205 9.35541 16.4642 9.37491 16.6072C9.43108 17.0247 9.56055 17.4674 10.0959 17.5838C10.575 17.6876 10.9453 17.4768 11.2268 16.9384C11.3136 16.7726 11.398 16.605 11.4819 16.4365C11.646 16.1097 11.8157 15.7719 12.0032 15.4543C12.1477 15.2079 12.3423 14.9947 12.5746 14.8284C12.8068 14.6621 13.0715 14.5465 13.3513 14.4891C13.9587 14.3478 14.4623 14.4119 14.8075 14.6764C15.1455 14.9345 15.3362 15.3883 15.3586 15.9891C15.3632 16.3569 15.3418 16.7246 15.2947 17.0894C15.2819 17.2112 15.269 17.3328 15.258 17.4542C15.2488 17.5575 15.2296 17.6594 15.2094 17.7674C15.1838 17.8903 15.1656 18.0146 15.1549 18.1397C15.1366 18.3358 15.1886 18.532 15.3016 18.6933C15.4145 18.8546 15.5812 18.9705 15.7717 19.0202C15.9623 19.0699 16.1643 19.0503 16.3417 18.9649C16.5191 18.8794 16.6603 18.7336 16.7401 18.5536C16.8096 18.3974 16.8702 18.2347 16.9289 18.0774C17.0204 17.8055 17.1375 17.543 17.2785 17.2932C17.523 16.8444 17.8457 16.4428 18.2316 16.1076C18.3536 16.0017 18.4999 15.9274 18.6574 15.8912C18.8149 15.855 18.979 15.8581 19.135 15.9001C19.2839 15.9541 19.4172 16.0438 19.5233 16.1614C19.6294 16.279 19.7049 16.4209 19.7433 16.5745C19.8816 17.0836 19.9661 17.6057 19.9956 18.1324C20.0097 18.2868 20.0238 18.4397 20.0404 18.592C20.0481 18.7114 20.0437 18.8312 20.0267 18.9495C19.9937 19.1304 20.0008 19.3164 20.0481 19.4941C20.1568 19.8045 20.401 20.1763 20.6811 20.2593C20.9612 20.3423 21.3438 20.1421 21.6178 19.9601C21.7662 19.8358 21.8774 19.6727 21.9394 19.4891C21.9623 19.4383 21.9851 19.3881 22.0088 19.3408C22.4312 18.5097 22.8517 17.6777 23.2706 16.8448C24.1869 15.0273 25.1344 13.1479 26.0932 11.3134C26.6457 10.2666 27.2626 9.25506 27.9406 8.28462C28.3028 7.78698 28.7438 7.35168 29.2461 6.99586C29.5697 6.75668 29.8962 6.68839 30.1415 6.80748C30.3936 6.92968 30.5456 7.23951 30.5586 7.65686C30.5597 8.10577 30.4771 8.55092 30.315 8.96951C30.19 9.31289 30.0659 9.65695 29.943 10.0017C29.4616 11.3433 28.9637 12.7305 28.3726 14.0471C27.3109 16.4101 26.1948 18.7959 25.1151 21.1033C24.4782 22.464 23.8439 23.8257 23.2119 25.1884C22.9905 25.6057 22.8581 26.0646 22.8229 26.5358C22.8202 26.8659 23.114 27.2752 23.3878 27.4649C23.7159 27.6923 24.1458 27.5871 24.4842 27.1983C24.5572 27.1146 24.6213 27.0246 24.6834 26.9372C24.7354 26.8642 24.7871 26.7914 24.8438 26.7229C25.5062 25.9227 26.7206 25.3843 28.0923 25.2828C29.4193 25.1845 30.65 25.5199 31.3853 26.1797C31.7494 26.5078 31.923 26.8304 31.8871 27.1155C31.8512 27.4007 31.6168 27.6545 31.1921 27.8749C30.9341 28.0079 30.6624 28.1116 30.3815 28.1838C28.1008 28.7755 25.9946 29.9065 23.9423 31.6415C22.6996 32.6924 21.3573 33.8147 19.9624 34.9038C19.1451 35.5409 18.256 36.1191 17.3961 36.6774L17.3641 36.6979C16.491 37.2653 15.4561 37.3491 14.4551 37.43L14.3615 37.4374C10.1146 37.7829 6.60917 36.3077 3.9462 33.0535C2.60938 31.4194 2.01964 29.6153 2.19319 27.6906L2.2029 27.5833L2.00118 27.5819Z" class="Vector"/>
        <path id="Vector_3" d="M10.1807 8.84916C10.3701 8.84475 10.5547 8.78787 10.7137 8.68487C11.0808 8.45593 11.4303 8.19975 11.7591 7.91849C14.3213 5.76666 17.2414 4.60437 20.4407 4.46308C20.576 4.46402 20.711 4.47916 20.8432 4.50825L20.8735 4.51366C20.7876 4.56675 20.7049 4.61731 20.6247 4.66616C20.3185 4.85281 20.054 5.01364 19.8046 5.20264C19.3835 5.51999 19.0955 5.94699 19.071 6.29022C19.0628 6.35866 19.0697 6.42805 19.0913 6.49355C19.1128 6.55902 19.1485 6.61896 19.1957 6.66914C19.5614 7.03843 20.1042 7.09019 20.6849 6.81125L20.9912 6.66434C21.9688 6.22487 22.9137 5.71581 23.8185 5.14105C24.3438 4.78875 24.6216 4.37255 24.6221 3.93722C24.6221 3.47202 24.3115 3.01646 23.7222 2.61956C22.8016 1.9997 21.8223 1.33041 20.5469 0.449568C20.2667 0.256527 19.8438 -0.0357348 19.4523 0.388182C19.1608 0.703803 19.198 1.07639 19.5631 1.49548C19.8174 1.78697 20.0888 2.06862 20.376 2.36706C20.4743 2.46899 20.5752 2.57379 20.6789 2.68266C20.6717 2.68614 20.6644 2.68917 20.6571 2.69174C20.5281 2.70042 20.3988 2.70872 20.2695 2.70872H20.2683C16.831 2.70872 13.647 3.92834 10.533 6.43693C10.1787 6.74255 9.85939 7.08669 9.58113 7.46293C9.28213 7.84225 9.28563 8.26175 9.59083 8.5849C9.6653 8.66766 9.75616 8.73393 9.85777 8.77943C9.95939 8.82493 10.0694 8.84869 10.1807 8.84916Z" class="Vector"/>
      </g>
    </g>
  </g>
</svg>