<svg width="40" height="40" viewBox="0 0 40 40" fill="none" xmlns="http://www.w3.org/2000/svg">
  <g id="swipe-right-svgrepo-com 1" class="swipe-right-svgrepo-com 1">
    <g id="Clip path group" class="Clip path group">
      <mask id="mask0_542_3117" style="mask-type:luminance" maskUnits="userSpaceOnUse" x="3" y="0" width="34" height="40" class="mask0_542">
        <g id="clip0" class="clip0">
          <path id="Vector" d="M36.8992 0.131348H3.11719V39.8978H36.8992V0.131348Z" fill="white" class="Vector"/>
        </g>
      </mask>
      <g mask="url(#mask0_542_3117)">
        <g id="Group" class="Group" fill="#22366A">
          <path id="Vector_2" d="M35.5606 25.0724C35.1312 24.7517 34.6597 24.4915 34.1594 24.2992C32.3728 23.6043 30.7022 23.4802 29.0511 23.9195C28.9496 23.9414 28.8461 23.9529 28.7423 23.9541L28.6457 23.9595C28.7764 23.7074 28.9046 23.464 29.0301 23.2259C29.3478 22.6235 29.6478 22.0546 29.9192 21.4724L30.315 20.6255C31.8896 17.2552 33.518 13.7701 34.7506 10.1853C35.1021 9.16354 35.2491 8.30024 35.2009 7.54586C35.1391 6.58374 34.6736 5.81621 33.9227 5.44036C33.1597 5.05833 32.211 5.15254 31.3842 5.6923C30.9452 5.94715 30.5532 6.27512 30.2248 6.66209L29.9636 7.00668C29.1322 8.05912 28.3651 9.16074 27.6664 10.3056C26.9447 11.5445 26.2808 12.8435 25.6395 14.0996C25.3307 14.7038 25.0218 15.308 24.7058 15.9082C24.6589 15.9835 24.601 16.0514 24.534 16.1095C24.5251 16.1184 24.5158 16.1271 24.507 16.1358C23.135 14.2247 22.236 14.0135 19.8911 15.0378C19.4715 13.9042 18.6145 13.2159 17.3429 12.9904C16.109 12.7715 15.0103 13.0969 13.9872 13.9847C13.9661 13.9631 13.9469 13.9438 13.9293 13.9258C13.8828 13.8827 13.8402 13.8356 13.8021 13.7849C13.0509 12.6846 12.0309 12.0454 10.93 11.9862C9.85517 11.9294 8.8102 12.4331 7.97993 13.4066C7.29829 14.2214 6.71808 15.1159 6.25188 16.0705C5.00851 18.5607 4.33069 21.2851 3.73246 23.6881C3.32 25.4017 3.17503 27.1686 3.30274 28.9264C3.47184 31.6947 4.6427 34.1168 6.78258 36.1268C9.40079 38.585 12.4811 39.8268 15.9531 39.8268C16.3296 39.8268 16.7106 39.8121 17.0965 39.7827C18.7659 39.6559 20.6951 39.3526 22.3435 38.0647C23.091 37.4803 23.8587 36.8953 24.601 36.3297C25.8721 35.3612 27.1862 34.3606 28.4425 33.3288C30.0018 32.07 31.789 31.1232 33.7068 30.5406C34.35 30.3591 34.9618 30.0794 35.52 29.7118C35.8897 29.4547 36.1936 29.1137 36.4059 28.7166C36.6186 28.3195 36.7341 27.8777 36.743 27.4273C36.7462 26.9692 36.6406 26.5169 36.435 26.1077C36.2294 25.6982 35.9297 25.3434 35.5606 25.0724ZM5.00118 27.5819C5.05175 27.2041 5.09591 26.8248 5.14012 26.4457C5.23174 25.5245 5.37024 24.6087 5.55514 23.7016C6.14952 21.0317 6.82732 18.9142 7.68846 17.0357C8.16238 15.9917 8.85008 15.0587 9.70711 14.2971C10.2146 13.8474 10.7375 13.6739 11.1802 13.8087C11.6269 13.9449 11.968 14.3878 12.1406 15.0544C12.2269 15.4239 12.2876 15.799 12.3224 16.1769C12.339 16.3205 12.3554 16.4642 12.3749 16.6072C12.4311 17.0247 12.5606 17.4674 13.0959 17.5838C13.575 17.6876 13.9453 17.4768 14.2268 16.9384C14.3136 16.7726 14.398 16.605 14.4819 16.4365C14.646 16.1097 14.8157 15.7719 15.0032 15.4543C15.1477 15.2079 15.3423 14.9947 15.5746 14.8284C15.8068 14.6621 16.0715 14.5465 16.3513 14.4891C16.9587 14.3478 17.4623 14.4119 17.8075 14.6764C18.1455 14.9345 18.3362 15.3883 18.3586 15.9891C18.3632 16.3569 18.3418 16.7246 18.2947 17.0894C18.2819 17.2112 18.269 17.3328 18.258 17.4542C18.2488 17.5575 18.2296 17.6594 18.2094 17.7674C18.1838 17.8903 18.1656 18.0146 18.1549 18.1397C18.1366 18.3358 18.1886 18.532 18.3016 18.6933C18.4145 18.8546 18.5812 18.9705 18.7717 19.0202C18.9623 19.0699 19.1643 19.0503 19.3417 18.9649C19.5191 18.8794 19.6603 18.7336 19.7401 18.5536C19.8096 18.3974 19.8702 18.2347 19.9289 18.0774C20.0204 17.8055 20.1375 17.543 20.2785 17.2932C20.523 16.8444 20.8457 16.4428 21.2316 16.1076C21.3536 16.0017 21.4999 15.9274 21.6574 15.8912C21.8149 15.855 21.979 15.8581 22.135 15.9001C22.2839 15.9541 22.4172 16.0438 22.5233 16.1614C22.6294 16.279 22.7049 16.4209 22.7433 16.5745C22.8816 17.0836 22.9661 17.6057 22.9956 18.1324C23.0097 18.2868 23.0238 18.4397 23.0404 18.592C23.0481 18.7114 23.0437 18.8312 23.0267 18.9495C22.9937 19.1304 23.0008 19.3164 23.0481 19.4941C23.1568 19.8045 23.401 20.1763 23.6811 20.2593C23.9612 20.3423 24.3438 20.1421 24.6178 19.9601C24.7662 19.8358 24.8774 19.6727 24.9394 19.4891C24.9623 19.4383 24.9851 19.3881 25.0088 19.3408C25.4312 18.5097 25.8517 17.6777 26.2706 16.8448C27.1869 15.0273 28.1344 13.1479 29.0932 11.3134C29.6457 10.2666 30.2626 9.25506 30.9406 8.28462C31.3028 7.78698 31.7438 7.35168 32.2461 6.99586C32.5697 6.75668 32.8962 6.68839 33.1415 6.80748C33.3936 6.92968 33.5456 7.23951 33.5586 7.65686C33.5597 8.10577 33.4771 8.55092 33.315 8.96951C33.19 9.31289 33.0659 9.65695 32.943 10.0017C32.4616 11.3433 31.9637 12.7305 31.3726 14.0471C30.3109 16.4101 29.1948 18.7959 28.1151 21.1033C27.4782 22.464 26.8439 23.8257 26.2119 25.1884C25.9905 25.6057 25.8581 26.0646 25.8229 26.5358C25.8202 26.8659 26.114 27.2752 26.3878 27.4649C26.7159 27.6923 27.1458 27.5871 27.4842 27.1983C27.5572 27.1146 27.6213 27.0246 27.6834 26.9372C27.7354 26.8642 27.7871 26.7914 27.8438 26.7229C28.5062 25.9227 29.7206 25.3843 31.0923 25.2828C32.4193 25.1845 33.65 25.5199 34.3853 26.1797C34.7494 26.5078 34.923 26.8304 34.8871 27.1155C34.8512 27.4007 34.6168 27.6545 34.1921 27.8749C33.9341 28.0079 33.6624 28.1116 33.3815 28.1838C31.1008 28.7755 28.9946 29.9065 26.9423 31.6415C25.6996 32.6924 24.3573 33.8147 22.9624 34.9038C22.1451 35.5409 21.256 36.1191 20.3961 36.6774L20.3641 36.6979C19.491 37.2653 18.4561 37.3491 17.4551 37.43L17.3615 37.4374C13.1146 37.7829 9.60917 36.3077 6.9462 33.0535C5.60938 31.4194 5.01964 29.6153 5.19319 27.6906L5.2029 27.5833L5.00118 27.5819Z" class="Vector"/>
          <path id="Vector_3" d="M13.1807 8.84916C13.3701 8.84475 13.5547 8.78787 13.7137 8.68487C14.0808 8.45593 14.4303 8.19975 14.7591 7.91849C17.3213 5.76666 20.2414 4.60437 23.4407 4.46308C23.576 4.46402 23.711 4.47916 23.8432 4.50825L23.8735 4.51366C23.7876 4.56675 23.7049 4.61731 23.6247 4.66616C23.3185 4.85281 23.054 5.01364 22.8046 5.20264C22.3835 5.51999 22.0955 5.94699 22.071 6.29022C22.0628 6.35866 22.0697 6.42805 22.0913 6.49355C22.1128 6.55902 22.1485 6.61896 22.1957 6.66914C22.5614 7.03843 23.1042 7.09019 23.6849 6.81125L23.9912 6.66434C24.9688 6.22487 25.9137 5.71581 26.8185 5.14105C27.3438 4.78875 27.6216 4.37255 27.6221 3.93722C27.6221 3.47202 27.3115 3.01646 26.7222 2.61956C25.8016 1.9997 24.8223 1.33041 23.5469 0.449568C23.2667 0.256527 22.8438 -0.0357348 22.4523 0.388182C22.1608 0.703803 22.198 1.07639 22.5631 1.49548C22.8174 1.78697 23.0888 2.06862 23.376 2.36706C23.4743 2.46899 23.5752 2.57379 23.6789 2.68266C23.6717 2.68614 23.6644 2.68917 23.6571 2.69174C23.5281 2.70042 23.3988 2.70872 23.2695 2.70872H23.2683C19.831 2.70872 16.647 3.92834 13.533 6.43693C13.1787 6.74255 12.8594 7.08669 12.5811 7.46293C12.2821 7.84225 12.2856 8.26175 12.5908 8.5849C12.6653 8.66766 12.7562 8.73393 12.8578 8.77943C12.9594 8.82493 13.0694 8.84869 13.1807 8.84916Z" class="Vector"/>
        </g>
      </g>
    </g>
  </g>
</svg>