<svg xmlns="http://www.w3.org/2000/svg" width="42" height="42" fill="none" viewBox="0 0 42 42">
  <rect width="40" height="40" x="1" y="1" stroke="#fff" stroke-width="2" rx="7"/>
  <path fill="#fff" fill-rule="evenodd" d="M12.327 19.888c5.183-2.258 8.639-3.747 10.368-4.466 4.937-2.053 5.963-2.41 6.631-2.422.148-.002.476.034.69.207.315.256.317.813.282 1.181-.268 2.811-1.425 9.633-2.014 12.781-.25 1.333-.74 1.78-1.215 1.823-1.032.095-1.816-.682-2.816-1.338-1.565-1.025-2.449-1.664-3.968-2.665-1.755-1.156-.617-1.792.383-2.831.262-.272 4.81-4.41 4.899-4.785.01-.047.02-.222-.083-.314-.104-.092-.257-.06-.368-.036-.157.036-2.657 1.688-7.499 4.957-.71.487-1.352.724-1.928.712-.634-.014-1.855-.359-2.763-.654-1.114-.362-1.998-.553-1.921-1.168.04-.32.48-.647 1.322-.982Z" clip-rule="evenodd"/>
</svg>