<svg xmlns="http://www.w3.org/2000/svg" width="26" height="26" fill="none" viewBox="0 0 26 26">
  <circle cx="13" cy="13" r="13" fill="#071C49"/>
  <path fill="#fff" fill-rule="evenodd" d="M16.5 9.5a3.5 3.5 0 1 1-7 0 3.5 3.5 0 0 1 7 0Zm-9.404 9.97a.67.67 0 0 0 .668.53h10.472a.67.67 0 0 0 .668-.53c.064-.336.096-.675.096-1.006 0-1.657-.762-3.227-2.091-4.309a.708.708 0 0 0-.892.006 4.79 4.79 0 0 1-3.069 1.099 4.796 4.796 0 0 1-3.024-1.062.709.709 0 0 0-.892.005C7.742 15.283 7 16.835 7 18.463c0 .332.033.671.096 1.008Z" clip-rule="evenodd"/>
</svg>