<svg xmlns="http://www.w3.org/2000/svg" width="20" height="20" fill="none" viewBox="0 0 20 20">
  <path fill="#fff" d="M5.95 15.963a1 1 0 1 1 1.414 1.414L5.243 19.5a1 1 0 0 1-1.664-.416l-.67-2.2-2.2-.67a1 1 0 0 1-.416-1.664l1.257-1.257a1 1 0 0 1 1.414 1.414l-.078.079 1.116.34a1 1 0 0 1 .665.665l.34 1.116.943-.943Zm8.093.001a1 1 0 0 0-1.415 1.414L14.75 19.5a1 1 0 0 0 1.663-.416l.67-2.2 2.2-.67a1 1 0 0 0 .416-1.664l-1.257-1.257a1 1 0 0 0-1.414 1.414l.079.079-1.116.34a1 1 0 0 0-.666.665l-.34 1.116-.942-.943Z"/>
  <path fill="#fff" fill-rule="evenodd" d="M9.351.239a1 1 0 0 1 1.298 0l1.896 1.616 2.484.198a1 1 0 0 1 .918.918l.198 2.484L17.76 7.35a1 1 0 0 1 0 1.298l-1.616 1.896-.198 2.484a1 1 0 0 1-.918.918l-2.484.198-1.896 1.616a1 1 0 0 1-1.298 0l-1.896-1.616-2.484-.198a1 1 0 0 1-.918-.918l-.198-2.484L2.24 8.65a1 1 0 0 1 0-1.298l1.616-1.896.198-2.484a1 1 0 0 1 .918-.918l2.484-.198L9.35.24ZM10 2.314 8.506 3.587a1 1 0 0 1-.57.236L5.98 3.98l-.156 1.958a1 1 0 0 1-.236.569L4.314 8l1.273 1.494a1 1 0 0 1 .236.57l.156 1.957 1.958.156a1 1 0 0 1 .569.236L10 13.686l1.494-1.273a1 1 0 0 1 .57-.236l1.957-.156.156-1.958a1 1 0 0 1 .236-.569L15.686 8l-1.273-1.494a1 1 0 0 1-.236-.57L14.02 3.98l-1.958-.156a1 1 0 0 1-.569-.236L10 2.314Z" clip-rule="evenodd"/>
</svg>