<svg xmlns="http://www.w3.org/2000/svg" width="42" height="42" fill="none" viewBox="0 0 42 42">
  <rect width="40" height="40" x="1" y="1" stroke="#fff" stroke-width="2" rx="7"/>
  <path fill="#fff" d="M29.527 16.849a2.114 2.114 0 0 0-1.487-1.488C26.72 15 21.437 15 21.437 15s-5.282 0-6.602.348a2.157 2.157 0 0 0-1.488 1.5C13 18.17 13 20.909 13 20.909s0 2.752.348 4.058a2.114 2.114 0 0 0 1.487 1.488c1.334.361 6.602.361 6.602.361s5.282 0 6.603-.348a2.114 2.114 0 0 0 1.488-1.487c.347-1.32.347-4.058.347-4.058s.014-2.753-.348-4.073Zm-9.771 6.588v-5.06l4.392 2.53-4.392 2.53Z"/>
</svg>