<svg width="40" height="40" viewBox="0 0 40 40" fill="none" xmlns="http://www.w3.org/2000/svg">
  <g id="Frame" opacity="0.3" class="Frame">
    <g id="Group" class="Group">
      <g id="Layer 2" class="Layer 2" fill="#092562">
        <path id="Vector" d="M20.6499 10.6875H10.6499C10.3184 10.6875 10.0004 10.8192 9.76602 11.0536C9.5316 11.288 9.3999 11.606 9.3999 11.9375C9.3999 12.269 9.5316 12.587 9.76602 12.8214C10.0004 13.0558 10.3184 13.1875 10.6499 13.1875H20.6499C20.9814 13.1875 21.2994 13.0558 21.5338 12.8214C21.7682 12.587 21.8999 12.269 21.8999 11.9375C21.8999 11.606 21.7682 11.288 21.5338 11.0536C21.2994 10.8192 20.9814 10.6875 20.6499 10.6875ZM20.6499 17.375H10.6499C10.3184 17.375 10.0004 17.5067 9.76602 17.7411C9.5316 17.9755 9.3999 18.2935 9.3999 18.625C9.3999 18.9565 9.5316 19.2745 9.76602 19.5089C10.0004 19.7433 10.3184 19.875 10.6499 19.875H20.6499C20.9814 19.875 21.2994 19.7433 21.5338 19.5089C21.7682 19.2745 21.8999 18.9565 21.8999 18.625C21.8999 18.2935 21.7682 17.9755 21.5338 17.7411C21.2994 17.5067 20.9814 17.375 20.6499 17.375ZM20.6499 24.2125H10.6499C10.3184 24.2125 10.0004 24.3442 9.76602 24.5786C9.5316 24.813 9.3999 25.131 9.3999 25.4625C9.3999 25.794 9.5316 26.112 9.76602 26.3464C10.0004 26.5808 10.3184 26.7125 10.6499 26.7125H20.6499C20.9814 26.7125 21.2994 26.5808 21.5338 26.3464C21.7682 26.112 21.8999 25.794 21.8999 25.4625C21.8999 25.131 21.7682 24.813 21.5338 24.5786C21.2994 24.3442 20.9814 24.2125 20.6499 24.2125Z" class="Vector"/>
        <path id="Vector_2" d="M32.3374 1.25H7.66237C7.02112 1.25164 6.38649 1.37977 5.79484 1.62706C5.20318 1.87435 4.66613 2.23593 4.21444 2.69111C3.76275 3.14628 3.4053 3.68609 3.16257 4.27963C2.91983 4.87316 2.79658 5.50876 2.79987 6.15V36.6375C2.79905 36.9504 2.88152 37.2578 3.03881 37.5282C3.1961 37.7987 3.42254 38.0224 3.69488 38.1763C3.96721 38.3303 4.27562 38.409 4.58844 38.4044C4.90126 38.3998 5.20721 38.312 5.47487 38.15L10.0749 35.3875C10.1443 35.3443 10.2244 35.3214 10.3061 35.3214C10.3879 35.3214 10.468 35.3443 10.5374 35.3875L15.6499 38.45C15.9188 38.6214 16.231 38.7124 16.5499 38.7125C16.8707 38.7108 17.1855 38.6246 17.4624 38.4625L22.5999 35.3875C22.6693 35.3443 22.7494 35.3214 22.8311 35.3214C22.9129 35.3214 22.993 35.3443 23.0624 35.3875L27.6374 38.15C27.9059 38.3096 28.2125 38.3938 28.5249 38.3938C28.8372 38.3938 29.1438 38.3096 29.4124 38.15C29.6813 37.9962 29.9049 37.7743 30.0607 37.5066C30.2165 37.2388 30.299 36.9348 30.2999 36.625V15.55H34.2249C35.0129 15.5467 35.7677 15.2322 36.3249 14.675C36.8821 14.1178 37.1966 13.363 37.1999 12.575V6.15C37.2032 5.50876 37.0799 4.87316 36.8372 4.27963C36.5944 3.68609 36.237 3.14628 35.7853 2.69111C35.3336 2.23593 34.7966 1.87435 34.2049 1.62706C33.6133 1.37977 32.9786 1.25164 32.3374 1.25ZM27.7999 35.325L24.3499 33.25C23.8903 32.9771 23.3656 32.8331 22.8311 32.8331C22.2966 32.8331 21.772 32.9771 21.3124 33.25L16.5624 36.1L11.8249 33.2375C11.3598 32.9593 10.8276 32.8134 10.2856 32.8156C9.7437 32.8179 9.21267 32.968 8.74987 33.25L5.29987 35.3375V6.15C5.29489 5.83661 5.35233 5.52536 5.46883 5.23439C5.58532 4.94342 5.75855 4.67853 5.97843 4.45517C6.19831 4.2318 6.46043 4.05442 6.74953 3.93335C7.03864 3.81229 7.34894 3.74996 7.66237 3.75H28.3124C27.9823 4.37887 27.8066 5.07729 27.7999 5.7875V35.2875V35.325ZM34.6999 12.575C34.6999 12.701 34.6498 12.8218 34.5607 12.9109C34.4717 13 34.3508 13.05 34.2249 13.05H30.2999V5.825C30.2949 5.55429 30.3439 5.28531 30.4441 5.03376C30.5442 4.78222 30.6935 4.55316 30.8832 4.35997C31.0729 4.16678 31.2992 4.01333 31.5489 3.9086C31.7986 3.80387 32.0666 3.74995 32.3374 3.75C32.9639 3.75 33.5649 3.99891 34.0079 4.44196C34.451 4.88501 34.6999 5.48593 34.6999 6.1125V12.575Z" class="Vector"/>
      </g>
    </g>
  </g>
</svg>