<svg width="198" height="112" viewBox="0 0 198 112" fill="none" xmlns="http://www.w3.org/2000/svg">
<path d="M126.5 21.0251C123.568 20.0633 120.406 20.0633 117.475 21.0251C115.755 17.7804 113.176 15.0718 110.019 13.1962C106.862 11.3205 103.25 10.3501 99.578 10.3914C95.9062 10.4327 92.3166 11.4841 89.2027 13.4304C86.0889 15.3766 83.5709 18.1426 81.9249 21.4251C79.2676 20.2991 76.3383 19.9775 73.4999 20.5001C70.9168 20.9771 68.5042 22.1242 66.5035 23.8265C64.5029 25.5288 62.9844 27.7266 62.0999 30.2001C60.9696 33.4513 60.9801 36.9906 62.1298 40.2351C63.2794 43.4796 65.4997 46.2359 68.4249 48.0501C70.8603 49.5184 73.6563 50.2802 76.4999 50.2501H84.5999C85.263 50.2501 85.8988 49.9867 86.3677 49.5178C86.8365 49.049 87.0999 48.4131 87.0999 47.7501C87.0999 47.087 86.8365 46.4511 86.3677 45.9823C85.8988 45.5134 85.263 45.2501 84.5999 45.2501H76.4999C73.8368 45.2868 71.2605 44.3028 69.2999 42.5001C68.0692 41.3081 67.1653 39.82 66.675 38.1784C66.1847 36.5368 66.1244 34.7967 66.4999 33.1251C66.8303 31.6135 67.5069 30.1993 68.4765 28.9936C69.4461 27.7879 70.6822 26.8236 72.0877 26.1766C73.4931 25.5296 75.0295 25.2176 76.576 25.265C78.1224 25.3125 79.6368 25.7181 80.9999 26.4501C81.4281 26.6734 81.8975 26.8064 82.3792 26.8408C82.8608 26.8752 83.3444 26.8103 83.7999 26.6501C84.2967 26.4715 84.7451 26.1798 85.1096 25.798C85.4741 25.4161 85.7447 24.9546 85.8999 24.4501C86.4044 22.5263 87.455 20.7897 88.9249 19.4501C98.1499 11.7251 109.65 15.5251 113.475 24.3001C113.654 24.7117 113.913 25.0837 114.236 25.3948C114.56 25.7059 114.942 25.9498 115.36 26.1125C115.779 26.2752 116.225 26.3535 116.674 26.3427C117.123 26.332 117.565 26.2325 117.975 26.0501C120.157 25.1203 122.606 25.0312 124.85 25.8001C126.478 26.3519 127.937 27.3144 129.085 28.5945C130.233 29.8746 131.032 31.4291 131.404 33.1079C131.776 34.7867 131.708 36.533 131.209 38.1782C130.709 39.8235 129.793 41.312 128.55 42.5001C126.627 44.2674 124.111 45.2488 121.5 45.2501H113.3C112.637 45.2501 112.001 45.5134 111.532 45.9823C111.063 46.4511 110.8 47.087 110.8 47.7501C110.8 48.4131 111.063 49.049 111.532 49.5178C112.001 49.9867 112.637 50.2501 113.3 50.2501H121.5C123.699 50.2809 125.878 49.8277 127.882 48.9228C129.887 48.0178 131.668 46.6832 133.099 45.0134C134.53 43.3436 135.577 41.3795 136.164 39.2603C136.752 37.1411 136.867 34.9185 136.5 32.7501C136.034 30.0798 134.861 27.5834 133.102 25.5211C131.343 23.4588 129.063 21.9062 126.5 21.0251Z" fill="#CED3E0"/>
<path d="M99 67.2501C99.6631 67.2501 100.299 66.9867 100.768 66.5179C101.237 66.049 101.5 65.4131 101.5 64.7501V34.7501L106.5 40.1501C106.951 40.6374 107.577 40.9257 108.24 40.9515C108.904 40.9773 109.55 40.7385 110.038 40.2876C110.525 39.8367 110.813 39.2107 110.839 38.5473C110.865 37.8839 110.626 37.2374 110.175 36.7501L101.4 27.2001C101.105 26.869 100.742 26.6042 100.337 26.4228C99.9325 26.2415 99.4938 26.1477 99.05 26.1477C98.6063 26.1477 98.1676 26.2415 97.7626 26.4228C97.3576 26.6042 96.9955 26.869 96.7 27.2001L87.925 36.7501C87.6438 36.9713 87.4133 37.2504 87.2492 37.5684C87.085 37.8863 86.9911 38.2358 86.9737 38.5933C86.9562 38.9507 87.0157 39.3077 87.1482 39.6401C87.2806 39.9725 87.4828 40.2727 87.7412 40.5202C87.9996 40.7678 88.3081 40.957 88.6459 41.075C88.9837 41.1931 89.343 41.2372 89.6993 41.2045C90.0556 41.1718 90.4008 41.063 90.7115 40.8854C91.0221 40.7078 91.291 40.4656 91.5 40.1751L96.5 34.7751V64.7751C96.5066 65.4338 96.7729 66.0633 97.241 66.5267C97.7092 66.9902 98.3413 67.2501 99 67.2501Z" fill="#CED3E0"/>
<path d="M1.2 105.32L1.74 104.26C2.35333 104.793 3.04 105.193 3.8 105.46C4.57333 105.713 5.34667 105.847 6.12 105.86C6.89333 105.86 7.6 105.747 8.24 105.52C8.89333 105.293 9.42 104.96 9.82 104.52C10.22 104.067 10.42 103.52 10.42 102.88C10.42 102.067 10.0933 101.44 9.44 101C8.8 100.56 7.90667 100.34 6.76 100.34H3.76V99.14H6.68C7.66667 99.14 8.43333 98.9333 8.98 98.52C9.54 98.0933 9.82 97.5067 9.82 96.76C9.82 96.2267 9.66 95.7733 9.34 95.4C9.03333 95.0133 8.60667 94.72 8.06 94.52C7.52667 94.3067 6.92667 94.1933 6.26 94.18C5.59333 94.1533 4.9 94.24 4.18 94.44C3.47333 94.6267 2.78667 94.9267 2.12 95.34L1.64 94.12C2.46667 93.6267 3.32667 93.2867 4.22 93.1C5.11333 92.9 5.98 92.8333 6.82 92.9C7.66 92.9667 8.41333 93.16 9.08 93.48C9.76 93.8 10.3 94.22 10.7 94.74C11.1 95.26 11.3 95.88 11.3 96.6C11.3 97.2667 11.1267 97.8533 10.78 98.36C10.4467 98.8667 9.97333 99.26 9.36 99.54C8.76 99.8067 8.04667 99.94 7.22 99.94L7.3 99.5C8.23333 99.5 9.04 99.6467 9.72 99.94C10.4133 100.233 10.9467 100.653 11.32 101.2C11.7067 101.733 11.9 102.36 11.9 103.08C11.9 103.76 11.7267 104.367 11.38 104.9C11.0467 105.42 10.58 105.86 9.98 106.22C9.39333 106.567 8.73333 106.82 8 106.98C7.26667 107.127 6.5 107.167 5.7 107.1C4.9 107.033 4.11333 106.86 3.34 106.58C2.56667 106.287 1.85333 105.867 1.2 105.32ZM20.9548 107V104.68L20.8948 104.3V100.42C20.8948 99.5267 20.6415 98.84 20.1348 98.36C19.6415 97.88 18.9015 97.64 17.9148 97.64C17.2348 97.64 16.5882 97.7533 15.9748 97.98C15.3615 98.2067 14.8415 98.5067 14.4148 98.88L13.7748 97.82C14.3082 97.3667 14.9482 97.02 15.6948 96.78C16.4415 96.5267 17.2282 96.4 18.0548 96.4C19.4148 96.4 20.4615 96.74 21.1948 97.42C21.9415 98.0867 22.3148 99.1067 22.3148 100.48V107H20.9548ZM17.3348 107.1C16.5482 107.1 15.8615 106.973 15.2748 106.72C14.7015 106.453 14.2615 106.093 13.9548 105.64C13.6482 105.173 13.4948 104.64 13.4948 104.04C13.4948 103.493 13.6215 103 13.8748 102.56C14.1415 102.107 14.5682 101.747 15.1548 101.48C15.7548 101.2 16.5548 101.06 17.5548 101.06H21.1748V102.12H17.5948C16.5815 102.12 15.8748 102.3 15.4748 102.66C15.0882 103.02 14.8948 103.467 14.8948 104C14.8948 104.6 15.1282 105.08 15.5948 105.44C16.0615 105.8 16.7148 105.98 17.5548 105.98C18.3548 105.98 19.0415 105.8 19.6148 105.44C20.2015 105.067 20.6282 104.533 20.8948 103.84L21.2148 104.82C20.9482 105.513 20.4815 106.067 19.8148 106.48C19.1615 106.893 18.3348 107.1 17.3348 107.1ZM25.295 107V96.5H32.735V97.74H26.355L26.715 97.38V107H25.295ZM39.4072 107.1C38.5005 107.1 37.6805 106.893 36.9472 106.48C36.2139 106.053 35.6272 105.447 35.1872 104.66C34.7605 103.86 34.5472 102.887 34.5472 101.74C34.5472 100.593 34.7605 99.6267 35.1872 98.84C35.6139 98.04 36.1939 97.4333 36.9272 97.02C37.6605 96.6067 38.4872 96.4 39.4072 96.4C40.4072 96.4 41.3005 96.6267 42.0872 97.08C42.8872 97.52 43.5139 98.1467 43.9672 98.96C44.4205 99.76 44.6472 100.687 44.6472 101.74C44.6472 102.807 44.4205 103.74 43.9672 104.54C43.5139 105.34 42.8872 105.967 42.0872 106.42C41.3005 106.873 40.4072 107.1 39.4072 107.1ZM33.9872 110.88V96.5H35.3472V99.66L35.2072 101.76L35.4072 103.88V110.88H33.9872ZM39.3072 105.84C40.0539 105.84 40.7205 105.673 41.3072 105.34C41.8939 104.993 42.3605 104.513 42.7072 103.9C43.0539 103.273 43.2272 102.553 43.2272 101.74C43.2272 100.927 43.0539 100.213 42.7072 99.6C42.3605 98.9867 41.8939 98.5067 41.3072 98.16C40.7205 97.8133 40.0539 97.64 39.3072 97.64C38.5605 97.64 37.8872 97.8133 37.2872 98.16C36.7005 98.5067 36.2339 98.9867 35.8872 99.6C35.5539 100.213 35.3872 100.927 35.3872 101.74C35.3872 102.553 35.5539 103.273 35.8872 103.9C36.2339 104.513 36.7005 104.993 37.2872 105.34C37.8872 105.673 38.5605 105.84 39.3072 105.84ZM46.7852 110.98C46.2918 110.98 45.8185 110.9 45.3652 110.74C44.9252 110.58 44.5452 110.34 44.2252 110.02L44.8852 108.96C45.1518 109.213 45.4385 109.407 45.7452 109.54C46.0652 109.687 46.4185 109.76 46.8052 109.76C47.2718 109.76 47.6718 109.627 48.0052 109.36C48.3518 109.107 48.6785 108.653 48.9852 108L49.6652 106.46L49.8252 106.24L54.1452 96.5H55.5452L50.2852 108.26C49.9918 108.94 49.6652 109.48 49.3052 109.88C48.9585 110.28 48.5785 110.56 48.1652 110.72C47.7518 110.893 47.2918 110.98 46.7852 110.98ZM49.5852 107.3L44.7452 96.5H46.2252L50.5052 106.14L49.5852 107.3ZM59.5041 107.12C58.7441 107.12 57.9907 107.013 57.2441 106.8C56.4974 106.587 55.8374 106.26 55.2641 105.82L55.7241 104.76C56.2307 105.133 56.8174 105.42 57.4841 105.62C58.1507 105.807 58.8107 105.9 59.4641 105.9C60.1174 105.887 60.6841 105.793 61.1641 105.62C61.6441 105.447 62.0174 105.207 62.2841 104.9C62.5507 104.593 62.6841 104.247 62.6841 103.86C62.6841 103.3 62.4307 102.867 61.9241 102.56C61.4174 102.24 60.7241 102.08 59.8441 102.08H58.0441V101.04H59.7441C60.2641 101.04 60.7241 100.973 61.1241 100.84C61.5241 100.707 61.8307 100.513 62.0441 100.26C62.2707 100.007 62.3841 99.7067 62.3841 99.36C62.3841 98.9867 62.2507 98.6667 61.9841 98.4C61.7307 98.1333 61.3774 97.9333 60.9241 97.8C60.4707 97.6667 59.9574 97.6 59.3841 97.6C58.8641 97.6133 58.3241 97.6933 57.7641 97.84C57.2041 97.9733 56.6507 98.18 56.1041 98.46L55.7041 97.36C56.3174 97.04 56.9241 96.8 57.5241 96.64C58.1374 96.4667 58.7507 96.38 59.3641 96.38C60.2041 96.3533 60.9574 96.4533 61.6241 96.68C62.3041 96.9067 62.8441 97.2333 63.2441 97.66C63.6441 98.0733 63.8441 98.5733 63.8441 99.16C63.8441 99.68 63.6841 100.133 63.3641 100.52C63.0441 100.907 62.6174 101.207 62.0841 101.42C61.5507 101.633 60.9441 101.74 60.2641 101.74L60.3241 101.36C61.5241 101.36 62.4574 101.593 63.1241 102.06C63.8041 102.527 64.1441 103.16 64.1441 103.96C64.1441 104.587 63.9374 105.14 63.5241 105.62C63.1107 106.087 62.5507 106.453 61.8441 106.72C61.1507 106.987 60.3707 107.12 59.5041 107.12ZM66.5677 107V96.5H67.9877V104.84L75.0077 96.5H76.2677V107H74.8477V98.64L67.8477 107H66.5677ZM81.5372 107V97.36L81.8972 97.74H77.5572V96.5H86.9372V97.74H82.5972L82.9572 97.36V107H81.5372ZM92.7103 100.2C94.0303 100.213 95.0303 100.507 95.7103 101.08C96.4036 101.653 96.7503 102.48 96.7503 103.56C96.7503 104.68 96.377 105.54 95.6303 106.14C94.897 106.74 93.8303 107.033 92.4303 107.02L88.1903 107V96.5H89.6103V100.16L92.7103 100.2ZM92.3503 105.94C93.3236 105.953 94.057 105.76 94.5503 105.36C95.057 104.947 95.3103 104.347 95.3103 103.56C95.3103 102.773 95.0636 102.2 94.5703 101.84C94.077 101.467 93.337 101.273 92.3503 101.26L89.6103 101.22V105.9L92.3503 105.94ZM108.994 107.12C108.994 107.12 108.968 107.12 108.914 107.12C108.861 107.12 108.808 107.12 108.754 107.12C108.714 107.12 108.681 107.12 108.654 107.12C106.574 107.107 104.954 106.633 103.794 105.7C102.634 104.767 102.054 103.44 102.054 101.72C102.054 100.027 102.634 98.72 103.794 97.8C104.968 96.8667 106.614 96.3933 108.734 96.38C108.748 96.38 108.774 96.38 108.814 96.38C108.868 96.38 108.914 96.38 108.954 96.38C108.994 96.38 109.021 96.38 109.034 96.38C111.168 96.3933 112.828 96.8667 114.014 97.8C115.201 98.72 115.794 100.027 115.794 101.72C115.794 103.453 115.194 104.787 113.994 105.72C112.808 106.653 111.141 107.12 108.994 107.12ZM108.974 105.88C110.161 105.88 111.154 105.72 111.954 105.4C112.754 105.067 113.361 104.593 113.774 103.98C114.188 103.367 114.394 102.613 114.394 101.72C114.394 100.853 114.188 100.12 113.774 99.52C113.361 98.9067 112.754 98.44 111.954 98.12C111.154 97.8 110.161 97.64 108.974 97.64C108.961 97.64 108.921 97.64 108.854 97.64C108.801 97.64 108.768 97.64 108.754 97.64C107.594 97.64 106.621 97.8067 105.834 98.14C105.048 98.46 104.454 98.92 104.054 99.52C103.654 100.12 103.454 100.853 103.454 101.72C103.454 102.6 103.654 103.347 104.054 103.96C104.468 104.573 105.068 105.047 105.854 105.38C106.641 105.7 107.608 105.867 108.754 105.88C108.781 105.88 108.821 105.88 108.874 105.88C108.928 105.88 108.961 105.88 108.974 105.88ZM108.214 110.88V92.16H109.594V110.88H108.214ZM122.317 107.1C121.304 107.1 120.391 106.873 119.577 106.42C118.777 105.953 118.144 105.32 117.677 104.52C117.211 103.707 116.977 102.78 116.977 101.74C116.977 100.687 117.211 99.76 117.677 98.96C118.144 98.16 118.777 97.5333 119.577 97.08C120.377 96.6267 121.291 96.4 122.317 96.4C123.357 96.4 124.277 96.6267 125.077 97.08C125.891 97.5333 126.524 98.16 126.977 98.96C127.444 99.76 127.677 100.687 127.677 101.74C127.677 102.78 127.444 103.707 126.977 104.52C126.524 105.32 125.891 105.953 125.077 106.42C124.264 106.873 123.344 107.1 122.317 107.1ZM122.317 105.84C123.077 105.84 123.751 105.673 124.337 105.34C124.924 104.993 125.384 104.513 125.717 103.9C126.064 103.273 126.237 102.553 126.237 101.74C126.237 100.913 126.064 100.193 125.717 99.58C125.384 98.9667 124.924 98.4933 124.337 98.16C123.751 97.8133 123.084 97.64 122.337 97.64C121.591 97.64 120.924 97.8133 120.337 98.16C119.751 98.4933 119.284 98.9667 118.937 99.58C118.591 100.193 118.417 100.913 118.417 101.74C118.417 102.553 118.591 103.273 118.937 103.9C119.284 104.513 119.751 104.993 120.337 105.34C120.924 105.673 121.584 105.84 122.317 105.84ZM131.522 107V97.36L131.882 97.74H127.542V96.5H136.922V97.74H132.582L132.942 97.36V107H131.522ZM142.006 107.1C140.993 107.1 140.08 106.873 139.266 106.42C138.466 105.953 137.833 105.32 137.366 104.52C136.9 103.707 136.666 102.78 136.666 101.74C136.666 100.687 136.9 99.76 137.366 98.96C137.833 98.16 138.466 97.5333 139.266 97.08C140.066 96.6267 140.98 96.4 142.006 96.4C143.046 96.4 143.966 96.6267 144.766 97.08C145.58 97.5333 146.213 98.16 146.666 98.96C147.133 99.76 147.366 100.687 147.366 101.74C147.366 102.78 147.133 103.707 146.666 104.52C146.213 105.32 145.58 105.953 144.766 106.42C143.953 106.873 143.033 107.1 142.006 107.1ZM142.006 105.84C142.766 105.84 143.44 105.673 144.026 105.34C144.613 104.993 145.073 104.513 145.406 103.9C145.753 103.273 145.926 102.553 145.926 101.74C145.926 100.913 145.753 100.193 145.406 99.58C145.073 98.9667 144.613 98.4933 144.026 98.16C143.44 97.8133 142.773 97.64 142.026 97.64C141.28 97.64 140.613 97.8133 140.026 98.16C139.44 98.4933 138.973 98.9667 138.626 99.58C138.28 100.193 138.106 100.913 138.106 101.74C138.106 102.553 138.28 103.273 138.626 103.9C138.973 104.513 139.44 104.993 140.026 105.34C140.613 105.673 141.273 105.84 142.006 105.84ZM160.676 102.56C160.062 102.827 159.442 103.04 158.816 103.2C158.202 103.347 157.589 103.42 156.976 103.42C155.736 103.42 154.756 103.14 154.036 102.58C153.316 102.007 152.956 101.127 152.956 99.94V96.5H154.356V99.86C154.356 100.66 154.616 101.26 155.136 101.66C155.656 102.06 156.356 102.26 157.236 102.26C157.769 102.26 158.329 102.193 158.916 102.06C159.502 101.913 160.096 101.707 160.696 101.44L160.676 102.56ZM160.556 107V96.5H161.976V107H160.556ZM169.708 107.1C168.615 107.1 167.655 106.873 166.828 106.42C166.002 105.953 165.355 105.32 164.888 104.52C164.422 103.707 164.188 102.78 164.188 101.74C164.188 100.7 164.408 99.78 164.848 98.98C165.302 98.18 165.915 97.5533 166.688 97.1C167.475 96.6333 168.355 96.4 169.328 96.4C170.315 96.4 171.188 96.6267 171.948 97.08C172.722 97.52 173.328 98.1467 173.768 98.96C174.208 99.76 174.428 100.687 174.428 101.74C174.428 101.807 174.422 101.88 174.408 101.96C174.408 102.027 174.408 102.1 174.408 102.18H165.268V101.12H173.648L173.088 101.54C173.088 100.78 172.922 100.107 172.588 99.52C172.268 98.92 171.828 98.4533 171.268 98.12C170.708 97.7867 170.062 97.62 169.328 97.62C168.608 97.62 167.962 97.7867 167.388 98.12C166.815 98.4533 166.368 98.92 166.048 99.52C165.728 100.12 165.568 100.807 165.568 101.58V101.8C165.568 102.6 165.742 103.307 166.088 103.92C166.448 104.52 166.942 104.993 167.568 105.34C168.208 105.673 168.935 105.84 169.748 105.84C170.388 105.84 170.982 105.727 171.528 105.5C172.088 105.273 172.568 104.927 172.968 104.46L173.768 105.38C173.302 105.94 172.715 106.367 172.008 106.66C171.315 106.953 170.548 107.1 169.708 107.1ZM184.472 107L180.152 101.8L181.332 101.1L186.152 107H184.472ZM176.772 107V96.5H178.192V107H176.772ZM177.752 102.32V101.1H181.132V102.32H177.752ZM181.452 101.9L180.132 101.7L184.312 96.5H185.852L181.452 101.9ZM193.917 107V104.68L193.857 104.3V100.42C193.857 99.5267 193.604 98.84 193.097 98.36C192.604 97.88 191.864 97.64 190.877 97.64C190.197 97.64 189.551 97.7533 188.937 97.98C188.324 98.2067 187.804 98.5067 187.377 98.88L186.737 97.82C187.271 97.3667 187.911 97.02 188.657 96.78C189.404 96.5267 190.191 96.4 191.017 96.4C192.377 96.4 193.424 96.74 194.157 97.42C194.904 98.0867 195.277 99.1067 195.277 100.48V107H193.917ZM190.297 107.1C189.511 107.1 188.824 106.973 188.237 106.72C187.664 106.453 187.224 106.093 186.917 105.64C186.611 105.173 186.457 104.64 186.457 104.04C186.457 103.493 186.584 103 186.837 102.56C187.104 102.107 187.531 101.747 188.117 101.48C188.717 101.2 189.517 101.06 190.517 101.06H194.137V102.12H190.557C189.544 102.12 188.837 102.3 188.437 102.66C188.051 103.02 187.857 103.467 187.857 104C187.857 104.6 188.091 105.08 188.557 105.44C189.024 105.8 189.677 105.98 190.517 105.98C191.317 105.98 192.004 105.8 192.577 105.44C193.164 105.067 193.591 104.533 193.857 103.84L194.177 104.82C193.911 105.513 193.444 106.067 192.777 106.48C192.124 106.893 191.297 107.1 190.297 107.1Z" fill="#092562"/>
</svg>
