<svg xmlns="http://www.w3.org/2000/svg" width="18" height="16" fill="none" viewBox="0 0 18 16">
  <path stroke="#071C49" stroke-width="1.12" d="m9.105 14.664-.103.06a31.804 31.804 0 0 1-1.106-.68 32.582 32.582 0 0 1-3.04-2.202C3.75 10.932 2.664 9.89 1.858 8.79 1.048 7.685.56 6.577.56 5.528a4.336 4.336 0 0 1 4.336-4.336H4.9a4.288 4.288 0 0 1 3.63 1.953l.467.72.471-.718a4.336 4.336 0 0 1 3.634-1.955A4.36 4.36 0 0 1 17.44 5.53c0 1.067-.49 2.184-1.298 3.29-.806 1.102-1.891 2.144-2.997 3.049a31.845 31.845 0 0 1-4.04 2.795Z"/>
</svg>