<svg xmlns="http://www.w3.org/2000/svg" width="20" height="20" fill="none" viewBox="0 0 20 20">
  <path fill="#D0D7DD" fill-rule="evenodd" d="m16.011 14.633 3.708 3.68a1 1 0 0 1 0 1.391 1 1 0 0 1-1.419 0l-3.678-3.68a8.99 8.99 0 0 1-12.326-1.015 9.006 9.006 0 0 1 .338-12.373 8.99 8.99 0 0 1 12.364-.338 9.006 9.006 0 0 1 1.013 12.335ZM2.02 9.023a6.993 6.993 0 0 0 11.943 4.95 7.004 7.004 0 0 0 2.048-4.95A6.999 6.999 0 0 0 9.016 2.02 6.998 6.998 0 0 0 2.02 9.022Z" clip-rule="evenodd" opacity=".45"/>
</svg>