<svg width="20" height="20" viewBox="0 0 20 20" fill="none" xmlns="http://www.w3.org/2000/svg">
  <g id="Download/ic_srv_download_active_20_dm_w" class="Download/ic_srv_download_active_20_dm_w" fill="#092562">
    <path id="Union" d="M3 14C3 13.4477 2.55228 13 2 13C1.44772 13 1 13.4477 1 14V17C1 18.6569 2.34315 20 4 20H16C17.6569 20 19 18.6569 19 17V14C19 13.4477 18.5523 13 18 13C17.4477 13 17 13.4477 17 14V17C17 17.5523 16.5523 18 16 18H4C3.44772 18 3 17.5523 3 17V14Z" class="Union"/>
    <path id="Union_2" d="M9.0001 13.8965C9.0001 14.4488 9.44781 14.8965 10.0001 14.8965C10.5524 14.8965 11.0001 14.4488 11.0001 13.8965L11.0001 4.31068L13.5859 6.89648C13.9764 7.28701 14.6096 7.28701 15.0001 6.89648C15.3906 6.50596 15.3906 5.8728 15.0001 5.48227L10.884 1.36613C10.3958 0.877979 9.60437 0.877979 9.11621 1.36613L5.00012 5.48227C4.6096 5.87279 4.6096 6.50596 5.00012 6.89648C5.39065 7.28701 6.02381 7.28701 6.41434 6.89648L9.0001 4.31068L9.0001 13.8965Z" class="Union"/>
  </g>
</svg>