<svg xmlns="http://www.w3.org/2000/svg" width="42" height="42" fill="none" viewBox="0 0 42 42">
  <rect width="40" height="40" x="1" y="1" stroke="#fff" stroke-width="2" rx="7"/>
  <g clip-path="url(#a)">
    <path fill="#fff" d="M26.936 21.771c-.29-.367-.207-.531 0-.86.004-.003 2.406-3.323 2.654-4.449h.001c.123-.41 0-.712-.595-.712H27.03c-.502 0-.732.259-.856.548 0 0-1.002 2.399-2.42 3.954-.457.449-.669.593-.919.593-.122 0-.314-.144-.314-.554v-3.83c0-.491-.14-.711-.555-.711h-3.094c-.314 0-.501.23-.501.443 0 .467.708.574.782 1.886v2.848c0 .624-.113.739-.364.739-.67 0-2.293-2.408-3.255-5.165-.195-.534-.384-.75-.89-.75h-1.968c-.562 0-.675.258-.675.548 0 .512.669 3.055 3.111 6.415 1.627 2.293 3.92 3.536 6.005 3.536 1.253 0 1.406-.276 1.406-.75 0-2.192-.113-2.4.514-2.4.291 0 .792.145 1.962 1.251 1.337 1.312 1.557 1.899 2.306 1.899h1.968c.56 0 .845-.276.681-.82-.374-1.146-2.903-3.502-3.017-3.659Z"/>
  </g>
  <defs>
    <clipPath id="a">
      <path fill="#fff" d="M12 12h18v18H12z"/>
    </clipPath>
  </defs>
</svg>