<svg width="16" height="16" viewBox="0 0 16 16" fill="none" xmlns="http://www.w3.org/2000/svg">
  <g id="Shar uspeha/16/ic_sts_wait_default_16_lm_w" class="Shar uspeha/16/ic_sts_wait_default_16_lm_w">
    <path id="Path Copy 2" d="M8 16C3.5888 16 0 12.412 0 8C0 3.588 3.5888 0 8 0C12.4112 0 16 3.588 16 8C16 12.412 12.4112 16 8 16Z" fill="#E9C4B0" class="Path Copy 2"/>
    <path id="Vector 165 (Stroke)" fill-rule="evenodd" clip-rule="evenodd" d="M8 3.17334C8.55228 3.17334 9 3.62106 9 4.17334V7.74544L10.4702 9.10336C10.8697 9.4847 10.8844 10.1177 10.5031 10.5172C10.1217 10.9167 9.48875 10.9314 9.08925 10.5501L7.30952 8.8967C7.11184 8.708 7 8.44662 7 8.17334V4.17334C7 3.62106 7.44772 3.17334 8 3.17334Z" fill="white" class="Vector 165 (Stroke)"/>
  </g>
</svg>