<svg width="521" height="105" viewBox="0 0 521 105" fill="none" xmlns="http://www.w3.org/2000/svg">
<path d="M32.7658 63.3766L23.5797 72.0952L23.5764 91.3191C23.5749 92.4061 23.7919 93.2367 24.2214 93.8157C24.654 94.3923 25.3901 94.8418 26.4307 95.1561L26.4298 96.8375L7.40863 96.8336L7.40945 95.1522C8.48103 94.8044 9.22438 94.3482 9.64193 93.7867C10.0592 93.228 10.2685 92.4064 10.2673 91.3191L10.2813 30.5998C10.2816 29.551 10.0732 28.7432 9.65819 28.1822C9.24019 27.6236 8.49921 27.1681 7.42712 26.8148L7.42794 25.1334L26.4491 25.1374L26.4483 26.8187C25.3774 27.1338 24.6322 27.5815 24.216 28.1568C23.7967 28.7346 23.591 29.5482 23.5907 30.5971L23.586 55.6922L48.6906 31.6018C49.8515 30.4801 50.4351 29.5882 50.4336 28.9226C50.4332 27.9066 49.5701 27.2055 47.8442 26.8194L47.845 25.138L72.7621 25.1433L72.7612 26.8246C71.7197 27.0688 70.9755 27.3496 70.529 27.6643C70.0799 27.9788 68.7859 29.1687 66.6418 31.2335L63.201 34.5921L42.4686 54.1699L65.9586 87.4382C68.1332 90.5222 69.7022 92.5103 70.6688 93.4003C71.6351 94.2929 72.8498 94.8802 74.3073 95.1615L74.3065 96.8429L50.4821 96.8371L50.483 95.1557C52.062 94.7734 52.8522 94.1058 52.8525 93.161C52.8519 92.6708 52.1387 91.3747 50.7075 89.2723L32.7664 63.3712L32.7658 63.3766Z" fill="#0E1134"/>
<path d="M125.389 78.5785L97.6842 78.5716L93.5802 88.6549C93.0146 90.0553 92.7319 91.1594 92.7325 91.9646C92.7326 93.5064 93.7271 94.5745 95.716 95.1689L95.7151 96.8502L75.5549 96.8448L75.5557 95.1634C76.7462 94.8828 77.6545 94.3946 78.2811 93.6935C78.9077 92.9923 79.6201 91.6292 80.4244 89.5966L102.853 34.5027C103.567 32.751 103.928 31.351 103.928 30.3022C103.93 28.6921 103.065 27.5335 101.339 26.8325L101.34 25.1511L122.952 25.1553L122.951 26.8366C121.196 27.4333 120.316 28.4639 120.318 29.9347C120.318 30.9507 120.6 32.1057 121.166 33.4L144.373 88.6644C145.354 91.0127 146.218 92.6149 146.964 93.4735C147.706 94.3317 148.704 94.899 149.953 95.1804L149.953 96.8618L127.514 96.856L127.515 95.1746C129.486 94.7922 130.473 93.7044 130.471 91.9187C130.472 91.1821 130.171 90.0991 129.58 88.6597L125.392 78.5733L125.389 78.5785ZM121.562 68.7546L111.684 43.2105L101.635 68.7488L121.562 68.7546Z" fill="#0E1134"/>
<path d="M209.44 59.3196C216.288 62.3672 219.709 68.0081 219.707 76.2344C219.706 82.782 217.709 87.9129 213.72 91.622C211.693 93.4774 209.348 94.8174 206.685 95.6394C204.019 96.4638 200.723 96.8744 196.793 96.8736L155.128 96.8643L155.129 95.1829C156.201 94.8351 156.944 94.3789 157.361 93.8174C157.779 93.2586 157.988 92.4371 157.987 91.3498L158.001 30.6825C158.002 29.5982 157.793 28.7739 157.378 28.2129C156.96 27.6543 156.219 27.1987 155.147 26.8455L155.147 25.1641L196.41 25.1724C200.37 25.1736 203.556 25.5265 205.967 26.2253C208.38 26.9271 210.493 28.1151 212.308 29.7976C215.908 33.1268 217.708 37.9243 217.707 44.1925C217.704 51.1973 214.95 56.238 209.441 59.3169L209.44 59.3196ZM171.305 53.6908L194.661 53.6969C198.204 53.6983 200.673 53.0833 202.072 51.8605C203.65 50.4622 204.439 48.2883 204.441 45.3473C204.441 42.3377 203.696 40.1921 202.209 38.9109C200.722 37.6323 198.207 36.9937 194.663 36.9923L171.307 36.9862L171.302 53.6905L171.305 53.6908ZM171.299 85.0488L193.893 85.0545C198.091 85.056 201.112 84.3755 202.959 83.008C205.073 81.433 206.129 78.8598 206.131 75.2862C206.131 71.7509 205.075 69.1757 202.963 67.566C201.148 66.1984 198.125 65.5149 193.897 65.513L171.302 65.5072L171.299 85.046L171.299 85.0488Z" fill="#0E1134"/>
<path d="M271.55 78.6102L243.845 78.6033L239.741 88.6866C239.176 90.087 238.893 91.1911 238.894 91.9963C238.894 93.5381 239.888 94.6062 241.877 95.2006L241.876 96.882L221.716 96.8765L221.717 95.1952C222.907 94.9146 223.816 94.4264 224.442 93.7252C225.069 93.0241 225.781 91.661 226.586 89.6283L249.014 34.5344C249.729 32.7827 250.089 31.3827 250.089 30.3339C250.091 28.7238 249.226 27.5653 247.5 26.8642L247.501 25.1829L269.113 25.187L269.112 26.8684C267.357 27.465 266.477 28.4956 266.479 29.9664C266.48 30.9825 266.761 32.1375 267.327 33.4318L290.534 88.6962C291.515 91.0445 292.38 92.6467 293.125 93.5052C293.868 94.3634 294.865 94.9307 296.115 95.2122L296.114 96.8936L273.675 96.8877L273.676 95.2064C275.647 94.824 276.634 93.7362 276.632 91.9504C276.633 91.2138 276.333 90.1308 275.741 88.6914L271.553 78.6051L271.55 78.6102ZM267.724 68.7863L257.845 43.2422L247.796 68.7806L267.724 68.7863Z" fill="#0E1134"/>
<path d="M316.352 47.7868L316.343 91.3828C316.341 92.4699 316.551 93.2915 316.966 93.8525C317.384 94.4138 318.127 94.8696 319.2 95.2202L319.199 96.9015L301.292 96.8966L301.293 95.2152C302.365 94.8674 303.108 94.4113 303.526 93.8498C303.943 93.291 304.152 92.4695 304.151 91.3822L304.165 30.6628C304.165 29.614 303.957 28.8063 303.542 28.2452C303.124 27.6866 302.383 27.2311 301.311 26.8778L301.312 25.1965L322.033 25.2005L322.033 26.8818C320.752 27.268 320.111 28.0718 320.112 29.2987C320.111 30.1394 320.529 31.0676 321.362 32.0832L354.979 73.22L354.988 30.6728C354.988 29.624 354.78 28.8162 354.365 28.2552C353.95 27.6941 353.203 27.2407 352.131 26.8875L352.132 25.2061L370.041 25.2114L370.04 26.8927C368.968 27.2433 368.222 27.6991 367.808 28.2582C367.39 28.817 367.182 29.625 367.182 30.6738L367.168 91.3931C367.167 92.4801 367.376 93.3017 367.791 93.8627C368.209 94.4241 368.953 94.8799 370.025 95.2304L370.024 96.9118L350.822 96.9081L350.823 95.2267C352.075 94.9114 352.698 94.1607 352.7 92.9696C352.699 92.2685 351.971 91.042 350.511 89.2926L316.357 47.7874L316.352 47.7868Z" fill="#0E1134"/>
<path d="M414.133 23.9634C424.766 23.9652 433.197 27.3484 439.423 34.1073C446.005 41.1828 449.295 50.3234 449.291 61.5289C449.29 68.3915 447.71 74.7984 444.55 80.7524C438.381 92.3776 428.265 98.1862 414.203 98.1841C403.657 98.1806 395.273 94.7995 389.047 88.0405C385.711 84.4324 383.18 80.106 381.454 75.0645C379.934 70.6168 379.178 65.9424 379.179 61.0406C379.181 53.8604 380.744 47.2957 383.873 41.344C389.863 29.963 399.951 24.1705 414.13 23.9631L414.133 23.9634ZM414.174 36.1486C408.363 36.1479 403.52 38.1765 399.645 42.2317C395.052 47.0223 392.756 53.3023 392.757 61.066C392.754 68.8321 395.048 75.1108 399.637 79.9045C403.511 83.9634 408.384 85.9936 414.253 85.9948C420.121 85.9959 424.981 83.969 428.826 79.9107C431.122 77.4976 432.88 74.5433 434.103 71.0457C435.177 67.9322 435.714 64.7132 435.714 61.3914C435.715 53.2773 433.421 46.8918 428.834 42.238C424.93 38.2499 420.043 36.221 414.171 36.1483L414.174 36.1486Z" fill="#0E1134"/>
<path d="M515.569 31.3193L508.285 48.2007L507.034 47.3577C507.063 47.0074 507.081 46.7272 507.081 46.5191C507.083 45.328 506.217 44.0516 504.492 42.6825C499.194 38.3375 492.972 36.166 485.828 36.1654C482.673 36.1636 479.887 36.6194 477.478 37.5282C475.72 38.2287 474.298 39.2793 473.21 40.6742C472.124 42.0722 471.581 43.5954 471.579 45.241C471.579 47.9329 472.964 49.7704 475.731 50.7503C477.162 51.2397 480.228 51.7662 484.932 52.3273L491.942 53.1683C496.11 53.6951 499.482 54.4125 502.057 55.323C504.632 56.2334 506.916 57.5106 508.91 59.1544C510.935 60.8699 512.533 63.1268 513.711 65.9256C514.885 68.7268 515.473 71.7186 515.473 74.9035C515.471 79.9422 514.088 84.4198 511.317 88.3387C508.815 91.9079 504.929 94.5489 499.659 96.2616C495.728 97.556 491.514 98.2019 487.02 98.1996C478.953 98.1981 470.99 95.921 463.131 91.3653C461.465 90.457 460.467 89.9992 460.141 90.0006C459.755 90.0012 459.142 90.3835 458.309 91.1533L457.014 90.3659L463.627 72.7708L464.922 73.5062L464.921 74.188C464.921 75.7626 465.56 77.2152 466.839 78.5459C468.774 80.5778 471.767 82.329 475.816 83.8019C479.863 85.2746 483.702 86.0107 487.336 86.0107C491.296 86.0119 494.675 85.2266 497.474 83.6548C499.022 82.7818 500.259 81.6187 501.18 80.168C502.101 78.7199 502.566 77.2077 502.567 75.6358C502.566 73.2588 501.479 71.562 499.307 70.5486C497.789 69.8501 494.724 69.2032 490.109 68.6076L483.23 67.7667C478.617 67.2069 475.356 66.671 473.452 66.1621C471.547 65.6532 469.642 64.8374 467.735 63.7149C465.028 62.1388 462.899 59.7716 461.353 56.6165C459.955 53.7782 459.254 50.5171 459.256 46.8368C459.258 40.7767 461.031 35.7647 464.573 31.8061C469.219 26.5857 476.186 23.9743 485.475 23.9777C489.374 23.978 493.006 24.446 496.372 25.3791C499.736 26.312 503.932 28.0276 508.964 30.5236C510.69 31.3341 511.748 31.738 512.135 31.7374C512.759 31.7371 513.488 31.3342 514.324 30.5235L515.574 31.3172L515.569 31.3193Z" fill="#0E1134"/>
<path d="M243.567 6.87762C246.091 3.48878 249.331 1.22934 252.333 1.23147C257.256 1.23229 261.633 6.03667 266.316 6.03962C268.178 6.0402 270.281 4.62561 271.6 2.86044L274.301 8.44238C272.017 10.9827 269.016 13.1002 266.255 13.1014C261.455 13.0998 256.954 8.29886 252.751 8.2968C250.229 8.29556 248.068 10.3422 246.565 12.1073L243.567 6.88032L243.567 6.87762Z" fill="#0E1134"/>
</svg>
