<svg xmlns="http://www.w3.org/2000/svg" width="135" height="74" fill="none" viewBox="0 0 135 74">
  <g clip-path="url(#a)">
    <path fill="#E41F13" d="M0-51h135V67.483a6.579 6.579 0 0 1-6.576 6.576H6.576A6.579 6.579 0 0 1 0 67.483V-51Z"/>
    <path fill="#FEF8EB" d="M16.638 32.228h5.131v6.058h-5.131v-6.058Zm-8.98 0h3.29v19.343h5.69V43.59h7.724l3.082-5.353V26.97H7.658v5.258Zm98.206-5.26h-5.743l-7.575 13.769V26.968H83.62v5.335h3.23V51.57h5.697v.022l7.575-13.48V51.57h8.977v-5.289h-3.234V26.968Zm3.494 0v5.357h6.052V51.57h5.7V32.303h6.058v-5.335h-17.81ZM30.37 32.303h3.232V51.57H47.95v-5.288H39.3v-4.518h6.567l1.569-5.187H39.3v-4.274h8.649V26.97H30.37v5.333Zm49.093 0V26.97h-6.492l-6.623 12.587L59.7 26.97h-6.674v5.333h3.692L51.027 51.57h6.31L60.6 40.444l5.749 9.802 5.7-9.802L75.33 51.57h6.341l-5.649-19.267h3.441Zm47.792 24.217H7.745v.66h119.51v-.66Zm-99.238 4.336h-2.154v3.514h-.482V60.4h3.117v3.969h-.482v-3.514Zm4.516-.511c1.152 0 2.024.833 2.024 2.042 0 1.208-.872 2.04-2.024 2.04-1.15 0-2.023-.833-2.023-2.04 0-1.208.845-2.042 2.023-2.042Zm0 3.629c.907 0 1.514-.692 1.514-1.587 0-.896-.664-1.587-1.514-1.587s-1.513.663-1.513 1.587c0 .923.664 1.587 1.513 1.587Zm3.31-3.573h3.26v.455h-1.39v3.514h-.481v-3.514h-1.39V60.4Zm6.569-.056c1.151 0 2.024.833 2.024 2.042 0 1.208-.873 2.04-2.024 2.04s-2.024-.833-2.024-2.04c0-1.208.845-2.042 2.024-2.042Zm0 3.629c.907 0 1.513-.692 1.513-1.587 0-.896-.663-1.587-1.513-1.587-.85 0-1.513.663-1.513 1.587 0 .923.663 1.587 1.513 1.587Zm4.035-3.573h.487l1.49 2.036 1.43-2.036h.459v3.969h-.482v-3.208l-1.406 1.972h-.074l-1.422-1.956v3.192h-.482V60.4Zm7.912 3.062c-.272.606-.55.907-.986.907-.176 0-.374-.057-.482-.142l.17-.408a.497.497 0 0 0 .305.102c.227 0 .38-.176.488-.403l.068-.147-1.797-2.97h.544l1.485 2.488 1.089-2.489h.487l-1.372 3.062h.001Zm8.087.907h-.482v-1.735c-.204.148-.59.306-1.049.306-.63 0-1.19-.34-1.19-1.264V60.4h.481v1.146c0 .686.352.94.834.94.385 0 .714-.158.924-.3V60.4h.482v3.969Zm1.784-3.969h3.26v.455H66.1v3.514h-.481v-3.514H64.23V60.4Zm6.57-.056c1.15 0 2.023.833 2.023 2.042 0 1.208-.873 2.04-2.024 2.04-1.15 0-2.024-.833-2.024-2.04 0-1.208.846-2.042 2.024-2.042Zm0 3.629c.906 0 1.513-.692 1.513-1.587 0-.896-.664-1.587-1.514-1.587s-1.513.663-1.513 1.587c0 .923.664 1.587 1.513 1.587Zm6.357-3.561c.222-.01.772-.034 1.202-.034.947 0 1.332.437 1.332.986 0 .414-.159.692-.453.885v.011c.289.108.566.397.566.907 0 .833-.646 1.225-1.507 1.225a15.7 15.7 0 0 1-1.14-.034v-3.945Zm.907.84v.719h.3c.233 0 .42-.097.42-.385 0-.238-.216-.358-.437-.358-.113 0-.181.011-.283.023m0 1.513v.743a.993.993 0 0 0 .305.034c.352 0 .528-.153.528-.419 0-.25-.188-.358-.482-.358h-.352Zm3.723-2.364h.908v1.73l1.298-1.73h1.088l-1.49 1.832 1.61 2.137H84.05l-1.355-1.888v1.888h-.907V60.4Zm7.131 3.028c-.272.606-.612.94-1.162.94-.232 0-.493-.09-.6-.175l.316-.772c.108.074.164.097.278.097.147 0 .243-.045.294-.158l.051-.12-1.707-2.84h1.026l1.117 1.94.805-1.94h.913l-1.332 3.028h.001Zm5.951.55c-.238.266-.754.459-1.292.459-1.23 0-2.08-.817-2.08-2.053 0-1.139.708-2.052 2.074-2.052.527 0 .975.182 1.213.414l-.403.68c-.215-.13-.437-.243-.81-.243-.613 0-1.112.419-1.112 1.201 0 .704.487 1.202 1.202 1.202.283 0 .595-.09.861-.29l.346.68v.002Zm4.108-1.207h-1.445v1.598h-.907V60.4h.907v1.52h1.445V60.4h.907v3.969h-.907v-1.598Zm4.886-2.438c1.207 0 2.108.788 2.108 2.052 0 1.265-.901 2.053-2.108 2.053-1.208 0-2.109-.788-2.109-2.053 0-1.15.844-2.052 2.109-2.052Zm0 3.254c.754 0 1.145-.532 1.145-1.202 0-.725-.504-1.201-1.145-1.201-.642 0-1.146.476-1.146 1.201 0 .68.511 1.202 1.146 1.202Zm4.369-.295c.317 0 .533.279.533.533 0 .3-.216.578-.533.578a.563.563 0 0 1-.578-.578c0-.255.216-.533.578-.533Zm-.477-2.89h.907v2.437h-.907v-2.438Z"/>
  </g>
  <defs>
    <clipPath id="a">
      <path fill="#fff" d="M0 0h135v74H0z"/>
    </clipPath>
  </defs>
</svg>