<svg width="0" height="0" class="hidden">
  <symbol xmlns="http://www.w3.org/2000/svg" viewBox="0 0 19 20" id="btn-icon">
    <path d="M9.5 2C7.29086 2 5.5 3.79086 5.5 6C5.5 8.20914 7.29086 10 9.5 10C11.7091 10 13.5 8.20914 13.5 6C13.5 3.79086 11.7091 2 9.5 2ZM3.5 6C3.5 2.68629 6.18629 0 9.5 0C12.8137 0 15.5 2.68629 15.5 6C15.5 9.31371 12.8137 12 9.5 12C6.18629 12 3.5 9.31371 3.5 6ZM5.5 16C3.84315 16 2.5 17.3431 2.5 19C2.5 19.5523 2.05228 20 1.5 20C0.947715 20 0.5 19.5523 0.5 19C0.5 16.2386 2.73858 14 5.5 14H13.5C16.2614 14 18.5 16.2386 18.5 19C18.5 19.5523 18.0523 20 17.5 20C16.9477 20 16.5 19.5523 16.5 19C16.5 17.3431 15.1569 16 13.5 16H5.5Z"/>
  </symbol>
  <symbol xmlns="http://www.w3.org/2000/svg" viewBox="0 0 20 20" id="download-icon">
    <path d="M19 12C18.7348 12 18.4804 12.1054 18.2929 12.2929C18.1054 12.4804 18 12.7348 18 13V17C18 17.2652 17.8946 17.5196 17.7071 17.7071C17.5196 17.8946 17.2652 18 17 18H3C2.73478 18 2.48043 17.8946 2.29289 17.7071C2.10536 17.5196 2 17.2652 2 17V13C2 12.7348 1.89464 12.4804 1.70711 12.2929C1.51957 12.1054 1.26522 12 1 12C0.734784 12 0.48043 12.1054 0.292893 12.2929C0.105357 12.4804 0 12.7348 0 13V17C0 17.7956 0.316071 18.5587 0.87868 19.1213C1.44129 19.6839 2.20435 20 3 20H17C17.7956 20 18.5587 19.6839 19.1213 19.1213C19.6839 18.5587 20 17.7956 20 17V13C20 12.7348 19.8946 12.4804 19.7071 12.2929C19.5196 12.1054 19.2652 12 19 12ZM9.29 13.71C9.3851 13.801 9.49725 13.8724 9.62 13.92C9.7397 13.9729 9.86913 14.0002 10 14.0002C10.1309 14.0002 10.2603 13.9729 10.38 13.92C10.5028 13.8724 10.6149 13.801 10.71 13.71L14.71 9.71C14.8983 9.5217 15.0041 9.2663 15.0041 9C15.0041 8.7337 14.8983 8.4783 14.71 8.29C14.5217 8.1017 14.2663 7.99591 14 7.99591C13.7337 7.99591 13.4783 8.1017 13.29 8.29L11 10.59V1C11 0.734784 10.8946 0.48043 10.7071 0.292893C10.5196 0.105357 10.2652 0 10 0C9.73478 0 9.48043 0.105357 9.29289 0.292893C9.10536 0.48043 9 0.734784 9 1V10.59L6.71 8.29C6.61676 8.19676 6.50607 8.1228 6.38425 8.07234C6.26243 8.02188 6.13186 7.99591 6 7.99591C5.86814 7.99591 5.73757 8.02188 5.61575 8.07234C5.49393 8.1228 5.38324 8.19676 5.29 8.29C5.19676 8.38324 5.1228 8.49393 5.07234 8.61575C5.02188 8.73757 4.99591 8.86814 4.99591 9C4.99591 9.13186 5.02188 9.26243 5.07234 9.38425C5.1228 9.50607 5.19676 9.61676 5.29 9.71L9.29 13.71Z" />
  </symbol>
  <symbol viewBox="0 0 16 20" xmlns="http://www.w3.org/2000/svg" id="document-icon">
    <path d="M0 2C0 0.895432 0.89543 0 2 0H10C10.2652 0 10.5196 0.105357 10.7071 0.292893L15.7071 5.29289C15.8946 5.48043 16 5.73478 16 6V18C16 19.1046 15.1046 20 14 20H2C0.895432 20 0 19.1046 0 18V2ZM13.5858 6L10 2.41421V6H13.5858ZM8 2L2 2V18H14V8H9C8.44772 8 8 7.55228 8 7V2ZM4 11C4 10.4477 4.44772 10 5 10H11C11.5523 10 12 10.4477 12 11C12 11.5523 11.5523 12 11 12H5C4.44772 12 4 11.5523 4 11ZM4 15C4 14.4477 4.44772 14 5 14H11C11.5523 14 12 14.4477 12 15C12 15.5523 11.5523 16 11 16H5C4.44772 16 4 15.5523 4 15Z"/>
  </symbol>
  <symbol viewBox="0 0 20 20" xmlns="http://www.w3.org/2000/svg" id="help-icon">
    <path d="M10 2C5.58172 2 2 5.58172 2 10C2 14.4183 5.58172 18 10 18C14.4183 18 18 14.4183 18 10C18 5.58172 14.4183 2 10 2ZM0 10C0 4.47715 4.47715 0 10 0C15.5228 0 20 4.47715 20 10C20 15.5228 15.5228 20 10 20C4.47715 20 0 15.5228 0 10Z"/>
    <path d="M10 12C9.44771 12 9 11.5523 9 11V10C9 9.44771 9.44772 9 10 9C10.5523 9 11 9.44772 11 10V11C11 11.5523 10.5523 12 10 12Z" />
    <path d="M8.5 14.5C8.5 13.6716 9.17157 13 10 13C10.8284 13 11.5 13.6716 11.5 14.5C11.5 15.3284 10.8284 16 10 16C9.17157 16 8.5 15.3284 8.5 14.5Z"/>
    <path d="M10.3899 5.81137C9.4329 5.7658 8.63039 6.3004 8.48639 7.1644C8.3956 7.70917 7.88037 8.07719 7.3356 7.9864C6.79083 7.8956 6.42281 7.38037 6.51361 6.8356C6.86961 4.69961 8.8171 3.73421 10.4851 3.81363C11.3395 3.85432 12.2176 4.16099 12.8937 4.79278C13.5866 5.44027 14 6.36777 14 7.5C14 8.79131 13.4919 9.74892 12.6172 10.3321C11.8141 10.8675 10.8295 11 10 11C9.44772 11 9 10.5523 9 10C9 9.44771 9.44772 9 10 9C10.6705 9 11.1859 8.88252 11.5078 8.66795C11.7581 8.50109 12 8.2087 12 7.5C12 6.88224 11.7884 6.49723 11.5282 6.2541C11.2512 5.99526 10.848 5.83318 10.3899 5.81137Z"/>
  </symbol>
  <symbol viewBox="0 0 12 12" xmlns="http://www.w3.org/2000/svg" id="close">
    <path fill-rule="evenodd" clip-rule="evenodd" d="M0.335603 10.0462C-0.111333 10.4931 -0.111333 11.2178 0.335604 11.6647C0.78254 12.1116 1.50717 12.1116 1.9541 11.6647L6.00008 7.61872L10.0462 11.6648C10.4931 12.1118 11.2178 12.1118 11.6647 11.6648C12.1116 11.2179 12.1116 10.4933 11.6647 10.0463L7.61858 6.00022L11.6651 1.9537C12.112 1.50676 12.112 0.782138 11.6651 0.335202C11.2182 -0.111734 10.4935 -0.111734 10.0466 0.335202L6.00008 4.38173L1.9537 0.335356C1.50677 -0.11158 0.782139 -0.11158 0.335202 0.335356C-0.111734 0.782292 -0.111734 1.50692 0.335202 1.95385L4.38158 6.00022L0.335603 10.0462Z"/>
  </symbol>
  <symbol viewBox="0 0 19 22" xmlns="http://www.w3.org/2000/svg" id="exit-icon">
    <path d="M13.9325 20.5875C13.9325 20.856 13.8258 21.1136 13.6359 21.3034C13.4461 21.4933 13.1885 21.6 12.92 21.6H3.37498C2.48019 21.599 1.62233 21.2431 0.98962 20.6104C0.356905 19.9777 0.00100495 19.1198 0 18.225V3.375C0.00100495 2.4802 0.356905 1.62234 0.98962 0.989625C1.62233 0.356907 2.48019 0.00100495 3.37498 0L12.92 0C13.1885 0 13.4461 0.106674 13.6359 0.296554C13.8258 0.486435 13.9325 0.743968 13.9325 1.0125C13.9325 1.28103 13.8258 1.53857 13.6359 1.72845C13.4461 1.91833 13.1885 2.025 12.92 2.025H3.37498C3.01706 2.02539 2.67391 2.16775 2.42083 2.42084C2.16774 2.67393 2.02538 3.01708 2.02499 3.375V18.225C2.02537 18.5829 2.16772 18.9261 2.42081 19.1792C2.6739 19.4323 3.01706 19.5746 3.37498 19.575H12.92C13.1885 19.575 13.4461 19.6817 13.6359 19.8716C13.8258 20.0614 13.9325 20.319 13.9325 20.5875ZM18.512 10.0841L13.7005 5.27251C13.6069 5.17677 13.4952 5.10055 13.3719 5.04827C13.2486 4.996 13.1162 4.9687 12.9823 4.96796C12.8484 4.96721 12.7156 4.99305 12.5918 5.04395C12.4679 5.09486 12.3554 5.16984 12.2607 5.26454C12.166 5.35924 12.091 5.47178 12.0401 5.59565C11.9892 5.71952 11.9634 5.85225 11.9642 5.98617C11.9649 6.12008 11.9923 6.25251 12.0446 6.3758C12.0968 6.49909 12.1731 6.61077 12.2688 6.7044L15.3517 9.7875H7.38105C7.11252 9.7875 6.85499 9.89417 6.66511 10.0841C6.47523 10.2739 6.36855 10.5315 6.36855 10.8C6.36855 11.0685 6.47523 11.3261 6.66511 11.5159C6.85499 11.7058 7.11252 11.8125 7.38105 11.8125H15.3517L12.2687 14.8956C12.1742 14.9895 12.0992 15.1011 12.048 15.2241C11.9968 15.347 11.9703 15.4789 11.9702 15.6121C11.97 15.7453 11.9961 15.8772 12.047 16.0003C12.0979 16.1234 12.1725 16.2352 12.2667 16.3294C12.3609 16.4236 12.4727 16.4983 12.5958 16.5491C12.7189 16.6 12.8508 16.6261 12.984 16.626C13.1172 16.6258 13.2491 16.5993 13.372 16.5481C13.495 16.4969 13.6066 16.4219 13.7005 16.3274L18.512 11.516C18.7019 11.3261 18.8086 11.0686 18.8086 10.8C18.8086 10.5315 18.7019 10.274 18.512 10.0841Z"/>
  </symbol>
  <symbol width="19" height="22" viewBox="0 0 19 22" xmlns="http://www.w3.org/2000/svg" id="copy-icon">
    <path d="M13 0H2C0.9 0 0 0.9 0 2V15C0 15.55 0.45 16 1 16C1.55 16 2 15.55 2 15V3C2 2.45 2.45 2 3 2H13C13.55 2 14 1.55 14 1C14 0.45 13.55 0 13 0ZM17 4H6C4.9 4 4 4.9 4 6V20C4 21.1 4.9 22 6 22H17C18.1 22 19 21.1 19 20V6C19 4.9 18.1 4 17 4ZM16 20H7C6.45 20 6 19.55 6 19V7C6 6.45 6.45 6 7 6H16C16.55 6 17 6.45 17 7V19C17 19.55 16.55 20 16 20Z"/>
  </symbol>

  <symbol  width="20" height="20" viewBox="0 0 20 20" fill="none" xmlns="http://www.w3.org/2000/svg"  id="download-sertificate">
    <path d="M13 0H2C0.9 0 0 0.9 0 2V15C0 15.55 0.45 16 1 16C1.55 16 2 15.55 2 15V3C2 2.45 2.45 2 3 2H13C13.55 2 14 1.55 14 1C14 0.45 13.55 0 13 0ZM17 4H6C4.9 4 4 4.9 4 6V20C4 21.1 4.9 22 6 22H17C18.1 22 19 21.1 19 20V6C19 4.9 18.1 4 17 4ZM16 20H7C6.45 20 6 19.55 6 19V7C6 6.45 6.45 6 7 6H16C16.55 6 17 6.45 17 7V19C17 19.55 16.55 20 16 20Z"/>
 </symbol>



</svg>